<?xml version="1.0" encoding="UTF-8"?><svg id="Layer_3" xmlns="http://www.w3.org/2000/svg" viewBox="0 0 197.88 28.8"><defs><style>.cls-1{fill:#a7a9ac;stroke-width:0px;}</style></defs><path class="cls-1" d="m6.1,26.81h-2.2v-6.35h-1.99v-1.8h6.17v1.8h-1.98v6.35Z"/><path class="cls-1" d="m11.3,18.14v1.23c0,.47-.01.86-.03,1.18-.02.32-.04.56-.06.73h.1c.14-.22.29-.39.47-.52.17-.13.37-.22.58-.28.21-.06.44-.09.69-.09.42,0,.79.08,1.13.24.34.16.6.41.81.75s.3.78.3,1.33v4.11h-2.19v-3.44c0-.42-.06-.74-.18-.95-.12-.21-.31-.32-.57-.32s-.47.07-.62.23c-.15.15-.26.37-.32.66-.06.29-.09.64-.09,1.06v2.78h-2.18v-8.67h2.18Z"/><path class="cls-1" d="m19.61,20.39c.61,0,1.14.11,1.59.32.45.21.79.53,1.03.96.24.43.36.96.36,1.6v.97h-3.9c.02.33.14.6.37.81.23.21.57.32,1.01.32.39,0,.75-.04,1.08-.12s.67-.2,1.02-.36v1.57c-.3.16-.64.28-1,.35-.36.07-.82.11-1.37.11-.64,0-1.2-.11-1.71-.34-.5-.23-.9-.58-1.18-1.05s-.43-1.09-.43-1.83.13-1.38.39-1.87.62-.85,1.09-1.09c.47-.24,1.01-.35,1.63-.35Zm.08,1.48c-.26,0-.47.08-.64.24-.17.16-.27.41-.3.76h1.87c0-.19-.04-.35-.11-.51s-.17-.27-.31-.36c-.14-.09-.3-.13-.5-.13Z"/><path class="cls-1" d="m29.58,18.66c.74,0,1.35.09,1.84.27.49.18.86.45,1.11.8.25.36.37.8.37,1.33,0,.33-.06.63-.17.9-.11.27-.27.51-.48.73-.21.21-.45.4-.74.56l2.37,3.55h-2.5l-1.73-2.96h-.56v2.96h-2.2v-8.15h2.67Zm-.03,1.67h-.43v1.86h.41c.34,0,.61-.07.83-.22.22-.15.32-.41.32-.8,0-.26-.09-.47-.27-.62-.18-.15-.47-.22-.86-.22Z"/><path class="cls-1" d="m40.54,23.64c0,.53-.07,1-.22,1.4-.14.41-.35.75-.63,1.03-.28.28-.61.49-1,.63-.39.14-.83.21-1.32.21-.46,0-.88-.07-1.26-.21-.38-.14-.71-.35-.99-.63-.28-.28-.5-.62-.66-1.03-.15-.41-.23-.88-.23-1.4,0-.7.13-1.29.38-1.77.25-.48.62-.85,1.09-1.1s1.04-.38,1.7-.38c.61,0,1.14.13,1.62.38.47.25.84.62,1.11,1.1.27.48.4,1.07.4,1.77Zm-4.09,0c0,.36.03.66.09.91.06.25.16.43.3.56.14.13.32.19.55.19s.41-.06.54-.19c.13-.13.23-.32.29-.56.06-.25.09-.55.09-.91s-.03-.66-.09-.9c-.06-.24-.16-.42-.3-.55-.14-.12-.32-.18-.55-.18-.33,0-.57.14-.72.41-.15.27-.22.68-.22,1.22Z"/><path class="cls-1" d="m47.22,26.81l-.66-2.76c-.03-.14-.07-.3-.1-.48s-.07-.36-.1-.54c-.03-.18-.06-.35-.08-.5-.02-.15-.04-.27-.05-.36h-.03c-.01.09-.03.21-.06.36s-.06.32-.09.51-.07.38-.11.57-.08.37-.11.53l-.64,2.68h-2.29l-1.72-6.31h2.15l.51,2.42c.04.18.08.39.11.64.04.25.07.5.11.75s.05.48.06.68h.03c0-.15.03-.33.05-.53.03-.2.06-.4.09-.59.04-.2.07-.37.1-.52.03-.15.05-.25.06-.31l.59-2.55h2.41l.54,2.58c.03.15.07.33.11.55s.08.46.12.7c.04.24.07.46.09.66h.03c.01-.2.04-.44.07-.7.03-.26.06-.51.1-.76.04-.25.08-.45.11-.62l.56-2.42h2.1l-1.73,6.31h-2.33Z"/><path class="cls-1" d="m54.35,26.81h-2.18v-8.67h2.18v8.67Z"/><path class="cls-1" d="m58.94,20.39c.8,0,1.42.2,1.87.59.45.4.67.96.67,1.69v4.14h-1.51l-.42-.84h-.04c-.18.22-.36.4-.55.54-.19.14-.4.24-.64.31-.24.07-.54.1-.89.1s-.69-.07-.98-.22c-.29-.15-.52-.37-.69-.67-.17-.3-.25-.68-.25-1.14,0-.68.23-1.18.7-1.5s1.15-.51,2.03-.55l1.05-.03v-.09c0-.28-.07-.48-.21-.6-.14-.12-.33-.18-.56-.18-.25,0-.53.04-.83.13-.31.09-.61.2-.92.34l-.63-1.44c.36-.19.78-.33,1.24-.42.46-.1.98-.14,1.55-.14Zm.38,3.61l-.5.02c-.4.01-.68.08-.84.21-.16.12-.24.3-.24.53,0,.22.06.37.17.48.12.1.27.15.46.15.26,0,.49-.08.68-.25.19-.17.28-.38.28-.65v-.49Z"/><path class="cls-1" d="m66.92,20.39c.65,0,1.18.18,1.59.55.41.37.62.96.62,1.77v4.11h-2.18v-3.44c0-.42-.06-.74-.18-.95-.12-.21-.31-.32-.58-.32-.41,0-.69.17-.83.5s-.21.82-.21,1.45v2.76h-2.18v-6.31h1.64l.3.84h.08c.13-.2.29-.37.48-.51.19-.14.4-.25.64-.32.24-.07.51-.11.81-.11Z"/><path class="cls-1" d="m72.58,26.92c-.65,0-1.19-.28-1.6-.83-.42-.55-.63-1.36-.63-2.43s.22-1.89.65-2.45.99-.83,1.67-.83c.28,0,.53.04.73.12.2.08.38.19.53.33.15.14.28.3.39.47h.04c-.03-.16-.05-.38-.07-.66-.02-.28-.03-.55-.03-.82v-1.69h2.2v8.67h-1.64l-.47-.8h-.08c-.1.17-.23.32-.38.46-.15.14-.33.25-.55.33-.21.08-.47.12-.76.12Zm.89-1.72c.35,0,.6-.11.74-.33s.22-.56.23-1.01v-.17c0-.5-.07-.88-.21-1.15-.14-.27-.4-.4-.78-.4-.26,0-.48.13-.65.38-.17.25-.26.64-.26,1.18s.09.91.26,1.14c.17.24.39.36.67.36Z"/><path class="cls-1" d="m81.05,26.81v-8.15h2.21v8.15h-2.21Z"/><path class="cls-1" d="m88.85,20.39c.65,0,1.18.18,1.59.55.41.37.62.96.62,1.77v4.11h-2.18v-3.44c0-.42-.06-.74-.18-.95-.12-.21-.31-.32-.58-.32-.41,0-.69.17-.83.5s-.21.82-.21,1.45v2.76h-2.18v-6.31h1.64l.3.84h.08c.13-.2.29-.37.48-.51.19-.14.4-.25.64-.32.24-.07.51-.11.81-.11Z"/><path class="cls-1" d="m97.23,24.87c0,.4-.09.76-.27,1.06-.18.31-.46.55-.86.72-.39.17-.91.26-1.55.26-.45,0-.85-.02-1.21-.07-.35-.05-.71-.14-1.08-.28v-1.74c.4.18.8.31,1.21.39s.74.12.98.12.42-.03.54-.08c.11-.05.17-.13.17-.24,0-.09-.04-.17-.11-.24-.08-.07-.21-.14-.41-.23-.2-.09-.47-.2-.82-.35-.35-.15-.64-.3-.87-.47-.23-.17-.41-.38-.52-.61s-.17-.53-.17-.88c0-.62.24-1.08.71-1.39.48-.31,1.11-.47,1.89-.47.42,0,.81.04,1.18.14.37.09.75.22,1.14.4l-.6,1.4c-.31-.14-.63-.25-.95-.34-.32-.09-.57-.13-.76-.13-.17,0-.3.02-.4.07-.09.04-.14.11-.14.19,0,.08.03.15.1.21.07.06.19.13.37.21.18.08.45.19.8.33.37.15.67.31.91.48.24.17.42.38.54.62s.18.55.18.92Z"/><path class="cls-1" d="m101.53,25.2c.2,0,.38-.02.54-.06.16-.04.33-.09.51-.16v1.59c-.24.1-.49.19-.75.25-.27.07-.6.1-1.02.1s-.77-.06-1.08-.19c-.31-.13-.55-.35-.73-.67-.17-.32-.26-.76-.26-1.33v-2.6h-.76v-.89l.97-.68.56-1.33h1.43v1.27h1.55v1.63h-1.55v2.46c0,.21.05.36.16.46.1.1.25.15.43.15Z"/><path class="cls-1" d="m104.8,17.96c.31,0,.58.07.82.19.23.13.35.39.35.77s-.12.63-.35.76c-.23.13-.5.2-.82.2s-.59-.07-.82-.2c-.22-.13-.34-.39-.34-.76s.11-.64.34-.77c.22-.13.5-.19.82-.19Zm1.08,2.54v6.31h-2.18v-6.31h2.18Z"/><path class="cls-1" d="m110.5,25.2c.2,0,.38-.02.54-.06.16-.04.33-.09.51-.16v1.59c-.24.1-.49.19-.75.25-.27.07-.6.1-1.02.1s-.77-.06-1.08-.19c-.31-.13-.55-.35-.73-.67-.17-.32-.26-.76-.26-1.33v-2.6h-.76v-.89l.97-.68.56-1.33h1.43v1.27h1.55v1.63h-1.55v2.46c0,.21.05.36.16.46.1.1.25.15.43.15Z"/><path class="cls-1" d="m118.79,20.5v6.31h-1.64l-.27-.79h-.13c-.13.21-.29.38-.49.52-.2.13-.42.23-.66.29-.24.06-.49.09-.75.09-.41,0-.78-.08-1.12-.24-.33-.16-.6-.41-.79-.75s-.29-.78-.29-1.32v-4.11h2.18v3.45c0,.41.06.72.18.93.12.21.31.32.58.32s.49-.07.64-.22c.15-.15.26-.37.32-.66.06-.29.09-.64.09-1.06v-2.76h2.18Z"/><path class="cls-1" d="m123.39,25.2c.2,0,.38-.02.54-.06.16-.04.33-.09.51-.16v1.59c-.24.1-.49.19-.75.25-.27.07-.6.1-1.02.1s-.77-.06-1.08-.19c-.31-.13-.55-.35-.73-.67-.17-.32-.26-.76-.26-1.33v-2.6h-.76v-.89l.97-.68.56-1.33h1.43v1.27h1.55v1.63h-1.55v2.46c0,.21.05.36.16.46.1.1.25.15.43.15Z"/><path class="cls-1" d="m128.39,20.39c.61,0,1.14.11,1.59.32.45.21.79.53,1.03.96.24.43.36.96.36,1.6v.97h-3.9c.02.33.14.6.37.81.23.21.57.32,1.01.32.39,0,.75-.04,1.08-.12s.67-.2,1.02-.36v1.57c-.3.16-.64.28-1,.35-.36.07-.82.11-1.37.11-.64,0-1.2-.11-1.71-.34-.5-.23-.9-.58-1.18-1.05s-.43-1.09-.43-1.83.13-1.38.39-1.87.62-.85,1.09-1.09c.47-.24,1.01-.35,1.63-.35Zm.08,1.48c-.26,0-.47.08-.64.24-.17.16-.27.41-.3.76h1.87c0-.19-.04-.35-.11-.51s-.17-.27-.31-.36c-.14-.09-.3-.13-.5-.13Z"/><path class="cls-1" d="m138.65,20.39c.8,0,1.42.2,1.87.59.45.4.67.96.67,1.69v4.14h-1.51l-.42-.84h-.04c-.18.22-.36.4-.55.54-.19.14-.4.24-.64.31-.24.07-.54.1-.89.1s-.69-.07-.98-.22c-.29-.15-.52-.37-.69-.67-.17-.3-.25-.68-.25-1.14,0-.68.23-1.18.7-1.5s1.15-.51,2.03-.55l1.05-.03v-.09c0-.28-.07-.48-.21-.6-.14-.12-.33-.18-.56-.18-.25,0-.53.04-.83.13-.31.09-.61.2-.92.34l-.63-1.44c.36-.19.78-.33,1.24-.42.46-.1.98-.14,1.55-.14Zm.38,3.61l-.5.02c-.4.01-.68.08-.84.21-.16.12-.24.3-.24.53,0,.22.06.37.17.48.12.1.27.15.46.15.26,0,.49-.08.68-.25.19-.17.28-.38.28-.65v-.49Z"/><path class="cls-1" d="m145.77,25.2c.2,0,.38-.02.54-.06.16-.04.33-.09.51-.16v1.59c-.24.1-.49.19-.75.25-.27.07-.6.1-1.02.1s-.77-.06-1.08-.19c-.31-.13-.55-.35-.73-.67-.17-.32-.26-.76-.26-1.33v-2.6h-.76v-.89l.97-.68.56-1.33h1.43v1.27h1.55v1.63h-1.55v2.46c0,.21.05.36.16.46.1.1.25.15.43.15Z"/><path class="cls-1" d="m158,26.81h-2.21v-3.32h-2.56v3.32h-2.21v-8.15h2.21v3.02h2.56v-3.02h2.21v8.15Z"/><path class="cls-1" d="m162.72,20.39c.8,0,1.42.2,1.87.59.45.4.67.96.67,1.69v4.14h-1.51l-.42-.84h-.04c-.18.22-.36.4-.55.54-.19.14-.4.24-.64.31-.24.07-.54.1-.89.1s-.69-.07-.98-.22c-.29-.15-.52-.37-.69-.67-.17-.3-.25-.68-.25-1.14,0-.68.23-1.18.7-1.5s1.15-.51,2.03-.55l1.05-.03v-.09c0-.28-.07-.48-.21-.6-.14-.12-.33-.18-.56-.18-.25,0-.53.04-.83.13-.31.09-.61.2-.92.34l-.63-1.44c.36-.19.78-.33,1.24-.42.46-.1.98-.14,1.55-.14Zm.38,3.61l-.5.02c-.4.01-.68.08-.84.21-.16.12-.24.3-.24.53,0,.22.06.37.17.48.12.1.27.15.46.15.26,0,.49-.08.68-.25.19-.17.28-.38.28-.65v-.49Z"/><path class="cls-1" d="m170.56,20.39c.12,0,.24,0,.37.02.13.02.23.03.29.04l-.2,2.06c-.07-.02-.16-.03-.27-.05-.11-.01-.27-.02-.47-.02-.14,0-.28.01-.44.04-.16.03-.3.08-.44.16-.14.08-.25.21-.34.38-.09.17-.13.4-.13.68v3.1h-2.18v-6.31h1.62l.34,1.01h.11c.11-.21.26-.4.44-.57.18-.17.38-.3.61-.4.22-.1.46-.15.69-.15Z"/><path class="cls-1" d="m173.76,26.81l-2.41-6.31h2.27l1.07,3.73s.03.12.06.26c.03.14.04.27.04.38h.04c0-.13.01-.25.04-.36s.05-.2.06-.27l1.12-3.75h2.27l-2.41,6.31h-2.16Z"/><path class="cls-1" d="m182.16,20.39c.8,0,1.42.2,1.87.59.45.4.67.96.67,1.69v4.14h-1.51l-.42-.84h-.04c-.18.22-.36.4-.55.54-.19.14-.4.24-.64.31-.24.07-.54.1-.89.1s-.69-.07-.98-.22c-.29-.15-.52-.37-.69-.67-.17-.3-.25-.68-.25-1.14,0-.68.23-1.18.7-1.5s1.15-.51,2.03-.55l1.05-.03v-.09c0-.28-.07-.48-.21-.6-.14-.12-.33-.18-.56-.18-.25,0-.53.04-.83.13-.31.09-.61.2-.92.34l-.63-1.44c.36-.19.78-.33,1.24-.42.46-.1.98-.14,1.55-.14Zm.38,3.61l-.5.02c-.4.01-.68.08-.84.21-.16.12-.24.3-.24.53,0,.22.06.37.17.48.12.1.27.15.46.15.26,0,.49-.08.68-.25.19-.17.28-.38.28-.65v-.49Z"/><path class="cls-1" d="m190,20.39c.12,0,.24,0,.37.02.13.02.23.03.29.04l-.2,2.06c-.07-.02-.16-.03-.27-.05-.11-.01-.27-.02-.47-.02-.14,0-.28.01-.44.04-.16.03-.3.08-.44.16-.14.08-.25.21-.34.38-.09.17-.13.4-.13.68v3.1h-2.18v-6.31h1.62l.34,1.01h.11c.11-.21.26-.4.44-.57.18-.17.38-.3.61-.4.22-.1.46-.15.69-.15Z"/><path class="cls-1" d="m193.5,26.92c-.65,0-1.19-.28-1.6-.83-.42-.55-.63-1.36-.63-2.43s.22-1.89.65-2.45.99-.83,1.67-.83c.28,0,.53.04.73.12.2.08.38.19.53.33.15.14.28.3.39.47h.04c-.03-.16-.05-.38-.07-.66-.02-.28-.03-.55-.03-.82v-1.69h2.2v8.67h-1.64l-.47-.8h-.08c-.1.17-.23.32-.38.46-.15.14-.33.25-.55.33-.21.08-.47.12-.76.12Zm.89-1.72c.35,0,.6-.11.74-.33s.22-.56.23-1.01v-.17c0-.5-.07-.88-.21-1.15-.14-.27-.4-.4-.78-.4-.26,0-.48.13-.65.38-.17.25-.26.64-.26,1.18s.09.91.26,1.14c.17.24.39.36.67.36Z"/><path class="cls-1" d="m72.89,1.83v4.9c0,.68-.13,1.28-.39,1.78-.26.5-.65.89-1.17,1.16-.52.27-1.17.41-1.96.41-1.12,0-1.98-.29-2.57-.86-.59-.58-.89-1.39-.89-2.44V1.83h2.21v4.78c0,.58.11.99.32,1.25.22.26.53.39.95.39.3,0,.55-.06.74-.17s.33-.29.42-.54c.09-.24.13-.56.13-.95V1.83h2.2Z"/><path class="cls-1" d="m78.42,3.55c.65,0,1.18.18,1.59.55.41.37.62.96.62,1.77v4.11h-2.18v-3.44c0-.42-.06-.74-.18-.95-.12-.21-.31-.32-.58-.32-.41,0-.69.17-.83.5s-.21.82-.21,1.45v2.76h-2.18V3.66h1.64l.3.84h.08c.13-.2.29-.37.48-.51.19-.14.4-.25.64-.32.24-.07.51-.11.81-.11Z"/><path class="cls-1" d="m83.23,1.12c.31,0,.58.07.82.19.23.13.35.39.35.77s-.12.63-.35.76c-.23.13-.5.2-.82.2s-.59-.07-.82-.2c-.22-.13-.34-.39-.34-.76s.11-.64.34-.77c.22-.13.5-.19.82-.19Zm1.08,2.54v6.31h-2.18V3.66h2.18Z"/><path class="cls-1" d="m87.48,9.97l-2.41-6.31h2.27l1.07,3.73s.03.12.06.26c.03.14.04.27.04.38h.04c0-.13.01-.25.04-.36s.05-.2.06-.27l1.12-3.75h2.27l-2.41,6.31h-2.16Z"/><path class="cls-1" d="m95.64,3.55c.61,0,1.14.11,1.59.32.45.21.79.53,1.03.96.24.43.36.96.36,1.6v.97h-3.9c.02.33.14.6.37.81.23.21.57.32,1.01.32.39,0,.75-.04,1.08-.12s.67-.2,1.02-.36v1.57c-.3.16-.64.28-1,.35-.36.07-.82.11-1.37.11-.64,0-1.2-.11-1.71-.34-.5-.23-.9-.58-1.18-1.05s-.43-1.09-.43-1.83.13-1.38.39-1.87.62-.85,1.09-1.09c.47-.24,1.01-.35,1.63-.35Zm.08,1.48c-.26,0-.47.08-.64.24-.17.16-.27.41-.3.76h1.87c0-.19-.04-.35-.11-.51s-.17-.27-.31-.36c-.14-.09-.3-.13-.5-.13Z"/><path class="cls-1" d="m103.67,3.55c.12,0,.24,0,.37.02.13.02.23.03.29.04l-.2,2.06c-.07-.02-.16-.03-.27-.05-.11-.01-.27-.02-.47-.02-.14,0-.28.01-.44.04-.16.03-.3.08-.44.16-.14.08-.25.21-.34.38-.09.17-.13.4-.13.68v3.1h-2.18V3.66h1.62l.34,1.01h.11c.11-.21.26-.4.44-.57.18-.17.38-.3.61-.4.22-.1.46-.15.69-.15Z"/><path class="cls-1" d="m109.9,8.03c0,.4-.09.76-.27,1.06-.18.31-.46.55-.86.72-.39.17-.91.26-1.55.26-.45,0-.85-.02-1.21-.07-.35-.05-.71-.14-1.08-.28v-1.74c.4.18.8.31,1.21.39s.74.12.98.12.42-.03.54-.08c.11-.05.17-.13.17-.24,0-.09-.04-.17-.11-.24-.08-.07-.21-.14-.41-.23-.2-.09-.47-.2-.82-.35-.35-.15-.64-.3-.87-.47-.23-.17-.41-.38-.52-.61s-.17-.53-.17-.88c0-.62.24-1.08.71-1.39.48-.31,1.11-.47,1.89-.47.42,0,.81.04,1.18.14.37.09.75.22,1.14.4l-.6,1.4c-.31-.14-.63-.25-.95-.34-.32-.09-.57-.13-.76-.13-.17,0-.3.02-.4.07-.09.04-.14.11-.14.19,0,.08.03.15.1.21.07.06.19.13.37.21.18.08.45.19.8.33.37.15.67.31.91.48.24.17.42.38.54.62s.18.55.18.92Z"/><path class="cls-1" d="m112.22,1.12c.31,0,.58.07.82.19.23.13.35.39.35.77s-.12.63-.35.76c-.23.13-.5.2-.82.2s-.59-.07-.82-.2c-.22-.13-.34-.39-.34-.76s.11-.64.34-.77c.22-.13.5-.19.82-.19Zm1.08,2.54v6.31h-2.18V3.66h2.18Z"/><path class="cls-1" d="m117.92,8.36c.2,0,.38-.02.54-.06.16-.04.33-.09.51-.16v1.59c-.24.1-.49.19-.75.25-.27.07-.6.1-1.02.1s-.77-.06-1.08-.19c-.31-.13-.55-.35-.73-.67-.17-.32-.26-.76-.26-1.33v-2.6h-.76v-.89l.97-.68.56-1.33h1.43v1.27h1.55v1.63h-1.55v2.46c0,.21.05.36.16.46.1.1.25.15.43.15Z"/><path class="cls-1" d="m119.31,3.66h2.3l1.07,3.62c.01.05.03.12.04.19.01.08.03.16.04.24.01.09.02.17.02.25h.04c.02-.15.04-.29.06-.4.02-.11.05-.21.07-.28l1.1-3.63h2.22l-2.5,6.72c-.19.51-.42.94-.67,1.29s-.57.61-.94.79c-.37.18-.84.26-1.39.26-.2,0-.37,0-.52-.03-.14-.02-.27-.04-.38-.06v-1.71c.08.01.18.03.3.04s.24.02.37.02c.24,0,.44-.05.59-.14.15-.1.27-.22.37-.38.1-.16.18-.33.25-.51l.02-.06-2.49-6.23Z"/><path class="cls-1" d="m136.03,6.8c0,.53-.07,1-.22,1.4-.14.41-.35.75-.63,1.03-.28.28-.61.49-1,.63-.39.14-.83.21-1.32.21-.46,0-.88-.07-1.26-.21-.38-.14-.71-.35-.99-.63-.28-.28-.5-.62-.66-1.03-.15-.41-.23-.88-.23-1.4,0-.7.13-1.29.38-1.77.25-.48.62-.85,1.09-1.1s1.04-.38,1.7-.38c.61,0,1.14.13,1.62.38.47.25.84.62,1.11,1.1.27.48.4,1.07.4,1.77Zm-4.09,0c0,.36.03.66.09.91.06.25.16.43.3.56.14.13.32.19.55.19s.41-.06.54-.19c.13-.13.23-.32.29-.56.06-.25.09-.55.09-.91s-.03-.66-.09-.9c-.06-.24-.16-.42-.3-.55-.14-.12-.32-.18-.55-.18-.33,0-.57.14-.72.41-.15.27-.22.68-.22,1.22Z"/><path class="cls-1" d="m141.13,5.29h-1.34v4.68h-2.18v-4.68h-.84v-1.07l.88-.54v-.11c0-.55.07-.99.22-1.33.14-.34.38-.6.69-.76.32-.16.73-.25,1.24-.25.33,0,.62.03.89.08s.54.13.83.22l-.47,1.41c-.11-.03-.23-.06-.36-.08-.13-.02-.27-.03-.43-.03-.17,0-.29.05-.36.15s-.11.27-.11.5v.17h1.34v1.63Z"/><path class="cls-1" d="m148.63,9.97l-1.67-5.87h-.05c.01.15.03.36.05.62.02.26.03.54.05.84.01.3.02.59.02.87v3.54h-1.95V1.83h2.93l1.7,5.78h.04l1.67-5.78h2.94v8.15h-2.02v-3.57c0-.26,0-.53.01-.83,0-.3.02-.57.03-.84.01-.26.03-.47.04-.62h-.05l-1.64,5.86h-2.1Z"/><path class="cls-1" d="m157.1,1.12c.31,0,.58.07.82.19.23.13.35.39.35.77s-.12.63-.35.76c-.23.13-.5.2-.82.2s-.59-.07-.82-.2c-.22-.13-.34-.39-.34-.76s.11-.64.34-.77c.22-.13.5-.19.82-.19Zm1.08,2.54v6.31h-2.18V3.66h2.18Z"/><path class="cls-1" d="m162.57,10.09c-.64,0-1.19-.11-1.67-.34-.47-.23-.84-.58-1.09-1.06-.26-.48-.39-1.09-.39-1.84s.14-1.39.43-1.88.68-.85,1.18-1.08,1.07-.35,1.71-.35c.39,0,.75.04,1.1.13s.67.2.97.35l-.64,1.61c-.26-.11-.5-.21-.73-.28-.22-.07-.46-.1-.7-.1-.22,0-.41.06-.58.17-.17.12-.3.29-.39.52s-.14.53-.14.88.05.66.14.88c.1.22.23.38.4.49s.36.15.58.15c.32,0,.63-.05.94-.15.31-.1.61-.24.89-.41v1.73c-.26.17-.55.31-.88.41-.33.1-.71.15-1.14.15Z"/><path class="cls-1" d="m168.03,1.3v1.23c0,.47-.01.86-.03,1.18-.02.32-.04.56-.06.73h.1c.14-.22.29-.39.47-.52.17-.13.37-.22.58-.28.21-.06.44-.09.69-.09.42,0,.79.08,1.13.24.34.16.6.41.81.75s.3.78.3,1.33v4.11h-2.19v-3.44c0-.42-.06-.74-.18-.95-.12-.21-.31-.32-.57-.32s-.47.07-.62.23c-.15.15-.26.37-.32.66-.06.29-.09.64-.09,1.06v2.78h-2.18V1.3h2.18Z"/><path class="cls-1" d="m174.61,1.12c.31,0,.58.07.82.19.23.13.35.39.35.77s-.12.63-.35.76c-.23.13-.5.2-.82.2s-.59-.07-.82-.2c-.22-.13-.34-.39-.34-.76s.11-.64.34-.77c.22-.13.5-.19.82-.19Zm1.08,2.54v6.31h-2.18V3.66h2.18Z"/><path class="cls-1" d="m179.36,12.71c-.9,0-1.59-.15-2.07-.45-.48-.3-.73-.73-.73-1.29,0-.38.12-.68.35-.93.23-.24.59-.42,1.05-.53-.19-.08-.36-.21-.5-.4-.14-.18-.21-.36-.21-.54,0-.2.05-.37.16-.52.11-.15.33-.33.67-.54-.33-.15-.58-.37-.77-.68-.19-.31-.28-.68-.28-1.13s.1-.85.31-1.17.52-.57.92-.74c.4-.17.89-.26,1.47-.26.08,0,.2,0,.36.02.16.01.32.03.49.04.16.02.29.03.38.05h2.2v1.05l-.86.32c.06.11.1.23.13.35.03.13.04.26.04.4,0,.68-.24,1.21-.72,1.58-.48.38-1.19.56-2.14.56-.23,0-.42-.01-.56-.04-.03.05-.05.1-.06.14-.01.05-.02.09-.02.13,0,.09.05.15.15.2.1.05.23.09.37.1.15.02.29.03.42.03h1.05c.71,0,1.24.15,1.59.45.35.3.53.74.53,1.34,0,.77-.33,1.37-.98,1.79-.66.43-1.58.64-2.76.64Zm.11-1.36c.26,0,.53-.02.8-.07.27-.05.49-.12.67-.23s.27-.24.27-.41c0-.13-.05-.23-.16-.29-.11-.07-.25-.11-.42-.13s-.35-.03-.54-.03h-.85c-.16,0-.3.02-.43.07s-.23.12-.3.2-.11.18-.11.29c0,.18.1.32.29.43.19.11.45.16.77.16Zm.3-4.66c.21,0,.37-.08.48-.24.11-.16.17-.4.17-.72s-.05-.57-.16-.74c-.11-.16-.27-.25-.49-.25s-.4.08-.51.24c-.11.16-.17.4-.17.73s.06.57.17.73c.11.16.28.24.51.24Z"/><path class="cls-1" d="m187.21,3.55c.8,0,1.42.2,1.87.59.45.4.67.96.67,1.69v4.14h-1.51l-.42-.84h-.04c-.18.22-.36.4-.55.54-.19.14-.4.24-.64.31-.24.07-.54.1-.89.1s-.69-.07-.98-.22c-.29-.15-.52-.37-.69-.67-.17-.3-.25-.68-.25-1.14,0-.68.23-1.18.7-1.5s1.15-.51,2.03-.55l1.05-.03v-.09c0-.28-.07-.48-.21-.6-.14-.12-.33-.18-.56-.18-.25,0-.53.04-.83.13-.31.09-.61.2-.92.34l-.63-1.44c.36-.19.78-.33,1.24-.42.46-.1.98-.14,1.55-.14Zm.38,3.61l-.5.02c-.4.01-.68.08-.84.21-.16.12-.24.3-.24.53,0,.22.06.37.17.48.12.1.27.15.46.15.26,0,.49-.08.68-.25.19-.17.28-.38.28-.65v-.49Z"/><path class="cls-1" d="m195.19,3.55c.65,0,1.18.18,1.59.55.41.37.62.96.62,1.77v4.11h-2.18v-3.44c0-.42-.06-.74-.18-.95-.12-.21-.31-.32-.58-.32-.41,0-.69.17-.83.5s-.21.82-.21,1.45v2.76h-2.18V3.66h1.64l.3.84h.08c.13-.2.29-.37.48-.51.19-.14.4-.25.64-.32.24-.07.51-.11.81-.11Z"/></svg>