<?xml version="1.0" encoding="UTF-8"?><svg id="Layer_3" xmlns="http://www.w3.org/2000/svg" viewBox="0 0 99.81 28.8"><defs><style>.cls-1{fill:#a7a9ac;stroke-width:0px;}</style></defs><path class="cls-1" d="m14.81,28.8c-1.67,0-3.26-.47-4.75-1.4-1.5-.93-2.86-2.17-4.09-3.72-1.23-1.55-2.3-3.27-3.19-5.16-.89-1.89-1.58-3.81-2.06-5.76-.48-1.95-.72-3.77-.72-5.47,0-1.34.2-2.56.6-3.64.4-1.08,1.01-1.95,1.83-2.61S4.29.04,5.55.04s2.37.41,3.23,1.21c.86.81,1.58,1.88,2.16,3.21.58,1.33,1.07,2.8,1.48,4.4.41,1.6.8,3.21,1.17,4.81s.77,3.08,1.21,4.42c.55-1.34,1.02-2.82,1.42-4.42s.8-3.21,1.21-4.81.89-3.07,1.44-4.4c.55-1.33,1.23-2.4,2.04-3.21S22.74.04,23.95.04c1.92,0,3.33.69,4.22,2.06.89,1.37,1.34,3.1,1.34,5.18,0,1.7-.24,3.53-.72,5.47-.48,1.95-1.16,3.87-2.04,5.76-.88,1.89-1.93,3.61-3.15,5.16-1.22,1.55-2.57,2.79-4.05,3.72-1.48.93-3.06,1.4-4.73,1.4Z"/><path class="cls-1" d="m40.03,28.68c-.96,0-1.93-.02-2.92-.06-.99-.04-1.89-.17-2.72-.39s-1.49-.59-2-1.11c-.51-.52-.76-1.25-.76-2.18,0-1.21.41-2.06,1.23-2.57s1.82-.84,3-1.01c-.08-.96-.14-2.01-.16-3.15-.03-1.14-.04-2.37-.04-3.68,0-1.21.01-2.35.04-3.44.03-1.08.07-2.08.12-2.98-1.4-.16-2.6-.52-3.6-1.07-1-.55-1.5-1.52-1.5-2.92,0-1.04.27-1.84.82-2.41.55-.56,1.28-.96,2.2-1.19.92-.23,1.92-.38,3-.43s2.16-.08,3.23-.08,2.15.03,3.25.08c1.1.05,2.1.2,3,.43.91.23,1.64.63,2.2,1.19.56.56.84,1.36.84,2.41,0,.93-.23,1.67-.7,2.22-.47.55-1.1.95-1.89,1.21-.8.26-1.66.45-2.59.56.08.91.14,1.89.16,2.96.03,1.07.04,2.22.04,3.46,0,1.32-.02,2.54-.06,3.68-.04,1.14-.1,2.19-.19,3.15,1.23.14,2.28.46,3.15.97s1.3,1.38,1.3,2.61c0,.93-.25,1.66-.76,2.18-.51.52-1.18.89-2.02,1.11-.84.22-1.75.35-2.74.39-.99.04-1.98.06-2.96.06Z"/><path class="cls-1" d="m65.34,28.8c-1.67,0-3.26-.47-4.75-1.4-1.5-.93-2.86-2.17-4.09-3.72-1.23-1.55-2.3-3.27-3.19-5.16-.89-1.89-1.58-3.81-2.06-5.76-.48-1.95-.72-3.77-.72-5.47,0-1.34.2-2.56.6-3.64.4-1.08,1.01-1.95,1.83-2.61s1.86-.99,3.13-.99,2.37.41,3.23,1.21c.86.81,1.58,1.88,2.16,3.21.58,1.33,1.07,2.8,1.48,4.4.41,1.6.8,3.21,1.17,4.81s.77,3.08,1.21,4.42c.55-1.34,1.02-2.82,1.42-4.42s.8-3.21,1.21-4.81.89-3.07,1.44-4.4c.55-1.33,1.23-2.4,2.04-3.21s1.82-1.21,3.02-1.21c1.92,0,3.33.69,4.22,2.06.89,1.37,1.34,3.1,1.34,5.18,0,1.7-.24,3.53-.72,5.47-.48,1.95-1.16,3.87-2.04,5.76-.88,1.89-1.93,3.61-3.15,5.16-1.22,1.55-2.57,2.79-4.05,3.72-1.48.93-3.06,1.4-4.73,1.4Z"/><path class="cls-1" d="m90.56,28.68c-.96,0-1.93-.02-2.92-.06-.99-.04-1.89-.17-2.72-.39s-1.49-.59-2-1.11c-.51-.52-.76-1.25-.76-2.18,0-1.21.41-2.06,1.23-2.57s1.82-.84,3-1.01c-.08-.96-.14-2.01-.16-3.15-.03-1.14-.04-2.37-.04-3.68,0-1.21.01-2.35.04-3.44.03-1.08.07-2.08.12-2.98-1.4-.16-2.6-.52-3.6-1.07-1-.55-1.5-1.52-1.5-2.92,0-1.04.27-1.84.82-2.41.55-.56,1.28-.96,2.2-1.19.92-.23,1.92-.38,3-.43s2.16-.08,3.23-.08,2.15.03,3.25.08c1.1.05,2.1.2,3,.43.91.23,1.64.63,2.2,1.19.56.56.84,1.36.84,2.41,0,.93-.23,1.67-.7,2.22-.47.55-1.1.95-1.89,1.21-.8.26-1.66.45-2.59.56.08.91.14,1.89.16,2.96.03,1.07.04,2.22.04,3.46,0,1.32-.02,2.54-.06,3.68-.04,1.14-.1,2.19-.19,3.15,1.23.14,2.28.46,3.15.97s1.3,1.38,1.3,2.61c0,.93-.25,1.66-.76,2.18-.51.52-1.18.89-2.02,1.11-.84.22-1.75.35-2.74.39-.99.04-1.98.06-2.96.06Z"/></svg>