<?xml version="1.0" encoding="UTF-8"?>
<svg id="Layer_1" xmlns="http://www.w3.org/2000/svg" viewBox="0 0 600 827.11">
  <defs>
    <style>
      .cls-1 {
        isolation: isolate;
      }

      .cls-2 {
        fill: #fff;
      }
    </style>
  </defs>
  <g class="cls-1">
    <g class="cls-1">
      <path class="cls-2" d="M8.33,652.57l11.95,29.94,12.12-29.94h7.13l-19.39,46.45-18.94-46.45h7.14Z"/>
      <path class="cls-2" d="M51.42,652.57v43.21h-6.52v-43.21h6.52Z"/>
      <path class="cls-2" d="M61.8,695.78v-43.21h6.49c2.89,0,5.2.22,6.91.67,1.73.45,3.2,1.2,4.39,2.27,1.21,1.1,2.17,2.47,2.88,4.11.73,1.66,1.09,3.34,1.09,5.04,0,3.1-1.18,5.72-3.55,7.86,2.29.78,4.1,2.16,5.43,4.11,1.34,1.94,2.01,4.2,2.01,6.77,0,3.38-1.19,6.23-3.58,8.56-1.44,1.44-3.05,2.43-4.84,2.99-1.96.54-4.41.81-7.36.81h-9.88ZM68.32,671.12h2.04c2.42,0,4.2-.54,5.33-1.61,1.13-1.07,1.69-2.65,1.69-4.74s-.58-3.58-1.74-4.63c-1.16-1.05-2.84-1.58-5.04-1.58h-2.29v12.56ZM68.32,689.65h4.03c2.95,0,5.11-.58,6.49-1.74,1.46-1.25,2.18-2.83,2.18-4.76s-.7-3.43-2.1-4.7c-1.36-1.25-3.8-1.88-7.3-1.88h-3.3v13.07Z"/>
      <path class="cls-2" d="M110.32,677.36l13.38,18.41h-7.98l-12.34-17.69h-1.18v17.69h-6.52v-43.21h7.64c5.71,0,9.83,1.07,12.37,3.22,2.8,2.39,4.2,5.54,4.2,9.46,0,3.06-.88,5.69-2.63,7.89s-4.07,3.61-6.94,4.22ZM102.21,672.41h2.07c6.17,0,9.26-2.36,9.26-7.08,0-4.42-3-6.63-9.01-6.63h-2.32v13.71Z"/>
    </g>
    <g class="cls-1">
      <path class="cls-2" d="M155.55,685.28h-18.5l-4.81,10.49h-7.02l21.38-45.92,20.62,45.92h-7.14l-4.53-10.49ZM152.9,679.15l-6.41-14.69-6.72,14.69h13.12Z"/>
    </g>
    <g class="cls-1">
      <path class="cls-2" d="M182.12,658.7v37.08h-6.52v-37.08h-9.93v-6.13h26.36v6.13h-9.91Z"/>
      <path class="cls-2" d="M204.37,652.57v43.21h-6.52v-43.21h6.52Z"/>
      <path class="cls-2" d="M212.6,673.98c0-6.08,2.23-11.3,6.69-15.67,4.44-4.37,9.78-6.55,16.01-6.55s11.44,2.2,15.84,6.6c4.42,4.4,6.63,9.69,6.63,15.87s-2.22,11.48-6.66,15.81c-4.46,4.35-9.84,6.52-16.15,6.52-5.58,0-10.59-1.93-15.03-5.79-4.89-4.27-7.33-9.87-7.33-16.79ZM219.17,674.06c0,4.78,1.6,8.7,4.81,11.78,3.19,3.08,6.87,4.62,11.05,4.62,4.53,0,8.36-1.57,11.47-4.7,3.12-3.17,4.67-7.03,4.67-11.58s-1.54-8.47-4.62-11.58c-3.06-3.13-6.85-4.7-11.36-4.7s-8.29,1.57-11.39,4.7c-3.1,3.1-4.64,6.92-4.64,11.47Z"/>
      <path class="cls-2" d="M265.96,695.78v-46.14l31.51,32.96v-30.03h6.52v45.84l-31.51-32.88v30.25h-6.52Z"/>
      <path class="cls-2" d="M357.41,685.28h-18.5l-4.81,10.49h-7.02l21.38-45.92,20.62,45.92h-7.14l-4.53-10.49ZM354.75,679.15l-6.41-14.69-6.72,14.69h13.12Z"/>
    </g>
    <g class="cls-1">
      <path class="cls-2" d="M374.45,695.78v-46.14l31.51,32.96v-30.03h6.52v45.84l-31.51-32.88v30.25h-6.52Z"/>
    </g>
    <g class="cls-1">
      <path class="cls-2" d="M448.53,685.28h-18.5l-4.81,10.49h-7.02l21.38-45.92,20.62,45.92h-7.14l-4.53-10.49ZM445.87,679.15l-6.41-14.69-6.72,14.69h13.12Z"/>
    </g>
    <g class="cls-1">
      <path class="cls-2" d="M472.12,652.57v37.08h12.71v6.13h-19.22v-43.21h6.52Z"/>
    </g>
    <g class="cls-1">
      <path class="cls-2" d="M496.06,677.11l-14.1-24.54h7.5l9.88,17.26,9.91-17.26h7.5l-14.16,24.54v18.66h-6.52v-18.66Z"/>
    </g>
    <g class="cls-1">
      <path class="cls-2" d="M544.83,659.01l-5.29,3.13c-.99-1.72-1.93-2.84-2.83-3.36-.93-.6-2.14-.9-3.61-.9-1.81,0-3.31.51-4.5,1.54-1.19,1.01-1.79,2.28-1.79,3.81,0,2.11,1.57,3.81,4.7,5.09l4.31,1.76c3.51,1.42,6.07,3.15,7.69,5.19,1.62,2.04,2.43,4.55,2.43,7.51,0,3.97-1.32,7.26-3.97,9.85-2.67,2.61-5.98,3.92-9.93,3.92-3.75,0-6.85-1.11-9.29-3.33-2.41-2.22-3.91-5.34-4.5-9.37l6.6-1.46c.3,2.54.82,4.29,1.57,5.26,1.34,1.87,3.3,2.8,5.88,2.8,2.03,0,3.72-.68,5.07-2.04,1.34-1.36,2.01-3.09,2.01-5.18,0-.84-.12-1.61-.35-2.31s-.6-1.34-1.09-1.93c-.49-.59-1.13-1.14-1.92-1.65-.78-.51-1.72-1-2.8-1.47l-4.17-1.74c-5.91-2.5-8.87-6.16-8.87-10.97,0-3.25,1.24-5.96,3.72-8.14,2.48-2.2,5.57-3.3,9.26-3.3,4.98,0,8.87,2.43,11.67,7.28Z"/>
      <path class="cls-2" d="M560.33,652.57v43.21h-6.52v-43.21h6.52Z"/>
      <path class="cls-2" d="M595.14,659.01l-5.29,3.13c-.99-1.72-1.93-2.84-2.83-3.36-.93-.6-2.14-.9-3.61-.9-1.81,0-3.31.51-4.5,1.54-1.19,1.01-1.79,2.28-1.79,3.81,0,2.11,1.57,3.81,4.7,5.09l4.31,1.76c3.51,1.42,6.07,3.15,7.69,5.19,1.62,2.04,2.43,4.55,2.43,7.51,0,3.97-1.32,7.26-3.97,9.85-2.67,2.61-5.98,3.92-9.93,3.92-3.75,0-6.85-1.11-9.29-3.33-2.41-2.22-3.91-5.34-4.5-9.37l6.6-1.46c.3,2.54.82,4.29,1.57,5.26,1.34,1.87,3.3,2.8,5.88,2.8,2.03,0,3.72-.68,5.07-2.04,1.34-1.36,2.01-3.09,2.01-5.18,0-.84-.12-1.61-.35-2.31s-.6-1.34-1.09-1.93c-.49-.59-1.13-1.14-1.92-1.65-.78-.51-1.72-1-2.8-1.47l-4.17-1.74c-5.91-2.5-8.87-6.16-8.87-10.97,0-3.25,1.24-5.96,3.72-8.14,2.48-2.2,5.57-3.3,9.26-3.3,4.98,0,8.87,2.43,11.67,7.28Z"/>
    </g>
  </g>
  <g>
    <path class="cls-2" d="M235.28,321.03c-10.47,0-20.4-2.92-29.76-8.76-9.36-5.84-17.9-13.61-25.64-23.32-7.72-9.7-14.38-20.48-19.97-32.32-5.59-11.85-9.88-23.88-12.88-36.06-3.01-12.19-4.51-23.61-4.51-34.26,0-8.42,1.24-16.02,3.74-22.8,2.49-6.78,6.32-12.23,11.46-16.36,5.16-4.12,11.68-6.18,19.58-6.18s14.81,2.53,20.22,7.6c5.41,5.07,9.92,11.77,13.53,20.09,3.61,8.34,6.7,17.51,9.27,27.57,2.58,10.05,5.02,20.09,7.34,30.15,2.32,10.05,4.85,19.27,7.6,27.69,3.43-8.42,6.39-17.64,8.88-27.69,2.49-10.05,5.02-20.09,7.6-30.15,2.58-10.05,5.58-19.23,9.02-27.57,3.43-8.32,7.68-15.03,12.76-20.09,5.07-5.07,11.37-7.6,18.93-7.6,12.02,0,20.82,4.29,26.41,12.88,5.58,8.59,8.37,19.41,8.37,32.46,0,10.64-1.51,22.07-4.51,34.26-3.01,12.2-7.26,24.22-12.76,36.06-5.5,11.85-12.06,22.63-19.71,32.32-7.64,9.7-16.11,17.48-25.37,23.32-9.27,5.84-19.15,8.76-29.62,8.76l.03-.02Z"/>
    <path class="cls-2" d="M393.2,320.27c-6.01,0-12.11-.12-18.29-.39s-11.85-1.07-17-2.44c-5.16-1.37-9.31-3.69-12.49-6.97-3.18-3.26-4.76-7.81-4.76-13.65,0-7.55,2.58-12.91,7.72-16.09,5.16-3.18,11.41-5.28,18.81-6.32-.51-6.01-.86-12.59-1.03-19.71-.17-7.12-.26-14.81-.26-23.06,0-7.55.09-14.73.26-21.51.17-6.78.43-13,.77-18.67-8.76-1.03-16.28-3.26-22.53-6.7-6.27-3.43-9.41-9.53-9.41-18.29,0-6.53,1.71-11.55,5.16-15.07,3.43-3.52,8.03-6.01,13.78-7.48,5.76-1.45,12.02-2.36,18.81-2.7,6.78-.34,13.53-.51,20.23-.51s13.48.17,20.36.51c6.87.34,13.14,1.25,18.81,2.7s10.26,3.95,13.79,7.48c3.52,3.52,5.28,8.54,5.28,15.07,0,5.84-1.47,10.47-4.39,13.92-2.92,3.44-6.87,5.98-11.85,7.6-4.99,1.64-10.39,2.8-16.23,3.47.51,5.67.86,11.85,1.03,18.55.17,6.69.26,13.92.26,21.64,0,8.25-.12,15.92-.39,23.06-.26,7.12-.65,13.7-1.16,19.71,7.74.86,14.3,2.87,19.71,6.05,5.41,3.18,8.11,8.63,8.11,16.36,0,5.84-1.59,10.39-4.76,13.65-3.18,3.27-7.38,5.59-12.62,6.97-5.24,1.37-10.95,2.19-17.13,2.44-6.18.26-12.37.39-18.55.39h-.06Z"/>
    <path class="cls-2" d="M365.54,510.56c-10.47,0-20.4-2.92-29.76-8.76-9.36-5.84-17.9-13.61-25.64-23.32-7.72-9.7-14.38-20.48-19.97-32.32-5.59-11.85-9.88-23.88-12.88-36.06-3.01-12.19-4.51-23.61-4.51-34.26,0-8.42,1.24-16.02,3.74-22.8,2.49-6.78,6.32-12.23,11.46-16.36,5.16-4.12,11.68-6.18,19.58-6.18s14.81,2.53,20.22,7.6c5.41,5.07,9.92,11.77,13.53,20.09,3.61,8.34,6.7,17.51,9.27,27.57,2.58,10.05,5.02,20.09,7.34,30.15,2.32,10.05,4.85,19.27,7.6,27.69,3.43-8.42,6.39-17.64,8.88-27.69,2.49-10.05,5.02-20.09,7.6-30.15s5.58-19.23,9.02-27.57c3.43-8.32,7.68-15.03,12.76-20.09,5.07-5.07,11.37-7.6,18.93-7.6,12.02,0,20.82,4.29,26.41,12.88,5.58,8.59,8.37,19.41,8.37,32.46,0,10.64-1.51,22.07-4.51,34.26-3.01,12.2-7.26,24.22-12.76,36.06-5.5,11.85-12.06,22.63-19.71,32.32-7.64,9.7-16.11,17.48-25.37,23.32-9.27,5.84-19.15,8.76-29.62,8.76l.03-.02Z"/>
    <path class="cls-2" d="M206.01,509.79c-6.01,0-12.11-.12-18.29-.39-6.18-.26-11.85-1.07-17-2.44-5.16-1.37-9.31-3.69-12.49-6.97-3.18-3.26-4.76-7.81-4.76-13.65,0-7.55,2.58-12.91,7.72-16.09,5.16-3.18,11.41-5.28,18.81-6.32-.51-6.01-.86-12.59-1.03-19.71-.17-7.12-.26-14.81-.26-23.06,0-7.55.09-14.73.26-21.51.17-6.78.43-13,.77-18.67-8.76-1.03-16.28-3.26-22.53-6.7-6.27-3.43-9.41-9.53-9.41-18.29,0-6.53,1.71-11.55,5.16-15.07,3.43-3.52,8.03-6.01,13.78-7.48,5.76-1.45,12.02-2.36,18.81-2.7,6.78-.34,13.53-.51,20.23-.51s13.48.17,20.36.51c6.87.34,13.14,1.25,18.81,2.7,5.67,1.45,10.26,3.95,13.79,7.48,3.52,3.52,5.28,8.54,5.28,15.07,0,5.84-1.47,10.47-4.39,13.92-2.92,3.44-6.87,5.98-11.85,7.6-4.99,1.64-10.39,2.8-16.23,3.47.51,5.67.86,11.85,1.03,18.55.17,6.69.26,13.92.26,21.64,0,8.25-.12,15.92-.39,23.06-.26,7.12-.65,13.7-1.16,19.71,7.74.86,14.3,2.87,19.71,6.05,5.41,3.18,8.11,8.63,8.11,16.36,0,5.84-1.59,10.39-4.76,13.65-3.18,3.27-7.38,5.59-12.62,6.97-5.24,1.37-10.95,2.19-17.13,2.44-6.18.26-12.37.39-18.55.39h-.06Z"/>
  </g>
  <g>
    <path class="cls-2" d="M7.93,726.26v17.19c0,2.45.4,4.25,1.2,5.38,1.2,1.64,2.88,2.46,5.05,2.46s3.87-.82,5.06-2.46c.8-1.1,1.2-2.89,1.2-5.38v-17.19h4.31v18.38c0,3.01-.94,5.48-2.81,7.43-2.11,2.17-4.7,3.25-7.76,3.25s-5.65-1.08-7.75-3.25c-1.87-1.95-2.81-4.42-2.81-7.43v-18.38h4.31Z"/>
    <path class="cls-2" d="M36.44,754.8v-30.48l20.82,21.78v-19.83h4.31v30.28l-20.81-21.72v19.98h-4.31Z"/>
    <path class="cls-2" d="M77.56,726.26v28.54h-4.31v-28.54h4.31Z"/>
    <path class="cls-2" d="M90.7,726.26l7.89,19.78,8-19.78h4.71l-12.81,30.69-12.52-30.69h4.71Z"/>
    <path class="cls-2" d="M135.46,730.3h-11.44v6.86h11.11v4.05h-11.11v9.54h11.44v4.05h-15.75v-28.54h15.75v4.05Z"/>
    <path class="cls-2" d="M155.63,742.63l8.84,12.16h-5.27l-8.15-11.68h-.78v11.68h-4.31v-28.54h5.05c3.77,0,6.49.71,8.17,2.12,1.85,1.58,2.77,3.66,2.77,6.25,0,2.02-.58,3.76-1.74,5.21-1.16,1.46-2.69,2.38-4.58,2.79ZM150.27,739.36h1.37c4.08,0,6.12-1.56,6.12-4.68,0-2.92-1.98-4.38-5.95-4.38h-1.53v9.06Z"/>
    <path class="cls-2" d="M189.74,730.51l-3.49,2.07c-.65-1.13-1.28-1.87-1.87-2.22-.62-.39-1.41-.59-2.38-.59-1.2,0-2.19.34-2.98,1.02-.79.67-1.18,1.5-1.18,2.52,0,1.39,1.04,2.51,3.11,3.36l2.85,1.17c2.32.94,4.01,2.08,5.08,3.43s1.61,3,1.61,4.96c0,2.62-.88,4.79-2.62,6.51-1.76,1.73-3.95,2.59-6.56,2.59-2.48,0-4.52-.73-6.14-2.2-1.59-1.47-2.58-3.53-2.98-6.19l4.36-.96c.2,1.68.54,2.83,1.04,3.47.89,1.23,2.18,1.85,3.88,1.85,1.34,0,2.46-.45,3.35-1.35.89-.9,1.33-2.04,1.33-3.42,0-.55-.08-1.06-.23-1.53-.15-.46-.39-.89-.72-1.28-.33-.39-.75-.75-1.27-1.09-.52-.34-1.13-.66-1.85-.97l-2.75-1.15c-3.91-1.65-5.86-4.07-5.86-7.25,0-2.14.82-3.94,2.46-5.38,1.64-1.46,3.68-2.18,6.12-2.18,3.29,0,5.86,1.6,7.71,4.81Z"/>
    <path class="cls-2" d="M204.83,726.26v28.54h-4.31v-28.54h4.31Z"/>
    <path class="cls-2" d="M224.41,730.3v24.49h-4.31v-24.49h-6.56v-4.05h17.41v4.05h-6.54Z"/>
    <path class="cls-2" d="M247.26,742.47l-9.32-16.21h4.96l6.53,11.4,6.54-11.4h4.95l-9.35,16.21v12.33h-4.31v-12.33Z"/>
    <path class="cls-2" d="M284.16,740.4c0-4.02,1.47-7.47,4.42-10.35,2.93-2.88,6.46-4.33,10.57-4.33s7.55,1.46,10.46,4.36c2.92,2.91,4.38,6.4,4.38,10.48s-1.47,7.59-4.4,10.45c-2.95,2.87-6.5,4.31-10.67,4.31-3.68,0-6.99-1.28-9.93-3.83-3.23-2.82-4.84-6.52-4.84-11.09ZM288.5,740.46c0,3.15,1.06,5.75,3.18,7.78,2.11,2.03,4.54,3.05,7.3,3.05,3,0,5.52-1.04,7.58-3.11,2.06-2.1,3.09-4.65,3.09-7.65s-1.02-5.59-3.05-7.65c-2.02-2.07-4.52-3.11-7.51-3.11s-5.48,1.04-7.52,3.11c-2.05,2.04-3.07,4.57-3.07,7.58Z"/>
    <path class="cls-2" d="M338.51,730.3h-9.95v6.86h9.59v4.05h-9.59v13.59h-4.31v-28.54h14.25v4.05Z"/>
    <path class="cls-2" d="M363.88,754.8l6.01-30.69,9.8,22.18,10.15-22.18,5.4,30.69h-4.42l-2.75-17.23-8.45,18.54-8.21-18.56-3.07,17.25h-4.46Z"/>
    <path class="cls-2" d="M410.43,726.26v28.54h-4.31v-28.54h4.31Z"/>
    <path class="cls-2" d="M443.23,727.79v5.1c-2.49-2.08-5.07-3.12-7.73-3.12-2.93,0-5.4,1.05-7.41,3.16-2.02,2.1-3.03,4.66-3.03,7.69s1.01,5.52,3.03,7.58c2.02,2.06,4.5,3.09,7.43,3.09,1.52,0,2.8-.25,3.86-.74.59-.25,1.21-.58,1.84-1,.63-.42,1.3-.92,2.01-1.52v5.2c-2.47,1.39-5.05,2.09-7.76,2.09-4.08,0-7.56-1.42-10.44-4.27-2.87-2.87-4.31-6.33-4.31-10.39,0-3.64,1.2-6.88,3.61-9.72,2.96-3.49,6.78-5.23,11.48-5.23,2.56,0,5.04.7,7.43,2.09Z"/>
    <path class="cls-2" d="M458.61,737.42h12.31v-11.16h4.31v28.54h-4.31v-13.33h-12.31v13.33h-4.31v-28.54h4.31v11.16Z"/>
    <path class="cls-2" d="M491.22,726.26v28.54h-4.31v-28.54h4.31Z"/>
    <path class="cls-2" d="M517.6,739.94h11.79v.94c0,2.14-.25,4.04-.76,5.69-.49,1.53-1.33,2.96-2.5,4.29-2.65,2.98-6.02,4.47-10.11,4.47s-7.41-1.44-10.26-4.33c-2.85-2.9-4.27-6.37-4.27-10.43s1.45-7.65,4.34-10.54c2.9-2.9,6.42-4.34,10.57-4.34,2.23,0,4.31.46,6.25,1.37,1.85.91,3.67,2.39,5.45,4.44l-3.07,2.94c-2.34-3.12-5.2-4.68-8.56-4.68-3.02,0-5.55,1.04-7.6,3.12-2.05,2.05-3.07,4.61-3.07,7.69s1.14,5.8,3.42,7.86c2.13,1.91,4.44,2.87,6.93,2.87,2.12,0,4.02-.71,5.71-2.14,1.69-1.44,2.63-3.17,2.83-5.18h-7.12v-4.05Z"/>
    <path class="cls-2" d="M555.13,747.87h-12.22l-3.18,6.93h-4.64l14.12-30.33,13.62,30.33h-4.71l-3-6.93ZM553.37,743.82l-4.23-9.71-4.44,9.71h8.67Z"/>
    <path class="cls-2" d="M571.25,754.8v-30.48l20.82,21.78v-19.83h4.31v30.28l-20.81-21.72v19.98h-4.31Z"/>
  </g>
  <g>
    <path class="cls-2" d="M13.16,789.66l8.84,12.16h-5.27l-8.15-11.68h-.78v11.68H3.49v-28.54h5.05c3.77,0,6.49.71,8.17,2.13,1.85,1.58,2.77,3.66,2.77,6.25,0,2.02-.58,3.76-1.74,5.21-1.16,1.45-2.69,2.38-4.58,2.79ZM7.8,786.38h1.37c4.08,0,6.12-1.56,6.12-4.68,0-2.92-1.98-4.38-5.95-4.38h-1.53v9.06Z"/>
    <path class="cls-2" d="M22.7,787.42c0-4.02,1.47-7.47,4.42-10.35,2.93-2.88,6.46-4.32,10.57-4.32s7.55,1.45,10.46,4.36c2.92,2.91,4.38,6.4,4.38,10.48s-1.47,7.59-4.4,10.44c-2.95,2.87-6.5,4.31-10.67,4.31-3.68,0-6.99-1.28-9.93-3.83-3.23-2.82-4.84-6.52-4.84-11.09ZM27.05,787.47c0,3.15,1.06,5.75,3.18,7.78,2.11,2.03,4.54,3.05,7.3,3.05,3,0,5.52-1.04,7.58-3.11,2.06-2.09,3.09-4.64,3.09-7.65s-1.02-5.6-3.05-7.65c-2.02-2.07-4.52-3.11-7.51-3.11s-5.48,1.04-7.52,3.11c-2.05,2.04-3.07,4.57-3.07,7.58Z"/>
    <path class="cls-2" d="M56.63,773.28l7.43,19.08,7.76-20.46,7.43,20.46,7.89-19.08h4.68l-12.76,30.35-7.34-20.22-7.65,20.24-12.13-30.37h4.68Z"/>
    <path class="cls-2" d="M98.16,773.28v24.49h8.39v4.05h-12.7v-28.54h4.31Z"/>
    <path class="cls-2" d="M127.49,794.89h-12.22l-3.18,6.93h-4.64l14.12-30.34,13.62,30.34h-4.71l-3-6.93ZM125.73,790.84l-4.23-9.71-4.44,9.71h8.67Z"/>
    <path class="cls-2" d="M137.25,801.82v-30.48l20.82,21.78v-19.84h4.31v30.28l-20.81-21.72v19.98h-4.31Z"/>
    <path class="cls-2" d="M167.7,801.82v-28.54h5.99c2.87,0,5.14.28,6.8.85,1.79.55,3.41,1.5,4.86,2.83,2.95,2.69,4.42,6.22,4.42,10.59s-1.53,7.94-4.6,10.65c-1.54,1.36-3.15,2.3-4.84,2.83-1.58.53-3.81.79-6.71.79h-5.92ZM172,797.77h1.94c1.93,0,3.54-.2,4.83-.61,1.28-.43,2.44-1.12,3.48-2.05,2.12-1.94,3.18-4.46,3.18-7.56s-1.05-5.67-3.14-7.62c-1.88-1.74-4.66-2.61-8.34-2.61h-1.94v20.45Z"/>
    <path class="cls-2" d="M208.15,773.28v28.54h-4.31v-28.54h4.31Z"/>
    <path class="cls-2" d="M213.49,801.82v-30.48l20.82,21.78v-19.84h4.31v30.28l-20.81-21.72v19.98h-4.31Z"/>
    <path class="cls-2" d="M260.07,777.53l-3.49,2.07c-.65-1.13-1.28-1.87-1.87-2.22-.62-.39-1.41-.59-2.38-.59-1.2,0-2.19.34-2.98,1.02-.79.67-1.18,1.5-1.18,2.51,0,1.39,1.04,2.51,3.11,3.37l2.85,1.16c2.32.94,4.01,2.08,5.08,3.43s1.61,3,1.61,4.96c0,2.62-.88,4.79-2.62,6.51-1.76,1.72-3.95,2.59-6.56,2.59-2.48,0-4.52-.73-6.14-2.2-1.59-1.46-2.58-3.53-2.98-6.19l4.36-.96c.2,1.68.54,2.83,1.04,3.47.89,1.23,2.18,1.85,3.88,1.85,1.34,0,2.46-.45,3.35-1.35.89-.9,1.33-2.04,1.33-3.42,0-.55-.08-1.06-.23-1.53-.15-.46-.39-.89-.72-1.28-.33-.39-.75-.75-1.27-1.09-.52-.34-1.13-.66-1.85-.97l-2.75-1.15c-3.91-1.65-5.86-4.07-5.86-7.25,0-2.14.82-3.94,2.46-5.38,1.64-1.45,3.68-2.18,6.12-2.18,3.29,0,5.86,1.6,7.71,4.81Z"/>
    <path class="cls-2" d="M272.91,777.33v24.49h-4.31v-24.49h-6.56v-4.05h17.41v4.05h-6.54Z"/>
    <path class="cls-2" d="M286.09,773.28v28.54h-4.31v-28.54h4.31Z"/>
    <path class="cls-2" d="M299.31,777.33v24.49h-4.31v-24.49h-6.56v-4.05h17.41v4.05h-6.54Z"/>
    <path class="cls-2" d="M312.49,773.28v17.19c0,2.45.4,4.25,1.2,5.38,1.2,1.64,2.88,2.46,5.05,2.46s3.87-.82,5.06-2.46c.8-1.1,1.2-2.89,1.2-5.38v-17.19h4.31v18.38c0,3.01-.94,5.48-2.81,7.43-2.11,2.17-4.7,3.25-7.76,3.25s-5.65-1.08-7.75-3.25c-1.87-1.95-2.81-4.42-2.81-7.43v-18.38h4.31Z"/>
    <path class="cls-2" d="M342.51,777.33v24.49h-4.31v-24.49h-6.56v-4.05h17.41v4.05h-6.54Z"/>
    <path class="cls-2" d="M367.14,777.33h-11.44v6.86h11.11v4.05h-11.11v9.54h11.44v4.05h-15.75v-28.54h15.75v4.05Z"/>
    <path class="cls-2" d="M398.21,794.89h-12.22l-3.18,6.93h-4.64l14.12-30.34,13.62,30.34h-4.71l-3-6.93ZM396.46,790.84l-4.23-9.71-4.44,9.71h8.67Z"/>
    <path class="cls-2" d="M414.26,777.33v24.49h-4.31v-24.49h-6.56v-4.05h17.41v4.05h-6.54Z"/>
    <path class="cls-2" d="M437.61,784.44h12.31v-11.17h4.31v28.54h-4.31v-13.33h-12.31v13.33h-4.31v-28.54h4.31v11.17Z"/>
    <path class="cls-2" d="M476.32,794.89h-12.22l-3.18,6.93h-4.64l14.12-30.34,13.62,30.34h-4.71l-3-6.93ZM474.57,790.84l-4.23-9.71-4.44,9.71h8.67Z"/>
    <path class="cls-2" d="M495.75,789.66l8.84,12.16h-5.27l-8.15-11.68h-.78v11.68h-4.31v-28.54h5.05c3.77,0,6.49.71,8.17,2.13,1.85,1.58,2.77,3.66,2.77,6.25,0,2.02-.58,3.76-1.74,5.21-1.16,1.45-2.69,2.38-4.58,2.79ZM490.39,786.38h1.37c4.08,0,6.12-1.56,6.12-4.68,0-2.92-1.98-4.38-5.95-4.38h-1.53v9.06Z"/>
    <path class="cls-2" d="M507.79,773.28l7.89,19.78,8-19.78h4.71l-12.81,30.69-12.52-30.69h4.71Z"/>
    <path class="cls-2" d="M544.82,794.89h-12.22l-3.18,6.93h-4.64l14.12-30.34,13.62,30.34h-4.71l-3-6.93ZM543.06,790.84l-4.23-9.71-4.44,9.71h8.67Z"/>
    <path class="cls-2" d="M564.25,789.66l8.84,12.16h-5.27l-8.15-11.68h-.78v11.68h-4.31v-28.54h5.05c3.77,0,6.49.71,8.17,2.13,1.85,1.58,2.77,3.66,2.77,6.25,0,2.02-.58,3.76-1.74,5.21-1.16,1.45-2.69,2.38-4.58,2.79ZM558.89,786.38h1.37c4.08,0,6.12-1.56,6.12-4.68,0-2.92-1.98-4.38-5.95-4.38h-1.53v9.06Z"/>
    <path class="cls-2" d="M575.86,801.82v-28.54h5.99c2.87,0,5.14.28,6.8.85,1.79.55,3.41,1.5,4.86,2.83,2.95,2.69,4.42,6.22,4.42,10.59s-1.53,7.94-4.6,10.65c-1.54,1.36-3.15,2.3-4.84,2.83-1.58.53-3.81.79-6.71.79h-5.92ZM580.16,797.77h1.94c1.93,0,3.54-.2,4.83-.61,1.28-.43,2.44-1.12,3.48-2.05,2.12-1.94,3.18-4.46,3.18-7.56s-1.05-5.67-3.14-7.62c-1.88-1.74-4.66-2.61-8.34-2.61h-1.94v20.45Z"/>
  </g>
  <path class="cls-2" d="M600,290.32c0-1.07,0-81.82,0-81.82,0-7.12,0-14.25-.04-21.37-.04-6-.1-12-.27-18-.35-13.07-1.12-26.26-3.45-39.18-2.36-13.11-6.21-25.32-12.28-37.23-5.97-11.71-13.76-22.43-23.05-31.72-9.29-9.29-20.01-17.08-31.73-23.04-11.93-6.07-24.15-9.92-37.27-12.28-12.93-2.32-26.12-3.09-39.19-3.44-6-.16-12-.23-18.01-.27-7.13-.04-14.25-.04-21.38-.04l-82.75-.3h-61.89l-81.29.3c-7.14,0-14.28,0-21.42.04-6.02.04-12.03.11-18.04.27-13.1.35-26.32,1.12-39.28,3.45-13.15,2.36-25.38,6.2-37.32,12.27-11.74,5.96-22.48,13.75-31.8,23.04-9.31,9.29-17.12,20-23.1,31.71-6.08,11.92-9.94,24.13-12.31,37.25-2.33,12.92-3.1,26.1-3.45,39.17-.16,6-.23,12-.27,18C.37,194.25,0,203.1,0,210.22v80.16S0,352.94,0,352.94l.37,81.87c0,7.13,0,14.26.04,21.39.04,6.01.11,12.02.27,18.03.35,13.09,1.13,26.29,3.46,39.23,2.36,13.13,6.22,25.35,12.3,37.28,5.98,11.73,13.78,22.46,23.1,31.76,9.31,9.31,20.05,17.1,31.79,23.08,11.95,6.07,24.19,9.93,37.35,12.29,12.95,2.32,26.17,3.09,39.26,3.44,6.01.17,12.03.23,18.04.27,7.14.04,14.28.04,21.42.04h225.93c7.13,0,14.25,0,21.38-.04,6-.04,12.01-.1,18.01-.27,13.08-.35,26.27-1.12,39.2-3.45,13.12-2.36,25.33-6.21,37.25-12.28,11.72-5.97,22.44-13.77,31.73-23.08,9.3-9.3,17.09-20.03,23.05-31.75,6.07-11.93,9.92-24.16,12.28-37.3,2.32-12.94,3.09-26.14,3.45-39.22.16-6.01.23-12.01.27-18.03.04-7.13.04-14.26.04-21.39,0,0,0-80.42,0-81.87v-62.62ZM562.5,420.66c0,6.24,0,12.48-.04,18.72-.03,5.26-.09,10.52-.23,15.78-.31,11.44-.98,22.99-3.02,34.32-2.06,11.5-5.43,22.2-10.75,32.64-5.22,10.26-12.04,19.65-20.17,27.79-8.13,8.14-17.51,14.97-27.77,20.19-10.43,5.31-21.12,8.68-32.6,10.75-11.32,2.04-22.86,2.71-34.3,3.02-5.25.15-10.5.2-15.76.24-6.24.04-12.47.04-18.71.04h-197.69c-6.25,0-12.5,0-18.74-.04-5.26-.03-10.53-.09-15.79-.24-11.46-.31-23.02-.98-34.36-3.01-11.51-2.06-22.22-5.44-32.68-10.75-10.27-5.22-19.67-12.05-27.82-20.19-8.15-8.14-14.98-17.53-20.21-27.79-5.32-10.44-8.69-21.13-10.76-32.62-2.04-11.33-2.71-22.88-3.02-34.33-.14-5.26-.2-10.51-.24-15.78-.04-6.24-.04-12.48-.04-18.72l-.32-71.63v-54.74s0-70.14,0-70.14c0-6.23.32-13.98.36-20.21.03-5.25.09-10.5.23-15.75.31-11.43.99-22.97,3.02-34.27,2.07-11.48,5.44-22.17,10.77-32.6,5.23-10.25,12.06-19.62,20.21-27.75,8.15-8.13,17.55-14.94,27.82-20.16,10.45-5.31,21.16-8.67,32.66-10.74,11.34-2.03,22.91-2.71,34.37-3.02,5.26-.14,10.52-.2,15.79-.23,6.25-.04,12.5-.04,18.75-.04l71.13-.26h54.16l72.41.26c6.24,0,12.47,0,18.71.04,5.25.03,10.5.09,15.76.23,11.44.31,22.98.98,34.29,3.01,11.49,2.06,22.18,5.43,32.61,10.74,10.25,5.22,19.63,12.03,27.76,20.16,8.14,8.13,14.95,17.51,20.17,27.75,5.31,10.43,8.68,21.1,10.74,32.58,2.03,11.31,2.71,22.85,3.02,34.29.14,5.25.2,10.5.23,15.75.04,6.23.04,12.47.04,18.7,0,0,0,70.66,0,71.6v54.79c0,1.26,0,71.63,0,71.63Z"/>
</svg>