<?xml version="1.0" encoding="UTF-8"?>
<svg id="Layer_1" xmlns="http://www.w3.org/2000/svg" viewBox="0 0 600 827.11">
  <defs>
    <style>
      .cls-1 {
        isolation: isolate;
      }

      .cls-2 {
        fill: #a8a8a8;
      }
    </style>
  </defs>
  <g class="cls-1">
    <g class="cls-1">
      <path class="cls-2" d="M8.25,652.61l11.95,29.94,12.12-29.94h7.13l-19.39,46.45-18.94-46.45h7.14Z"/>
      <path class="cls-2" d="M51.35,652.61v43.21h-6.52v-43.21h6.52Z"/>
      <path class="cls-2" d="M61.73,695.82v-43.21h6.49c2.89,0,5.19.22,6.91.67,1.74.45,3.2,1.2,4.39,2.27,1.21,1.1,2.17,2.47,2.88,4.11.73,1.66,1.09,3.34,1.09,5.04,0,3.1-1.18,5.72-3.55,7.86,2.29.78,4.1,2.16,5.43,4.11,1.34,1.94,2.01,4.2,2.01,6.77,0,3.38-1.19,6.23-3.58,8.56-1.44,1.44-3.05,2.43-4.84,2.99-1.96.54-4.41.81-7.36.81h-9.88ZM68.25,671.17h2.04c2.42,0,4.2-.54,5.33-1.61,1.13-1.07,1.69-2.65,1.69-4.74s-.58-3.58-1.73-4.63c-1.16-1.05-2.84-1.58-5.04-1.58h-2.29v12.56ZM68.25,689.69h4.03c2.95,0,5.11-.58,6.49-1.74,1.46-1.25,2.18-2.83,2.18-4.76s-.7-3.43-2.1-4.7c-1.36-1.25-3.8-1.88-7.3-1.88h-3.3v13.07Z"/>
      <path class="cls-2" d="M110.25,677.41l13.38,18.41h-7.98l-12.34-17.69h-1.18v17.69h-6.52v-43.21h7.64c5.71,0,9.83,1.07,12.37,3.22,2.8,2.39,4.2,5.54,4.2,9.46,0,3.06-.88,5.69-2.63,7.89s-4.07,3.61-6.94,4.22ZM102.13,672.45h2.07c6.17,0,9.26-2.36,9.26-7.08,0-4.42-3-6.63-9.01-6.63h-2.32v13.71Z"/>
    </g>
    <g class="cls-1">
      <path class="cls-2" d="M155.48,685.33h-18.5l-4.81,10.49h-7.02l21.38-45.92,20.62,45.92h-7.14l-4.53-10.49ZM152.82,679.2l-6.41-14.69-6.72,14.69h13.12Z"/>
    </g>
    <g class="cls-1">
      <path class="cls-2" d="M182.05,658.74v37.08h-6.52v-37.08h-9.93v-6.13h26.36v6.13h-9.91Z"/>
      <path class="cls-2" d="M204.3,652.61v43.21h-6.52v-43.21h6.52Z"/>
      <path class="cls-2" d="M212.53,674.02c0-6.08,2.23-11.3,6.69-15.67,4.44-4.37,9.78-6.55,16.01-6.55s11.44,2.2,15.84,6.6c4.42,4.4,6.63,9.69,6.63,15.87s-2.22,11.48-6.66,15.81c-4.46,4.35-9.84,6.52-16.15,6.52-5.58,0-10.59-1.93-15.03-5.79-4.89-4.27-7.33-9.87-7.33-16.79ZM219.1,674.1c0,4.78,1.6,8.7,4.81,11.78,3.19,3.08,6.87,4.62,11.05,4.62,4.53,0,8.36-1.57,11.47-4.7,3.12-3.17,4.67-7.03,4.67-11.58s-1.54-8.47-4.62-11.58c-3.06-3.13-6.85-4.7-11.36-4.7s-8.29,1.57-11.39,4.7c-3.1,3.1-4.65,6.92-4.65,11.47Z"/>
      <path class="cls-2" d="M265.89,695.82v-46.14l31.51,32.96v-30.03h6.52v45.84l-31.51-32.88v30.25h-6.52Z"/>
      <path class="cls-2" d="M357.34,685.33h-18.5l-4.81,10.49h-7.02l21.38-45.92,20.62,45.92h-7.14l-4.53-10.49ZM354.68,679.2l-6.41-14.69-6.72,14.69h13.12Z"/>
    </g>
    <g class="cls-1">
      <path class="cls-2" d="M374.38,695.82v-46.14l31.51,32.96v-30.03h6.52v45.84l-31.51-32.88v30.25h-6.52Z"/>
    </g>
    <g class="cls-1">
      <path class="cls-2" d="M448.46,685.33h-18.5l-4.81,10.49h-7.02l21.38-45.92,20.62,45.92h-7.14l-4.53-10.49ZM445.8,679.2l-6.41-14.69-6.72,14.69h13.12Z"/>
    </g>
    <g class="cls-1">
      <path class="cls-2" d="M472.06,652.61v37.08h12.71v6.13h-19.22v-43.21h6.52Z"/>
    </g>
    <g class="cls-1">
      <path class="cls-2" d="M495.99,677.16l-14.1-24.54h7.5l9.88,17.26,9.91-17.26h7.5l-14.16,24.54v18.66h-6.52v-18.66Z"/>
    </g>
    <g class="cls-1">
      <path class="cls-2" d="M544.76,659.05l-5.29,3.13c-.99-1.72-1.93-2.84-2.83-3.36-.93-.6-2.14-.9-3.61-.9-1.81,0-3.31.51-4.5,1.54-1.19,1.01-1.79,2.28-1.79,3.81,0,2.11,1.57,3.81,4.7,5.09l4.31,1.76c3.51,1.42,6.07,3.15,7.69,5.19,1.62,2.04,2.43,4.55,2.43,7.51,0,3.97-1.32,7.26-3.97,9.85-2.67,2.61-5.98,3.92-9.93,3.92-3.75,0-6.85-1.11-9.29-3.33-2.41-2.22-3.91-5.34-4.5-9.37l6.6-1.46c.3,2.54.82,4.29,1.57,5.26,1.34,1.87,3.3,2.8,5.88,2.8,2.03,0,3.72-.68,5.07-2.04,1.34-1.36,2.01-3.09,2.01-5.18,0-.84-.12-1.61-.35-2.31s-.6-1.34-1.09-1.93c-.49-.59-1.13-1.14-1.92-1.65-.78-.51-1.72-1-2.8-1.47l-4.17-1.74c-5.91-2.5-8.87-6.16-8.87-10.97,0-3.25,1.24-5.96,3.72-8.14,2.48-2.2,5.57-3.3,9.26-3.3,4.98,0,8.87,2.43,11.67,7.28Z"/>
      <path class="cls-2" d="M560.26,652.61v43.21h-6.52v-43.21h6.52Z"/>
      <path class="cls-2" d="M595.08,659.05l-5.29,3.13c-.99-1.72-1.93-2.84-2.83-3.36-.93-.6-2.14-.9-3.61-.9-1.81,0-3.31.51-4.5,1.54-1.19,1.01-1.79,2.28-1.79,3.81,0,2.11,1.57,3.81,4.7,5.09l4.31,1.76c3.51,1.42,6.07,3.15,7.69,5.19,1.62,2.04,2.43,4.55,2.43,7.51,0,3.97-1.32,7.26-3.97,9.85-2.67,2.61-5.98,3.92-9.93,3.92-3.75,0-6.85-1.11-9.29-3.33-2.41-2.22-3.91-5.34-4.5-9.37l6.6-1.46c.3,2.54.82,4.29,1.57,5.26,1.34,1.87,3.3,2.8,5.88,2.8,2.03,0,3.72-.68,5.07-2.04,1.34-1.36,2.01-3.09,2.01-5.18,0-.84-.12-1.61-.35-2.31s-.6-1.34-1.09-1.93c-.49-.59-1.13-1.14-1.92-1.65-.78-.51-1.72-1-2.8-1.47l-4.17-1.74c-5.91-2.5-8.87-6.16-8.87-10.97,0-3.25,1.24-5.96,3.72-8.14,2.48-2.2,5.57-3.3,9.26-3.3,4.98,0,8.87,2.43,11.67,7.28Z"/>
    </g>
  </g>
  <g>
    <path class="cls-2" d="M467.91,43.88c60.52,0,109.74,49.23,109.74,109.74v336.04c0,60.52-49.23,109.74-109.74,109.74H131.87c-60.52,0-109.74-49.23-109.74-109.74V153.61c0-60.52,49.23-109.74,109.74-109.74h336.04M467.91,21.66H131.87C58.98,21.66-.1,80.74-.1,153.63v336.04c0,72.88,59.08,131.97,131.97,131.97h336.04c72.88,0,131.97-59.08,131.97-131.97V153.63c0-72.88-59.08-131.97-131.97-131.97h0Z"/>
    <g>
      <path class="cls-2" d="M230.04,316.66c-11.3,0-22.02-3.15-32.12-9.45-10.1-6.3-19.32-14.68-27.67-25.17-8.33-10.47-15.52-22.1-21.55-34.88-6.03-12.78-10.67-25.77-13.9-38.92-3.25-13.15-4.87-25.48-4.87-36.97,0-9.08,1.33-17.28,4.03-24.6,2.68-7.32,6.82-13.2,12.37-17.65,5.57-4.45,12.6-6.67,21.13-6.67s15.98,2.73,21.82,8.2c5.83,5.47,10.7,12.7,14.6,21.68,3.9,9,7.23,18.9,10,29.75,2.78,10.85,5.42,21.68,7.92,32.53,2.5,10.85,5.23,20.8,8.2,29.88,3.7-9.08,6.9-19.03,9.58-29.88,2.68-10.85,5.42-21.68,8.2-32.53,2.78-10.85,6.02-20.75,9.73-29.75,3.7-8.98,8.28-16.22,13.77-21.68,5.47-5.47,12.27-8.2,20.43-8.2,12.97,0,22.47,4.63,28.5,13.9,6.02,9.27,9.03,20.95,9.03,35.03,0,11.48-1.63,23.82-4.87,36.97-3.25,13.17-7.83,26.13-13.77,38.92-5.93,12.78-13.02,24.42-21.27,34.88-8.25,10.47-17.38,18.87-27.38,25.17-10,6.3-20.67,9.45-31.97,9.45l.03-.02Z"/>
      <path class="cls-2" d="M400.46,315.85c-6.48,0-13.07-.13-19.73-.42s-12.78-1.15-18.35-2.63-10.05-3.98-13.48-7.52c-3.43-3.52-5.13-8.43-5.13-14.73,0-8.15,2.78-13.93,8.33-17.37,5.57-3.43,12.32-5.7,20.3-6.82-.55-6.48-.93-13.58-1.12-21.27-.18-7.68-.28-15.98-.28-24.88,0-8.15.1-15.9.28-23.22.18-7.32.47-14.03.83-20.15-9.45-1.12-17.57-3.52-24.32-7.23-6.77-3.7-10.15-10.28-10.15-19.73,0-7.05,1.85-12.47,5.57-16.27,3.7-3.8,8.67-6.48,14.87-8.07,6.22-1.57,12.97-2.55,20.3-2.92,7.32-.37,14.6-.55,21.83-.55s14.55.18,21.97.55c7.42.37,14.18,1.35,20.3,2.92,6.12,1.57,11.07,4.27,14.88,8.07,3.8,3.8,5.7,9.22,5.7,16.27,0,6.3-1.58,11.3-4.73,15.02-3.15,3.72-7.42,6.45-12.78,8.2-5.38,1.77-11.22,3.02-17.52,3.75.55,6.12.93,12.78,1.12,20.02.18,7.22.28,15.02.28,23.35,0,8.9-.13,17.18-.42,24.88-.28,7.68-.7,14.78-1.25,21.27,8.35.93,15.43,3.1,21.27,6.53s8.75,9.32,8.75,17.65c0,6.3-1.72,11.22-5.13,14.73-3.43,3.53-7.97,6.03-13.62,7.52-5.65,1.48-11.82,2.37-18.48,2.63-6.67.28-13.35.42-20.02.42h-.07Z"/>
      <path class="cls-2" d="M370.61,521.2c-11.3,0-22.02-3.15-32.12-9.45-10.1-6.3-19.32-14.68-27.67-25.17-8.33-10.47-15.52-22.1-21.55-34.88-6.03-12.78-10.67-25.77-13.9-38.92-3.25-13.15-4.87-25.48-4.87-36.97,0-9.08,1.33-17.28,4.03-24.6,2.68-7.32,6.82-13.2,12.37-17.65,5.57-4.45,12.6-6.67,21.13-6.67s15.98,2.73,21.82,8.2c5.83,5.47,10.7,12.7,14.6,21.68,3.9,9,7.23,18.9,10,29.75,2.78,10.85,5.42,21.68,7.92,32.53s5.23,20.8,8.2,29.88c3.7-9.08,6.9-19.03,9.58-29.88,2.68-10.85,5.42-21.68,8.2-32.53,2.78-10.85,6.02-20.75,9.73-29.75,3.7-8.98,8.28-16.22,13.77-21.68,5.47-5.47,12.27-8.2,20.43-8.2,12.97,0,22.47,4.63,28.5,13.9,6.02,9.27,9.03,20.95,9.03,35.03,0,11.48-1.63,23.82-4.87,36.97-3.25,13.17-7.83,26.13-13.77,38.92-5.93,12.78-13.02,24.42-21.27,34.88-8.25,10.47-17.38,18.87-27.38,25.17-10,6.3-20.67,9.45-31.97,9.45l.03-.02Z"/>
      <path class="cls-2" d="M198.46,520.37c-6.48,0-13.07-.13-19.73-.42s-12.78-1.15-18.35-2.63c-5.57-1.48-10.05-3.98-13.48-7.52-3.43-3.52-5.13-8.43-5.13-14.73,0-8.15,2.78-13.93,8.33-17.37,5.57-3.43,12.32-5.7,20.3-6.82-.55-6.48-.93-13.58-1.12-21.27s-.28-15.98-.28-24.88c0-8.15.1-15.9.28-23.22s.47-14.03.83-20.15c-9.45-1.12-17.57-3.52-24.32-7.23-6.77-3.7-10.15-10.28-10.15-19.73,0-7.05,1.85-12.47,5.57-16.27,3.7-3.8,8.67-6.48,14.87-8.07,6.22-1.57,12.97-2.55,20.3-2.92,7.32-.37,14.6-.55,21.83-.55s14.55.18,21.97.55c7.42.37,14.18,1.35,20.3,2.92,6.12,1.57,11.07,4.27,14.88,8.07,3.8,3.8,5.7,9.22,5.7,16.27,0,6.3-1.58,11.3-4.73,15.02-3.15,3.72-7.42,6.45-12.78,8.2-5.38,1.77-11.22,3.02-17.52,3.75.55,6.12.93,12.78,1.12,20.02.18,7.22.28,15.02.28,23.35,0,8.9-.13,17.18-.42,24.88-.28,7.68-.7,14.78-1.25,21.27,8.35.93,15.43,3.1,21.27,6.53s8.75,9.32,8.75,17.65c0,6.3-1.72,11.22-5.13,14.73-3.43,3.53-7.97,6.03-13.62,7.52-5.65,1.48-11.82,2.37-18.48,2.63-6.67.28-13.35.42-20.02.42h-.07Z"/>
    </g>
  </g>
  <g>
    <path class="cls-2" d="M7.82,726.26v17.19c0,2.45.4,4.25,1.2,5.38,1.2,1.64,2.88,2.46,5.05,2.46s3.87-.82,5.06-2.46c.8-1.1,1.2-2.89,1.2-5.38v-17.19h4.31v18.38c0,3.01-.94,5.48-2.81,7.43-2.11,2.17-4.7,3.25-7.76,3.25s-5.65-1.08-7.75-3.25c-1.87-1.95-2.81-4.42-2.81-7.43v-18.38h4.31Z"/>
    <path class="cls-2" d="M36.33,754.8v-30.48l20.82,21.78v-19.83h4.31v30.28l-20.81-21.72v19.98h-4.31Z"/>
    <path class="cls-2" d="M77.44,726.26v28.54h-4.31v-28.54h4.31Z"/>
    <path class="cls-2" d="M90.59,726.26l7.89,19.78,8-19.78h4.71l-12.81,30.69-12.52-30.69h4.71Z"/>
    <path class="cls-2" d="M135.35,730.31h-11.44v6.86h11.11v4.05h-11.11v9.54h11.44v4.05h-15.75v-28.54h15.75v4.05Z"/>
    <path class="cls-2" d="M155.52,742.64l8.84,12.16h-5.27l-8.15-11.68h-.78v11.68h-4.31v-28.54h5.05c3.77,0,6.49.71,8.17,2.13,1.85,1.58,2.77,3.66,2.77,6.25,0,2.02-.58,3.76-1.74,5.21-1.16,1.45-2.69,2.38-4.58,2.79ZM150.16,739.36h1.37c4.08,0,6.12-1.56,6.12-4.68,0-2.92-1.98-4.38-5.95-4.38h-1.53v9.06Z"/>
    <path class="cls-2" d="M189.62,730.51l-3.49,2.07c-.65-1.13-1.28-1.87-1.87-2.22-.62-.39-1.41-.59-2.38-.59-1.2,0-2.19.34-2.98,1.02-.79.67-1.18,1.5-1.18,2.51,0,1.39,1.04,2.51,3.11,3.36l2.85,1.17c2.32.94,4.01,2.08,5.08,3.43s1.61,3,1.61,4.96c0,2.62-.88,4.79-2.62,6.51-1.76,1.73-3.95,2.59-6.56,2.59-2.48,0-4.52-.73-6.14-2.2-1.59-1.47-2.58-3.53-2.98-6.19l4.36-.96c.2,1.68.54,2.83,1.04,3.47.89,1.23,2.18,1.85,3.88,1.85,1.34,0,2.46-.45,3.35-1.35.89-.9,1.33-2.04,1.33-3.42,0-.55-.08-1.06-.23-1.53-.15-.46-.39-.89-.72-1.28-.33-.39-.75-.75-1.27-1.09s-1.13-.66-1.85-.97l-2.75-1.15c-3.91-1.65-5.86-4.07-5.86-7.25,0-2.14.82-3.94,2.46-5.38,1.64-1.45,3.68-2.18,6.12-2.18,3.29,0,5.86,1.6,7.71,4.81Z"/>
    <path class="cls-2" d="M204.71,726.26v28.54h-4.31v-28.54h4.31Z"/>
    <path class="cls-2" d="M224.29,730.31v24.49h-4.31v-24.49h-6.56v-4.05h17.41v4.05h-6.54Z"/>
    <path class="cls-2" d="M247.14,742.47l-9.32-16.21h4.96l6.53,11.41,6.54-11.41h4.95l-9.35,16.21v12.33h-4.31v-12.33Z"/>
    <path class="cls-2" d="M284.05,740.4c0-4.02,1.47-7.47,4.42-10.35,2.93-2.88,6.46-4.33,10.57-4.33s7.55,1.45,10.46,4.36c2.92,2.91,4.38,6.4,4.38,10.48s-1.47,7.59-4.4,10.44c-2.95,2.87-6.5,4.31-10.67,4.31-3.68,0-6.99-1.28-9.93-3.83-3.23-2.82-4.84-6.52-4.84-11.09ZM288.39,740.45c0,3.15,1.06,5.75,3.18,7.78,2.11,2.03,4.54,3.05,7.3,3.05,3,0,5.52-1.04,7.58-3.11,2.06-2.09,3.09-4.65,3.09-7.65s-1.02-5.59-3.05-7.65c-2.02-2.07-4.52-3.11-7.51-3.11s-5.48,1.04-7.52,3.11c-2.05,2.04-3.07,4.57-3.07,7.58Z"/>
    <path class="cls-2" d="M338.4,730.31h-9.95v6.86h9.59v4.05h-9.59v13.59h-4.31v-28.54h14.25v4.05Z"/>
    <path class="cls-2" d="M363.77,754.8l6.01-30.69,9.8,22.18,10.15-22.18,5.4,30.69h-4.42l-2.75-17.23-8.45,18.54-8.21-18.56-3.07,17.25h-4.46Z"/>
    <path class="cls-2" d="M410.32,726.26v28.54h-4.31v-28.54h4.31Z"/>
    <path class="cls-2" d="M443.11,727.79v5.1c-2.49-2.08-5.07-3.12-7.73-3.12-2.93,0-5.4,1.05-7.41,3.16-2.02,2.1-3.03,4.66-3.03,7.69s1.01,5.52,3.03,7.58c2.02,2.06,4.5,3.09,7.43,3.09,1.52,0,2.8-.25,3.86-.74.59-.25,1.21-.58,1.84-1s1.3-.92,2.01-1.52v5.19c-2.47,1.39-5.05,2.09-7.76,2.09-4.08,0-7.56-1.42-10.44-4.27-2.87-2.87-4.31-6.33-4.31-10.39,0-3.64,1.2-6.88,3.61-9.72,2.96-3.49,6.78-5.23,11.48-5.23,2.56,0,5.04.7,7.43,2.09Z"/>
    <path class="cls-2" d="M458.49,737.42h12.31v-11.17h4.31v28.54h-4.31v-13.33h-12.31v13.33h-4.31v-28.54h4.31v11.17Z"/>
    <path class="cls-2" d="M491.11,726.26v28.54h-4.31v-28.54h4.31Z"/>
    <path class="cls-2" d="M517.49,739.94h11.79v.94c0,2.14-.25,4.04-.76,5.69-.49,1.53-1.33,2.96-2.5,4.29-2.65,2.98-6.02,4.47-10.11,4.47s-7.41-1.44-10.26-4.33c-2.85-2.9-4.27-6.37-4.27-10.43s1.45-7.65,4.34-10.54c2.9-2.9,6.42-4.34,10.57-4.34,2.23,0,4.31.46,6.25,1.37,1.85.91,3.67,2.39,5.45,4.44l-3.07,2.94c-2.34-3.12-5.2-4.68-8.56-4.68-3.02,0-5.55,1.04-7.6,3.12-2.05,2.05-3.07,4.61-3.07,7.69s1.14,5.8,3.42,7.86c2.13,1.91,4.44,2.87,6.93,2.87,2.12,0,4.02-.71,5.71-2.14,1.69-1.44,2.63-3.17,2.83-5.18h-7.12v-4.05Z"/>
    <path class="cls-2" d="M555.02,747.87h-12.22l-3.18,6.93h-4.64l14.12-30.33,13.62,30.33h-4.71l-3-6.93ZM553.26,743.82l-4.23-9.71-4.44,9.71h8.67Z"/>
    <path class="cls-2" d="M571.14,754.8v-30.48l20.82,21.78v-19.83h4.31v30.28l-20.81-21.72v19.98h-4.31Z"/>
  </g>
  <g>
    <path class="cls-2" d="M13.05,789.66l8.84,12.16h-5.27l-8.15-11.68h-.78v11.68H3.38v-28.54h5.05c3.77,0,6.49.71,8.17,2.13,1.85,1.58,2.77,3.66,2.77,6.25,0,2.02-.58,3.76-1.74,5.21-1.16,1.45-2.69,2.38-4.58,2.79ZM7.69,786.38h1.37c4.08,0,6.12-1.56,6.12-4.68,0-2.92-1.98-4.38-5.95-4.38h-1.53v9.06Z"/>
    <path class="cls-2" d="M22.59,787.42c0-4.02,1.47-7.47,4.42-10.35,2.93-2.88,6.46-4.33,10.57-4.33s7.55,1.45,10.46,4.36c2.92,2.91,4.38,6.4,4.38,10.48s-1.47,7.59-4.4,10.44c-2.95,2.87-6.5,4.31-10.67,4.31-3.68,0-6.99-1.28-9.93-3.83-3.23-2.82-4.84-6.52-4.84-11.09ZM26.93,787.48c0,3.15,1.06,5.75,3.18,7.78,2.11,2.03,4.54,3.05,7.3,3.05,3,0,5.52-1.04,7.58-3.11,2.06-2.09,3.09-4.65,3.09-7.65s-1.02-5.59-3.05-7.65c-2.02-2.07-4.52-3.11-7.51-3.11s-5.48,1.04-7.52,3.11c-2.05,2.04-3.07,4.57-3.07,7.58Z"/>
    <path class="cls-2" d="M56.51,773.28l7.43,19.08,7.76-20.46,7.43,20.46,7.89-19.08h4.68l-12.76,30.35-7.34-20.22-7.65,20.24-12.13-30.37h4.68Z"/>
    <path class="cls-2" d="M98.05,773.28v24.49h8.39v4.05h-12.7v-28.54h4.31Z"/>
    <path class="cls-2" d="M127.37,794.89h-12.22l-3.18,6.93h-4.64l14.12-30.33,13.62,30.33h-4.71l-3-6.93ZM125.62,790.84l-4.23-9.71-4.44,9.71h8.67Z"/>
    <path class="cls-2" d="M137.13,801.82v-30.48l20.82,21.78v-19.83h4.31v30.28l-20.81-21.72v19.98h-4.31Z"/>
    <path class="cls-2" d="M167.58,801.82v-28.54h5.99c2.87,0,5.14.28,6.8.85,1.79.55,3.41,1.5,4.86,2.83,2.95,2.69,4.42,6.22,4.42,10.59s-1.53,7.94-4.6,10.65c-1.54,1.36-3.15,2.3-4.84,2.83-1.58.53-3.81.79-6.71.79h-5.92ZM171.89,797.77h1.94c1.93,0,3.54-.2,4.83-.61,1.28-.43,2.44-1.12,3.48-2.05,2.12-1.94,3.18-4.46,3.18-7.56s-1.05-5.67-3.14-7.62c-1.88-1.74-4.66-2.61-8.34-2.61h-1.94v20.45Z"/>
    <path class="cls-2" d="M208.03,773.28v28.54h-4.31v-28.54h4.31Z"/>
    <path class="cls-2" d="M213.38,801.82v-30.48l20.82,21.78v-19.83h4.31v30.28l-20.81-21.72v19.98h-4.31Z"/>
    <path class="cls-2" d="M259.96,777.53l-3.49,2.07c-.65-1.13-1.28-1.87-1.87-2.22-.62-.39-1.41-.59-2.38-.59-1.2,0-2.19.34-2.98,1.02-.79.67-1.18,1.5-1.18,2.51,0,1.39,1.04,2.51,3.11,3.36l2.85,1.17c2.32.94,4.01,2.08,5.08,3.43s1.61,3,1.61,4.96c0,2.62-.88,4.79-2.62,6.51-1.76,1.73-3.95,2.59-6.56,2.59-2.48,0-4.52-.73-6.14-2.2-1.59-1.47-2.58-3.53-2.98-6.19l4.36-.96c.2,1.68.54,2.83,1.04,3.47.89,1.23,2.18,1.85,3.88,1.85,1.34,0,2.46-.45,3.35-1.35.89-.9,1.33-2.04,1.33-3.42,0-.55-.08-1.06-.23-1.53-.15-.46-.39-.89-.72-1.28-.33-.39-.75-.75-1.27-1.09s-1.13-.66-1.85-.97l-2.75-1.15c-3.91-1.65-5.86-4.07-5.86-7.25,0-2.14.82-3.94,2.46-5.38,1.64-1.45,3.68-2.18,6.12-2.18,3.29,0,5.86,1.6,7.71,4.81Z"/>
    <path class="cls-2" d="M272.79,777.33v24.49h-4.31v-24.49h-6.56v-4.05h17.41v4.05h-6.54Z"/>
    <path class="cls-2" d="M285.97,773.28v28.54h-4.31v-28.54h4.31Z"/>
    <path class="cls-2" d="M299.19,777.33v24.49h-4.31v-24.49h-6.56v-4.05h17.41v4.05h-6.54Z"/>
    <path class="cls-2" d="M312.37,773.28v17.19c0,2.45.4,4.25,1.2,5.38,1.2,1.64,2.88,2.46,5.05,2.46s3.87-.82,5.06-2.46c.8-1.1,1.2-2.89,1.2-5.38v-17.19h4.31v18.38c0,3.01-.94,5.48-2.81,7.43-2.11,2.17-4.7,3.25-7.76,3.25s-5.65-1.08-7.75-3.25c-1.87-1.95-2.81-4.42-2.81-7.43v-18.38h4.31Z"/>
    <path class="cls-2" d="M342.4,777.33v24.49h-4.31v-24.49h-6.56v-4.05h17.41v4.05h-6.54Z"/>
    <path class="cls-2" d="M367.02,777.33h-11.44v6.86h11.11v4.05h-11.11v9.54h11.44v4.05h-15.75v-28.54h15.75v4.05Z"/>
    <path class="cls-2" d="M398.1,794.89h-12.22l-3.18,6.93h-4.64l14.12-30.33,13.62,30.33h-4.71l-3-6.93ZM396.34,790.84l-4.23-9.71-4.44,9.71h8.67Z"/>
    <path class="cls-2" d="M414.15,777.33v24.49h-4.31v-24.49h-6.56v-4.05h17.41v4.05h-6.54Z"/>
    <path class="cls-2" d="M437.5,784.44h12.31v-11.17h4.31v28.54h-4.31v-13.33h-12.31v13.33h-4.31v-28.54h4.31v11.17Z"/>
    <path class="cls-2" d="M476.21,794.89h-12.22l-3.18,6.93h-4.64l14.12-30.33,13.62,30.33h-4.71l-3-6.93ZM474.45,790.84l-4.23-9.71-4.44,9.71h8.67Z"/>
    <path class="cls-2" d="M495.64,789.66l8.84,12.16h-5.27l-8.15-11.68h-.78v11.68h-4.31v-28.54h5.05c3.77,0,6.49.71,8.17,2.13,1.85,1.58,2.77,3.66,2.77,6.25,0,2.02-.58,3.76-1.74,5.21-1.16,1.45-2.69,2.38-4.58,2.79ZM490.28,786.38h1.37c4.08,0,6.12-1.56,6.12-4.68,0-2.92-1.98-4.38-5.95-4.38h-1.53v9.06Z"/>
    <path class="cls-2" d="M507.67,773.28l7.89,19.78,8-19.78h4.71l-12.81,30.69-12.52-30.69h4.71Z"/>
    <path class="cls-2" d="M544.7,794.89h-12.22l-3.18,6.93h-4.64l14.12-30.33,13.62,30.33h-4.71l-3-6.93ZM542.95,790.84l-4.23-9.71-4.44,9.71h8.67Z"/>
    <path class="cls-2" d="M564.13,789.66l8.84,12.16h-5.27l-8.15-11.68h-.78v11.68h-4.31v-28.54h5.05c3.77,0,6.49.71,8.17,2.13,1.85,1.58,2.77,3.66,2.77,6.25,0,2.02-.58,3.76-1.74,5.21-1.16,1.45-2.69,2.38-4.58,2.79ZM558.77,786.38h1.37c4.08,0,6.12-1.56,6.12-4.68,0-2.92-1.98-4.38-5.95-4.38h-1.53v9.06Z"/>
    <path class="cls-2" d="M575.74,801.82v-28.54h5.99c2.87,0,5.14.28,6.8.85,1.79.55,3.41,1.5,4.86,2.83,2.95,2.69,4.42,6.22,4.42,10.59s-1.53,7.94-4.6,10.65c-1.54,1.36-3.15,2.3-4.84,2.83-1.58.53-3.81.79-6.71.79h-5.92ZM580.05,797.77h1.94c1.93,0,3.54-.2,4.83-.61,1.28-.43,2.44-1.12,3.48-2.05,2.12-1.94,3.18-4.46,3.18-7.56s-1.05-5.67-3.14-7.62c-1.88-1.74-4.66-2.61-8.34-2.61h-1.94v20.45Z"/>
  </g>
</svg>