<?xml version="1.0" encoding="UTF-8"?><svg id="Layer_3" xmlns="http://www.w3.org/2000/svg" viewBox="0 0 197.88 28.8"><defs><style>.cls-1{fill:#a7a9ac;stroke-width:0px;}</style></defs><path class="cls-1" d="m4.51,28.77c-.42,0-.74-.14-.96-.42-.22-.28-.37-.69-.45-1.25-.08-.55-.12-1.24-.12-2.06,0-.3,0-.57.01-.84,0-.26.02-.51.03-.73-1.01-.05-1.76-.19-2.23-.43s-.71-.65-.71-1.23c0-.73.37-1.21,1.11-1.47.74-.25,1.85-.38,3.34-.38s2.62.13,3.37.38c.76.25,1.13.74,1.13,1.47,0,.57-.24.98-.72,1.22s-1.22.39-2.22.44c.02.23.03.47.04.73,0,.26.01.54.01.84,0,1.29-.11,2.23-.34,2.83s-.66.89-1.29.89Z"/><path class="cls-1" d="m10.8,28.8c-.42,0-.74-.17-.96-.49s-.37-.84-.44-1.54c-.08-.7-.11-1.6-.11-2.7,0-.83.02-1.55.07-2.17.05-.62.17-1.1.37-1.44.2-.35.53-.52.97-.52.35,0,.61.1.79.29.18.19.3.44.36.75.06.31.1.65.11,1.01s.01.73.01,1.09c.14-.07.28-.12.41-.16s.34-.06.63-.06c.6,0,1.1.15,1.51.44.41.29.71.69.92,1.18.21.49.32,1.03.32,1.62,0,.3-.01.61-.04.92-.03.31-.08.6-.16.86-.08.26-.21.47-.37.64-.16.17-.38.25-.65.25-.35,0-.6-.08-.77-.23-.16-.16-.27-.38-.31-.67-.04-.29-.06-.63-.06-1.02,0-.45-.05-.82-.15-1.11-.1-.3-.29-.44-.56-.44s-.47.15-.58.44c-.11.29-.16.67-.17,1.11,0,.39-.02.73-.07,1.03-.05.29-.15.53-.31.69-.16.17-.41.25-.76.25Z"/><path class="cls-1" d="m19.3,28.8c-.63,0-1.19-.12-1.67-.37s-.85-.59-1.11-1.03-.4-.94-.4-1.5.13-1.05.4-1.52.63-.84,1.1-1.11,1.01-.42,1.61-.42c.57,0,1.05.11,1.46.34s.71.52.93.87c.21.35.32.72.32,1.11s-.09.71-.27.96c-.18.25-.41.44-.69.57-.28.13-.58.22-.91.26-.32.04-.63.05-.92.02s-.54-.08-.75-.15c.15.24.34.41.58.5.23.09.48.13.73.11s.49-.04.7-.08c.26-.06.48-.05.65.04.17.08.26.22.27.41,0,.15-.04.3-.16.46-.11.15-.32.28-.61.39-.3.11-.72.16-1.27.16Zm-.85-3.52c.08.13.21.23.37.29s.32.07.49.06c.17-.02.3-.06.42-.14.11-.08.17-.18.17-.32,0-.14-.06-.27-.17-.39s-.29-.17-.54-.17-.42.07-.54.22c-.13.15-.19.3-.19.45Z"/><path class="cls-1" d="m28.29,28.81c-.38,0-.69-.12-.94-.37s-.45-.58-.59-1c-.14-.42-.24-.88-.3-1.37-.06-.5-.08-.99-.08-1.48,0-.57.08-1.13.23-1.68s.4-1.04.72-1.49c.33-.44.74-.8,1.23-1.06.5-.26,1.09-.39,1.77-.39s1.32.14,1.88.43,1.01.7,1.35,1.23c.34.53.51,1.16.51,1.9,0,.64-.09,1.2-.28,1.67-.19.47-.44.85-.75,1.16.13.19.23.4.3.62.08.22.11.43.11.63,0,.24-.06.45-.19.63-.13.18-.29.32-.49.42-.2.1-.41.15-.63.15-.19,0-.36-.03-.52-.09-.16-.06-.34-.16-.53-.3-.18-.13-.33-.31-.47-.54s-.25-.45-.33-.66c-.3-.03-.57-.11-.84-.22.04.2.07.41.07.62,0,.21-.03.41-.1.59s-.2.33-.38.44-.44.17-.77.17Zm2.18-3.62c.3,0,.57-.11.79-.32.22-.22.33-.47.33-.75s-.11-.55-.33-.77c-.22-.21-.49-.32-.79-.32s-.57.11-.79.32c-.22.22-.33.47-.33.77s.11.54.33.75c.22.21.49.32.79.32Z"/><path class="cls-1" d="m37.24,28.81c-.62,0-1.17-.12-1.64-.39-.47-.27-.83-.63-1.1-1.09-.27-.46-.41-.97-.42-1.53,0-.57.12-1.08.39-1.53.27-.44.65-.79,1.13-1.06s1.03-.39,1.65-.39c.61,0,1.15.12,1.61.38s.84.62,1.12,1.06c.28.45.43.96.44,1.53,0,.55-.12,1.05-.39,1.5-.27.45-.65.81-1.13,1.08-.48.27-1.03.41-1.66.42Zm.04-1.85c.23,0,.43-.09.59-.27.17-.18.25-.38.25-.62s-.08-.44-.25-.61-.37-.26-.59-.26-.43.09-.59.26-.25.38-.25.61.08.44.25.62c.17.18.37.27.59.27Z"/><path class="cls-1" d="m43.23,28.81c-.5,0-.93-.13-1.29-.39-.36-.26-.64-.63-.84-1.09-.2-.47-.3-1.01-.3-1.63,0-.3.03-.62.08-.96.05-.33.14-.64.25-.93.11-.29.27-.52.46-.7.19-.18.42-.27.69-.27.32,0,.56.1.73.31s.25.48.25.82c0,.15-.02.33-.07.53-.05.2-.09.41-.14.61-.05.21-.07.39-.07.56,0,.27.03.47.08.61.05.14.18.2.37.2s.34-.11.4-.32c.06-.21.09-.49.09-.84,0-.34,0-.69,0-1.06,0-.27.07-.51.22-.73.15-.22.39-.32.73-.32s.6.11.75.32c.16.21.23.46.23.73,0,.36,0,.71-.02,1.06-.01.34.01.62.08.84.06.21.21.32.44.32.4,0,.59-.27.59-.81,0-.17-.03-.36-.09-.56s-.13-.41-.2-.62-.1-.39-.1-.55c0-.73.3-1.09.91-1.09.27,0,.5.09.69.27.19.18.34.41.46.7.11.29.2.6.25.92s.08.65.08.95c0,.94-.22,1.69-.65,2.25s-1.03.84-1.78.84c-.34,0-.65-.07-.94-.2s-.52-.3-.71-.51c-.19.21-.42.39-.7.53s-.59.21-.94.21Z"/><path class="cls-1" d="m51.06,28.77c-.43,0-.75-.16-.96-.49s-.35-.81-.42-1.47c-.07-.65-.1-1.47-.1-2.46,0-.65.01-1.25.03-1.79.02-.54.08-1.01.17-1.4.09-.39.24-.7.44-.91s.49-.32.85-.32.65.11.85.32c.2.21.35.52.44.91.09.39.15.86.17,1.4.02.54.03,1.13.03,1.79,0,1.49-.1,2.59-.31,3.32-.21.73-.61,1.09-1.2,1.09Z"/><path class="cls-1" d="m55.22,28.8c-.41,0-.79-.06-1.13-.19-.34-.13-.61-.32-.82-.58-.2-.26-.3-.58-.3-.98,0-.34.1-.62.3-.86.2-.24.47-.42.82-.54s.72-.19,1.13-.19c.25,0,.47.02.67.06.2.04.34.08.42.13,0-.19-.08-.37-.24-.51s-.44-.22-.84-.22c-.19,0-.33.01-.44.04-.11.03-.2.07-.29.11-.08.04-.18.08-.28.11-.11.03-.25.04-.42.04-.26,0-.47-.07-.63-.21-.16-.14-.23-.35-.23-.64,0-.26.07-.49.22-.68.15-.19.34-.35.58-.47.24-.13.49-.22.77-.28.27-.06.54-.09.79-.09.75,0,1.36.14,1.84.41.47.27.82.63,1.05,1.07.23.44.34.92.34,1.43,0,.29-.02.55-.07.8-.05.25-.11.44-.18.57.12.1.21.22.27.35s.09.27.09.42c0,.24-.08.45-.23.63-.16.18-.38.27-.67.27-.22,0-.39-.03-.52-.1-.13-.07-.25-.16-.38-.27-.2.12-.43.21-.67.27-.25.06-.56.09-.95.09Zm.25-1.28c.19,0,.34-.04.44-.12.1-.08.15-.17.15-.27s-.05-.19-.15-.27c-.1-.08-.24-.12-.44-.12s-.33.04-.43.12-.15.17-.15.27.05.19.15.27c.1.08.24.12.43.12Z"/><path class="cls-1" d="m64.15,28.8c-.34,0-.58-.09-.71-.29-.14-.19-.22-.43-.25-.72-.03-.29-.04-.58-.04-.88,0-.45-.06-.81-.19-1.08-.13-.27-.35-.41-.67-.41-.29,0-.5.14-.63.41s-.2.63-.2,1.08c0,.3-.01.59-.03.87-.02.29-.1.53-.23.71-.13.19-.38.29-.73.29-.26,0-.48-.1-.65-.29s-.31-.45-.4-.76c-.09-.31-.16-.65-.2-1.01s-.06-.71-.06-1.05.02-.68.05-1.04c.03-.35.09-.68.18-.99s.22-.55.39-.73c.17-.19.39-.28.66-.28.48,0,.78.22.9.66.1-.11.26-.21.49-.31.22-.1.48-.15.77-.15.65,0,1.18.17,1.6.49.41.33.71.78.91,1.36.19.58.28,1.25.27,2.01,0,.39-.04.74-.11,1.06-.07.32-.19.57-.37.76-.17.19-.42.29-.73.29Z"/><path class="cls-1" d="m68.74,28.8c-.62,0-1.16-.15-1.61-.44-.45-.29-.8-.68-1.04-1.15-.24-.47-.36-.97-.36-1.48,0-.66.13-1.2.4-1.62.27-.42.61-.74,1.02-.94.41-.21.84-.31,1.29-.31.21,0,.43.02.65.07.22.05.43.12.62.23-.03-.36-.11-.72-.22-1.07s-.17-.71-.17-1.07.11-.65.34-.82c.23-.18.47-.27.73-.27.3,0,.57.1.79.29.22.19.41.45.56.77.16.32.28.68.37,1.08.09.4.16.81.2,1.23.04.42.06.83.06,1.21,0,.13,0,.32-.02.58s-.05.55-.12.87c-.07.32-.18.65-.32.97s-.35.63-.62.91c-.27.28-.61.5-1.02.68-.41.17-.92.26-1.53.26Zm.08-2c.23,0,.43-.09.6-.26s.25-.38.25-.61-.08-.44-.25-.62c-.17-.18-.37-.27-.6-.27s-.43.09-.6.27c-.17.18-.26.38-.26.62s.09.44.26.61c.17.17.37.26.6.26Z"/><path class="cls-1" d="m79.67,28.76c-.3,0-.59,0-.9-.02s-.58-.05-.84-.12c-.25-.07-.46-.18-.61-.34-.16-.16-.23-.38-.23-.67,0-.37.13-.63.38-.79.25-.16.56-.26.92-.31-.03-.3-.04-.62-.05-.97,0-.35-.01-.73-.01-1.13,0-.37,0-.72.01-1.06,0-.33.02-.64.04-.92-.43-.05-.8-.16-1.11-.33-.31-.17-.46-.47-.46-.9,0-.32.08-.57.25-.74.17-.17.39-.29.68-.37.28-.07.59-.12.92-.13.33-.02.66-.03.99-.03s.66,0,1,.03c.34.02.65.06.92.13.28.07.5.19.68.37.17.17.26.42.26.74,0,.29-.07.51-.21.68-.14.17-.34.29-.58.37-.25.08-.51.14-.8.17.02.28.04.58.05.91,0,.33.01.68.01,1.06,0,.4,0,.78-.02,1.13s-.03.67-.06.97c.38.04.7.14.97.3s.4.42.4.8c0,.29-.08.51-.23.67-.16.16-.36.27-.62.34-.26.07-.54.11-.84.12-.3.01-.61.02-.91.02Z"/><path class="cls-1" d="m87.64,28.8c-.34,0-.58-.09-.71-.29-.14-.19-.22-.43-.25-.72-.03-.29-.04-.58-.04-.88,0-.45-.06-.81-.19-1.08-.13-.27-.35-.41-.67-.41-.29,0-.5.14-.63.41s-.2.63-.2,1.08c0,.3-.01.59-.03.87-.02.29-.1.53-.23.71-.13.19-.38.29-.73.29-.26,0-.48-.1-.65-.29s-.31-.45-.4-.76c-.09-.31-.16-.65-.2-1.01s-.06-.71-.06-1.05.02-.68.05-1.04c.03-.35.09-.68.18-.99s.22-.55.39-.73c.17-.19.39-.28.66-.28.48,0,.78.22.9.66.1-.11.26-.21.49-.31.22-.1.48-.15.77-.15.65,0,1.18.17,1.6.49.41.33.71.78.91,1.36.19.58.28,1.25.27,2.01,0,.39-.04.74-.11,1.06-.07.32-.19.57-.37.76-.17.19-.42.29-.73.29Z"/><path class="cls-1" d="m91.65,28.8c-.74,0-1.33-.12-1.77-.37-.44-.25-.66-.56-.66-.95,0-.27.09-.47.27-.6s.4-.2.65-.2c.2,0,.35.03.45.1.1.07.18.13.26.2.08.07.17.1.28.1.18,0,.27-.06.27-.19,0-.17-.1-.29-.3-.37-.2-.08-.45-.18-.74-.32-.41-.19-.7-.42-.87-.68-.18-.26-.27-.52-.27-.79,0-.32.11-.62.34-.91.23-.29.55-.52.97-.71.42-.19.92-.28,1.5-.28.49,0,.93.07,1.32.2.39.13.7.32.92.55.23.23.34.49.34.77,0,.26-.08.46-.25.59-.17.13-.39.2-.66.2-.15,0-.27-.02-.36-.07-.09-.05-.17-.09-.24-.13-.07-.04-.17-.06-.3-.06-.07,0-.13.02-.18.07-.05.05-.08.1-.08.17,0,.05.02.1.06.15.04.05.11.09.21.13.26.08.52.19.77.32s.46.3.62.51c.17.21.25.47.25.79,0,.55-.26.98-.77,1.29-.51.31-1.19.47-2.04.47Z"/><path class="cls-1" d="m99.2,28.8c-.3,0-.59-.06-.9-.18-.3-.12-.58-.29-.82-.52-.24-.23-.42-.5-.53-.82-.08-.21-.13-.47-.16-.78-.03-.31-.06-.65-.07-1-.01-.35-.02-.7-.02-1.04-.33,0-.64-.04-.94-.09s-.54-.15-.73-.29c-.19-.14-.28-.34-.28-.61,0-.33.09-.58.27-.74.18-.17.42-.27.71-.33.3-.05.63-.09.98-.09,0-.26.03-.53.07-.8.04-.27.1-.53.2-.77s.22-.43.39-.58c.17-.15.39-.22.66-.22.36,0,.63.11.79.34.16.23.27.52.31.89s.06.74.05,1.14c.44,0,.83,0,1.17.05.34.04.6.13.8.28s.29.37.29.68-.11.56-.33.72c-.22.16-.51.27-.86.32-.35.06-.73.09-1.13.09,0,.16,0,.33,0,.5,0,.17,0,.35,0,.53,0,.48.03.82.1,1.03.05.15.12.25.21.29s.2.07.33.07c.14,0,.3.03.49.08.19.04.35.15.46.31.11.16.16.37.16.63,0,.29-.15.51-.45.67s-.7.24-1.21.24Z"/><path class="cls-1" d="m103.04,22.66c-.41,0-.76-.15-1.05-.45-.29-.3-.43-.66-.43-1.09,0-.29.07-.54.2-.77.13-.23.31-.41.53-.55.22-.14.47-.21.75-.21s.52.07.74.21c.22.14.4.32.54.55.14.23.2.49.2.77s-.07.55-.2.78c-.13.23-.31.42-.54.56-.22.14-.47.21-.74.21Zm0,6.14c-.34,0-.59-.1-.75-.29-.17-.19-.27-.49-.33-.89-.06-.4-.09-.92-.1-1.55,0-.63.03-1.15.08-1.56.05-.4.17-.7.33-.89.17-.19.42-.28.76-.28s.59.09.75.28c.17.19.28.49.34.89.06.41.09.92.09,1.56,0,.63-.02,1.15-.08,1.55-.06.4-.17.7-.34.89s-.42.29-.76.29Z"/><path class="cls-1" d="m109.1,28.8c-.29,0-.59-.06-.9-.18s-.58-.29-.82-.52-.42-.5-.53-.82c-.08-.21-.13-.47-.17-.78-.03-.31-.06-.65-.07-1-.01-.35-.02-.7-.02-1.04-.33,0-.64-.04-.94-.09s-.54-.15-.73-.29-.29-.34-.29-.61c0-.33.09-.58.27-.74.18-.17.42-.27.71-.33s.63-.09.98-.09c0-.26.03-.53.07-.8.04-.27.1-.53.2-.77s.22-.43.39-.58c.17-.15.39-.22.66-.22.36,0,.63.11.79.34.17.23.27.52.31.89.04.36.06.74.05,1.14.44,0,.83,0,1.16.05.34.04.6.13.8.28s.29.37.29.68-.11.56-.33.72-.51.27-.86.32c-.35.06-.73.09-1.13.09,0,.16,0,.33,0,.5,0,.17,0,.35,0,.53,0,.48.03.82.1,1.03.05.15.12.25.21.29.09.04.2.07.34.07.13,0,.3.03.49.08.19.04.35.15.46.31.11.16.17.37.17.63,0,.29-.15.51-.45.67-.3.16-.7.24-1.21.24Z"/><path class="cls-1" d="m114.52,28.8c-.62,0-1.17-.15-1.63-.46-.46-.31-.81-.74-1.06-1.29s-.37-1.19-.37-1.92.11-1.27.34-1.67c.22-.4.54-.61.96-.61.29,0,.52.05.68.17.16.11.26.25.32.41.05.16.08.34.08.53,0,.24-.02.48-.04.72s-.04.51-.04.79c0,.4.08.69.25.87.16.18.34.27.54.27.21,0,.39-.09.55-.27s.23-.47.23-.87c0-.28-.01-.53-.04-.75s-.04-.47-.04-.75c0-.3.07-.55.22-.78s.43-.34.86-.34.73.2.95.61c.22.41.33.96.33,1.67s-.11,1.37-.34,1.92c-.23.55-.57.98-1.02,1.29-.45.31-1.02.46-1.7.46Z"/><path class="cls-1" d="m122.2,28.8c-.29,0-.59-.06-.9-.18s-.58-.29-.82-.52-.42-.5-.53-.82c-.08-.21-.13-.47-.17-.78-.03-.31-.06-.65-.07-1-.01-.35-.02-.7-.02-1.04-.33,0-.64-.04-.94-.09s-.54-.15-.73-.29-.29-.34-.29-.61c0-.33.09-.58.27-.74.18-.17.42-.27.71-.33s.63-.09.98-.09c0-.26.03-.53.07-.8.04-.27.1-.53.2-.77s.22-.43.39-.58c.17-.15.39-.22.66-.22.36,0,.63.11.79.34.17.23.27.52.31.89.04.36.06.74.05,1.14.44,0,.83,0,1.16.05.34.04.6.13.8.28s.29.37.29.68-.11.56-.33.72-.51.27-.86.32c-.35.06-.73.09-1.13.09,0,.16,0,.33,0,.5,0,.17,0,.35,0,.53,0,.48.03.82.1,1.03.05.15.12.25.21.29.09.04.2.07.34.07.13,0,.3.03.49.08.19.04.35.15.46.31.11.16.17.37.17.63,0,.29-.15.51-.45.67-.3.16-.7.24-1.21.24Z"/><path class="cls-1" d="m127.48,28.8c-.63,0-1.19-.12-1.67-.37-.48-.25-.85-.59-1.11-1.03-.27-.43-.4-.94-.4-1.5s.13-1.05.4-1.52c.27-.46.63-.84,1.1-1.11.47-.28,1.01-.42,1.61-.42.57,0,1.05.11,1.46.34s.72.52.93.87c.21.35.32.72.32,1.11s-.09.71-.27.96c-.18.25-.41.44-.69.57-.28.13-.58.22-.91.26-.32.04-.63.05-.92.02-.3-.03-.54-.08-.75-.15.15.24.34.41.58.5.23.09.48.13.73.11.26-.01.49-.04.7-.08.26-.06.48-.05.65.04.17.08.26.22.27.41,0,.15-.04.3-.16.46-.11.15-.32.28-.61.39-.3.11-.72.16-1.27.16Zm-.85-3.52c.08.13.21.23.37.29.16.05.32.07.49.06.16-.02.3-.06.42-.14.11-.08.17-.18.17-.32,0-.14-.06-.27-.17-.39-.11-.11-.29-.17-.54-.17s-.42.07-.54.22-.19.3-.19.45Z"/><path class="cls-1" d="m136.84,28.8c-.41,0-.79-.06-1.13-.19-.34-.13-.61-.32-.82-.58-.2-.26-.3-.58-.3-.98,0-.34.1-.62.3-.86.2-.24.47-.42.82-.54s.72-.19,1.13-.19c.25,0,.47.02.67.06.2.04.34.08.42.13,0-.19-.08-.37-.24-.51s-.44-.22-.84-.22c-.19,0-.33.01-.44.04-.11.03-.2.07-.29.11-.08.04-.18.08-.28.11-.11.03-.25.04-.42.04-.26,0-.47-.07-.63-.21-.16-.14-.23-.35-.23-.64,0-.26.07-.49.22-.68.15-.19.34-.35.58-.47.24-.13.49-.22.77-.28.27-.06.54-.09.79-.09.75,0,1.36.14,1.84.41.47.27.82.63,1.05,1.07.23.44.34.92.34,1.43,0,.29-.02.55-.07.8-.05.25-.11.44-.18.57.12.1.21.22.27.35s.09.27.09.42c0,.24-.08.45-.23.63-.16.18-.38.27-.67.27-.22,0-.39-.03-.52-.1-.13-.07-.25-.16-.38-.27-.2.12-.43.21-.67.27-.25.06-.56.09-.95.09Zm.25-1.28c.19,0,.34-.04.44-.12.1-.08.15-.17.15-.27s-.05-.19-.15-.27c-.1-.08-.24-.12-.44-.12s-.33.04-.43.12-.15.17-.15.27.05.19.15.27c.1.08.24.12.43.12Z"/><path class="cls-1" d="m144.33,28.8c-.29,0-.59-.06-.9-.18s-.58-.29-.82-.52-.42-.5-.53-.82c-.08-.21-.13-.47-.17-.78-.03-.31-.06-.65-.07-1-.01-.35-.02-.7-.02-1.04-.33,0-.64-.04-.94-.09s-.54-.15-.73-.29-.29-.34-.29-.61c0-.33.09-.58.27-.74.18-.17.42-.27.71-.33s.63-.09.98-.09c0-.26.03-.53.07-.8.04-.27.1-.53.2-.77s.22-.43.39-.58c.17-.15.39-.22.66-.22.36,0,.63.11.79.34.17.23.27.52.31.89.04.36.06.74.05,1.14.44,0,.83,0,1.16.05.34.04.6.13.8.28s.29.37.29.68-.11.56-.33.72-.51.27-.86.32c-.35.06-.73.09-1.13.09,0,.16,0,.33,0,.5,0,.17,0,.35,0,.53,0,.48.03.82.1,1.03.05.15.12.25.21.29.09.04.2.07.34.07.13,0,.3.03.49.08.19.04.35.15.46.31.11.16.17.37.17.63,0,.29-.15.51-.45.67-.3.16-.7.24-1.21.24Z"/><path class="cls-1" d="m152.74,28.78c-.49,0-.86-.17-1.11-.5-.25-.33-.42-.83-.51-1.47-.08-.65-.13-1.46-.13-2.42s.04-1.77.13-2.43c.08-.66.25-1.15.51-1.49.25-.33.62-.5,1.11-.5.43,0,.76.13.99.4.23.27.4.65.49,1.16.1.51.15,1.11.17,1.82h1.42c.17,0,.34,0,.5.01.02-.72.07-1.33.17-1.84.09-.51.25-.89.49-1.17.23-.27.56-.41.99-.41.49,0,.86.17,1.11.51s.42.84.51,1.49.13,1.47.13,2.43-.04,1.77-.13,2.42c-.09.65-.26,1.14-.51,1.47-.25.33-.62.49-1.11.49-.61,0-1.02-.26-1.24-.79-.22-.52-.35-1.27-.39-2.23-.19,0-.4.01-.62.01h-1.33c-.04.95-.18,1.69-.4,2.22s-.64.79-1.25.79Z"/><path class="cls-1" d="m162.64,28.8c-.41,0-.79-.06-1.13-.19-.34-.13-.61-.32-.82-.58-.2-.26-.3-.58-.3-.98,0-.34.1-.62.3-.86.2-.24.48-.42.82-.54s.72-.19,1.13-.19c.24,0,.47.02.67.06.2.04.34.08.42.13,0-.19-.08-.37-.24-.51s-.44-.22-.83-.22c-.19,0-.33.01-.44.04-.11.03-.2.07-.29.11-.08.04-.18.08-.29.11s-.25.04-.42.04c-.26,0-.47-.07-.63-.21-.16-.14-.23-.35-.23-.64,0-.26.07-.49.22-.68.15-.19.34-.35.58-.47s.49-.22.77-.28c.27-.06.54-.09.79-.09.75,0,1.36.14,1.83.41.47.27.82.63,1.05,1.07.23.44.34.92.34,1.43,0,.29-.02.55-.07.8-.05.25-.11.44-.18.57.12.1.21.22.27.35s.09.27.09.42c0,.24-.08.45-.23.63-.16.18-.38.27-.66.27-.22,0-.39-.03-.52-.1-.13-.07-.25-.16-.38-.27-.2.12-.43.21-.67.27s-.56.09-.95.09Zm.25-1.28c.19,0,.34-.04.44-.12.1-.08.15-.17.15-.27s-.05-.19-.15-.27c-.1-.08-.24-.12-.44-.12s-.33.04-.43.12c-.1.08-.15.17-.15.27s.05.19.15.27c.1.08.25.12.43.12Z"/><path class="cls-1" d="m167.92,28.8c-.29,0-.52-.09-.7-.29-.18-.19-.32-.44-.41-.77-.09-.32-.16-.69-.19-1.1-.03-.41-.05-.84-.05-1.28,0-.3,0-.6.02-.91.01-.31.05-.59.13-.85.07-.26.19-.47.37-.64.17-.16.42-.25.74-.25.23,0,.43.05.62.16s.3.26.35.47c.19-.18.44-.31.74-.39.3-.08.61-.12.93-.12.27,0,.54.07.82.2s.51.31.71.54c.19.23.29.49.29.77,0,.25-.09.48-.27.7s-.44.33-.77.33c-.14,0-.26-.02-.35-.06-.09-.04-.18-.07-.27-.11-.08-.03-.19-.05-.3-.05-.31,0-.6.12-.86.37-.26.25-.39.58-.39,1.01,0,.22,0,.46-.02.72s-.05.5-.11.74-.17.43-.34.58c-.16.15-.39.22-.7.22Z"/><path class="cls-1" d="m175.97,28.78c-.15,0-.32-.02-.52-.05-.19-.03-.43-.16-.7-.37-.19-.15-.4-.39-.63-.71-.24-.32-.47-.69-.69-1.09s-.41-.83-.55-1.27-.21-.84-.21-1.22.11-.67.32-.89c.22-.22.45-.34.72-.34.3,0,.56.1.78.3s.41.46.57.79c.17.33.32.69.46,1.09.14.4.28.79.41,1.19.14-.4.29-.79.42-1.2.14-.4.29-.77.47-1.09s.37-.59.59-.79.48-.29.77-.29c.25,0,.47.1.67.29s.3.47.3.87-.07.83-.21,1.27-.32.84-.53,1.22c-.21.38-.41.71-.62,1-.21.29-.37.49-.5.62-.19.21-.4.38-.63.5s-.46.18-.68.18Z"/><path class="cls-1" d="m181.66,28.8c-.41,0-.79-.06-1.13-.19-.34-.13-.61-.32-.82-.58-.2-.26-.3-.58-.3-.98,0-.34.1-.62.3-.86.2-.24.48-.42.82-.54s.72-.19,1.13-.19c.24,0,.47.02.67.06.2.04.34.08.42.13,0-.19-.08-.37-.24-.51s-.44-.22-.83-.22c-.19,0-.33.01-.44.04-.11.03-.2.07-.29.11-.08.04-.18.08-.29.11s-.25.04-.42.04c-.26,0-.47-.07-.63-.21-.16-.14-.23-.35-.23-.64,0-.26.07-.49.22-.68.15-.19.34-.35.58-.47s.49-.22.77-.28c.27-.06.54-.09.79-.09.75,0,1.36.14,1.83.41.47.27.82.63,1.05,1.07.23.44.34.92.34,1.43,0,.29-.02.55-.07.8-.05.25-.11.44-.18.57.12.1.21.22.27.35s.09.27.09.42c0,.24-.08.45-.23.63-.16.18-.38.27-.66.27-.22,0-.39-.03-.52-.1-.13-.07-.25-.16-.38-.27-.2.12-.43.21-.67.27s-.56.09-.95.09Zm.25-1.28c.19,0,.34-.04.44-.12.1-.08.15-.17.15-.27s-.05-.19-.15-.27c-.1-.08-.24-.12-.44-.12s-.33.04-.43.12c-.1.08-.15.17-.15.27s.05.19.15.27c.1.08.25.12.43.12Z"/><path class="cls-1" d="m186.94,28.8c-.29,0-.52-.09-.7-.29-.18-.19-.32-.44-.41-.77-.09-.32-.16-.69-.19-1.1-.03-.41-.05-.84-.05-1.28,0-.3,0-.6.02-.91.01-.31.05-.59.13-.85.07-.26.19-.47.37-.64.17-.16.42-.25.74-.25.23,0,.43.05.62.16s.3.26.35.47c.19-.18.44-.31.74-.39.3-.08.61-.12.93-.12.27,0,.54.07.82.2s.51.31.71.54.29.49.29.77c0,.25-.09.48-.27.7-.18.22-.44.33-.77.33-.14,0-.26-.02-.35-.06-.09-.04-.18-.07-.27-.11-.08-.03-.19-.05-.3-.05-.31,0-.6.12-.85.37s-.39.58-.39,1.01c0,.22,0,.46-.02.72s-.05.5-.11.74c-.06.24-.17.43-.33.58s-.39.22-.7.22Z"/><path class="cls-1" d="m194.32,28.8c-.62,0-1.16-.15-1.61-.44-.45-.29-.8-.68-1.04-1.15-.24-.47-.36-.97-.36-1.48,0-.66.13-1.2.4-1.62.27-.42.61-.74,1.02-.94.41-.21.84-.31,1.29-.31.21,0,.43.02.65.07.22.05.43.12.62.23-.03-.36-.11-.72-.22-1.07s-.17-.71-.17-1.07.11-.65.34-.82c.23-.18.47-.27.73-.27.3,0,.57.1.79.29.22.19.41.45.56.77.16.32.28.68.37,1.08.09.4.16.81.2,1.23.04.42.06.83.06,1.21,0,.13,0,.32-.02.58s-.05.55-.12.87c-.07.32-.18.65-.32.97s-.35.63-.62.91c-.27.28-.61.5-1.02.68-.41.17-.92.26-1.53.26Zm.08-2c.23,0,.43-.09.6-.26s.25-.38.25-.61-.08-.44-.25-.62c-.17-.18-.37-.27-.6-.27s-.43.09-.6.27c-.17.18-.26.38-.26.62s.09.44.26.61c.17.17.37.26.6.26Z"/><path class="cls-1" d="m70.07,9.23c-.74,0-1.39-.13-1.95-.38s-1.02-.6-1.4-1.04c-.38-.44-.66-.94-.84-1.5-.19-.56-.28-1.15-.28-1.77,0-.35.01-.71.04-1.09s.08-.76.15-1.12.19-.69.33-.99c.15-.3.34-.53.58-.71.24-.18.53-.27.89-.27.46,0,.81.1,1.06.29.25.19.42.43.53.72s.15.58.15.89c0,.35-.02.64-.05.87-.03.24-.07.47-.1.69s-.05.5-.05.83c0,.22.03.45.08.68.06.24.15.43.29.59s.33.23.58.23.46-.08.6-.23c.13-.16.23-.35.28-.59s.08-.46.08-.68c0-.33-.02-.61-.05-.83-.03-.22-.07-.45-.1-.69-.03-.24-.05-.53-.05-.87,0-.3.05-.6.15-.89s.28-.53.53-.72c.25-.19.6-.29,1.05-.29.35,0,.65.09.89.27.24.18.43.41.58.71.15.29.26.62.33.99s.13.74.15,1.12.04.75.04,1.09c0,.62-.09,1.21-.28,1.77s-.47,1.06-.84,1.5c-.38.44-.84.79-1.4,1.04-.56.25-1.21.38-1.95.38Z"/><path class="cls-1" d="m80.05,9.23c-.34,0-.58-.09-.71-.29-.14-.19-.22-.43-.25-.72-.03-.29-.04-.58-.04-.88,0-.45-.06-.81-.19-1.08-.13-.27-.35-.41-.67-.41-.29,0-.5.14-.63.41s-.2.63-.2,1.08c0,.3-.01.59-.03.87-.02.29-.1.53-.23.71-.13.19-.38.29-.73.29-.26,0-.48-.1-.65-.29s-.31-.45-.4-.76c-.09-.31-.16-.65-.2-1.01s-.06-.71-.06-1.05.02-.68.05-1.04c.03-.35.09-.68.18-.99s.22-.55.39-.73c.17-.19.39-.28.66-.28.48,0,.78.22.9.66.1-.11.26-.21.49-.31.22-.1.48-.15.77-.15.65,0,1.18.17,1.6.49.41.33.71.78.91,1.36.19.58.28,1.25.27,2.01,0,.39-.04.74-.11,1.06-.07.32-.19.57-.37.76-.17.19-.42.29-.73.29Z"/><path class="cls-1" d="m83.36,3.09c-.41,0-.76-.15-1.05-.45-.29-.3-.43-.66-.43-1.09,0-.29.07-.54.2-.77.13-.23.31-.41.53-.55.22-.14.47-.21.75-.21s.52.07.74.21c.22.14.4.32.54.55.14.23.2.49.2.77s-.07.55-.2.78c-.13.23-.31.42-.54.56-.22.14-.47.21-.74.21Zm0,6.14c-.34,0-.59-.1-.75-.29-.17-.19-.27-.49-.33-.89-.06-.4-.09-.92-.1-1.55,0-.63.03-1.15.08-1.56.05-.4.17-.7.33-.89.17-.19.42-.28.76-.28s.59.09.75.28c.17.19.28.49.34.89.06.41.09.92.09,1.56,0,.63-.02,1.15-.08,1.55-.06.4-.17.7-.34.89s-.42.29-.76.29Z"/><path class="cls-1" d="m88.53,9.22c-.15,0-.32-.02-.52-.05-.19-.03-.43-.16-.7-.37-.19-.15-.4-.39-.63-.71-.24-.32-.47-.69-.69-1.09s-.41-.83-.55-1.27-.21-.84-.21-1.22.11-.67.32-.89c.22-.22.45-.34.72-.34.3,0,.56.1.78.3s.41.46.57.79c.17.33.32.69.46,1.09.14.4.28.79.41,1.19.14-.4.29-.79.42-1.2.14-.4.29-.77.47-1.09s.37-.59.59-.79.48-.29.77-.29c.25,0,.47.1.67.29s.3.47.3.87-.07.83-.21,1.27-.32.84-.53,1.22c-.21.38-.41.71-.62,1-.21.29-.37.49-.5.62-.19.21-.4.38-.63.5s-.46.18-.68.18Z"/><path class="cls-1" d="m95.12,9.23c-.63,0-1.19-.12-1.67-.37-.48-.25-.85-.59-1.11-1.03-.27-.43-.4-.94-.4-1.5s.13-1.05.4-1.52c.27-.46.63-.84,1.1-1.11.47-.28,1.01-.42,1.61-.42.57,0,1.05.11,1.46.34s.72.52.93.87c.21.35.32.72.32,1.11s-.09.71-.27.96c-.18.25-.41.44-.69.57-.28.13-.58.22-.91.26-.32.04-.63.05-.92.02-.3-.03-.54-.08-.75-.15.15.24.34.41.58.5.23.09.48.13.73.11.26-.01.49-.04.7-.08.26-.06.48-.05.65.04.17.08.26.22.27.41,0,.15-.04.3-.16.46-.11.15-.32.28-.61.39-.3.11-.72.16-1.27.16Zm-.85-3.52c.08.13.21.23.37.29.16.05.32.07.49.06.16-.02.3-.06.42-.14.11-.08.17-.18.17-.32,0-.14-.06-.27-.17-.39-.11-.11-.29-.17-.54-.17s-.42.07-.54.22-.19.3-.19.45Z"/><path class="cls-1" d="m99.63,9.23c-.29,0-.52-.09-.7-.29-.18-.19-.32-.44-.41-.77-.09-.32-.16-.69-.19-1.1-.03-.41-.05-.84-.05-1.28,0-.3,0-.6.02-.91.01-.31.05-.59.13-.85.07-.26.19-.47.37-.64.17-.16.42-.25.74-.25.23,0,.43.05.62.16s.3.26.35.47c.19-.18.44-.31.74-.39.3-.08.61-.12.93-.12.27,0,.54.07.82.2s.51.31.71.54c.19.23.29.49.29.77,0,.25-.09.48-.27.7s-.44.33-.77.33c-.14,0-.26-.02-.35-.06-.09-.04-.18-.07-.27-.11-.08-.03-.19-.05-.3-.05-.31,0-.6.12-.86.37-.26.25-.39.58-.39,1.01,0,.22,0,.46-.02.72s-.05.5-.11.74-.17.43-.34.58c-.16.15-.39.22-.7.22Z"/><path class="cls-1" d="m106.62,9.23c-.74,0-1.33-.12-1.77-.37-.44-.25-.66-.56-.66-.95,0-.27.09-.47.27-.6s.4-.2.65-.2c.2,0,.35.03.45.1.1.07.18.13.26.2.08.07.17.1.28.1.18,0,.27-.06.27-.19,0-.17-.1-.29-.3-.37-.2-.08-.45-.18-.74-.32-.41-.19-.7-.42-.87-.68-.18-.26-.27-.52-.27-.79,0-.32.11-.62.34-.91.23-.29.55-.52.97-.71.42-.19.92-.28,1.5-.28.49,0,.93.07,1.32.2.39.13.7.32.92.55.23.23.34.49.34.77,0,.26-.08.46-.25.59-.17.13-.39.2-.66.2-.15,0-.27-.02-.36-.07-.09-.05-.17-.09-.24-.13-.07-.04-.17-.06-.3-.06-.07,0-.13.02-.18.07-.05.05-.08.1-.08.17,0,.05.02.1.06.15.04.05.11.09.21.13.26.08.52.19.77.32s.46.3.62.51c.17.21.25.47.25.79,0,.55-.26.98-.77,1.29-.51.31-1.19.47-2.04.47Z"/><path class="cls-1" d="m111.32,3.09c-.41,0-.76-.15-1.05-.45-.29-.3-.43-.66-.43-1.09,0-.29.07-.54.2-.77.13-.23.31-.41.53-.55.22-.14.47-.21.75-.21s.52.07.74.21c.22.14.4.32.54.55.14.23.2.49.2.77s-.07.55-.2.78c-.13.23-.31.42-.54.56-.22.14-.47.21-.74.21Zm0,6.14c-.34,0-.59-.1-.75-.29-.17-.19-.27-.49-.33-.89-.06-.4-.09-.92-.1-1.55,0-.63.03-1.15.08-1.56.05-.4.17-.7.33-.89.17-.19.42-.28.76-.28s.59.09.75.28c.17.19.28.49.34.89.06.41.09.92.09,1.56,0,.63-.02,1.15-.08,1.55-.06.4-.17.7-.34.89s-.42.29-.76.29Z"/><path class="cls-1" d="m117.38,9.23c-.29,0-.59-.06-.9-.18s-.58-.29-.82-.52-.42-.5-.53-.82c-.08-.21-.13-.47-.17-.78-.03-.31-.06-.65-.07-1-.01-.35-.02-.7-.02-1.04-.33,0-.64-.04-.94-.09s-.54-.15-.73-.29-.29-.34-.29-.61c0-.33.09-.58.27-.74.18-.17.42-.27.71-.33s.63-.09.98-.09c0-.26.03-.53.07-.8.04-.27.1-.53.2-.77s.22-.43.39-.58c.17-.15.39-.22.66-.22.36,0,.63.11.79.34.17.23.27.52.31.89.04.36.06.74.05,1.14.44,0,.83,0,1.16.05.34.04.6.13.8.28s.29.37.29.68-.11.56-.33.72-.51.27-.86.32c-.35.06-.73.09-1.13.09,0,.16,0,.33,0,.5,0,.17,0,.35,0,.53,0,.48.03.82.1,1.03.05.15.12.25.21.29.09.04.2.07.34.07.13,0,.3.03.49.08.19.04.35.15.46.31.11.16.17.37.17.63,0,.29-.15.51-.45.67-.3.16-.7.24-1.21.24Z"/><path class="cls-1" d="m121.98,11.11c-.28,0-.54-.04-.78-.11-.24-.07-.44-.19-.59-.34-.15-.16-.23-.36-.23-.6,0-.3.13-.52.41-.67.27-.15.57-.22.91-.2.37,0,.66-.01.87-.06.21-.05.37-.14.47-.27-.78,0-1.4-.11-1.86-.34-.46-.23-.8-.58-1.01-1.06-.21-.48-.31-1.11-.31-1.87,0-.41.04-.79.13-1.13.08-.34.22-.62.41-.82.19-.21.44-.31.75-.31.42,0,.72.12.9.36.18.24.27.52.27.84,0,.29,0,.57-.01.84,0,.27,0,.52.03.73s.09.38.2.51c.11.13.28.19.52.19s.41-.06.52-.19c.11-.13.18-.3.2-.51s.03-.45.03-.71c0-.27-.01-.54-.01-.83,0-.35.09-.65.27-.88.18-.23.48-.35.89-.35.32,0,.58.1.77.31s.33.48.41.82c.08.34.13.72.13,1.13,0,.69-.07,1.37-.22,2.03-.15.66-.39,1.26-.72,1.78-.33.52-.77.94-1.32,1.25s-1.22.47-2.02.47Z"/><path class="cls-1" d="m133.85,9.25c-.62,0-1.17-.12-1.64-.39-.47-.27-.84-.63-1.1-1.09s-.41-.97-.42-1.53c0-.57.12-1.08.39-1.53.27-.44.65-.79,1.13-1.06.48-.26,1.03-.39,1.65-.39.61,0,1.15.12,1.61.38.47.26.84.62,1.12,1.06s.43.96.44,1.53c0,.55-.12,1.05-.39,1.5-.27.45-.65.81-1.13,1.08-.48.27-1.03.41-1.66.42Zm.04-1.85c.23,0,.43-.09.59-.27.17-.18.25-.38.25-.62s-.08-.44-.25-.61-.37-.26-.59-.26-.43.09-.6.26-.25.38-.25.61.08.44.25.62c.17.18.37.27.6.27Z"/><path class="cls-1" d="m140.43,9.21c-.32,0-.58-.11-.77-.34s-.34-.54-.44-.94c-.1-.4-.16-.87-.2-1.4-.52-.04-.91-.14-1.2-.3-.28-.16-.42-.44-.42-.84s.14-.68.42-.84c.28-.17.68-.27,1.2-.32.04-.75.16-1.42.35-2,.19-.58.5-1.04.93-1.36.43-.33,1.03-.49,1.81-.49.43,0,.81.1,1.13.3.33.2.49.52.49.95s-.14.77-.42.98c-.28.21-.62.35-1.02.42-.31.06-.53.2-.66.41-.13.22-.21.47-.24.75.76.02,1.34.1,1.74.24.4.14.6.46.6.95,0,.32-.09.56-.28.73-.19.17-.45.28-.8.34-.35.06-.76.09-1.23.1,0,.34,0,.64.01.92,0,.27.01.53.01.75,0,.27-.06.48-.17.62s-.24.24-.4.29-.31.08-.45.08Z"/><path class="cls-1" d="m153,9.23c-.29,0-.54-.08-.73-.23-.19-.16-.32-.35-.39-.59-.07-.24-.11-.5-.13-.79-.02-.29-.02-.59-.02-.89,0-.3,0-.58,0-.83,0-.25-.03-.46-.08-.61-.04-.15-.12-.23-.24-.23-.17,0-.29.07-.35.21-.07.14-.1.33-.1.56s.01.48.04.75c.03.27.06.54.1.8.03.27.05.5.05.7,0,.42-.1.71-.29.87-.19.16-.45.24-.78.24s-.62-.14-.87-.41c-.25-.27-.46-.63-.62-1.06-.16-.43-.29-.91-.37-1.41-.08-.51-.13-.99-.13-1.44,0-.56.06-1.1.18-1.62s.31-.99.56-1.41c.25-.41.56-.74.93-.99.37-.24.81-.37,1.32-.37.4,0,.73.09.99.26s.47.39.63.65c.16.26.26.53.32.8.06-.27.17-.54.32-.8.15-.26.36-.48.62-.65s.59-.26.98-.26c.64,0,1.19.2,1.64.59.45.4.8.94,1.03,1.64s.35,1.5.35,2.42c0,.43-.05.88-.14,1.36-.09.48-.23.92-.4,1.33-.17.41-.38.74-.63,1-.24.26-.52.39-.83.39-.34,0-.6-.08-.8-.25s-.29-.46-.29-.89c0-.2.02-.44.05-.7.03-.27.07-.53.1-.8.03-.27.05-.52.05-.75s-.03-.42-.09-.56c-.06-.14-.18-.21-.35-.21-.12,0-.2.08-.25.23-.05.15-.08.35-.09.6s-.02.52-.02.82,0,.6-.02.89c-.01.29-.05.56-.12.8-.06.24-.19.43-.38.59s-.45.23-.76.23Z"/><path class="cls-1" d="m159.7,3.09c-.41,0-.76-.15-1.05-.45-.29-.3-.43-.66-.43-1.09,0-.29.07-.54.2-.77.13-.23.31-.41.53-.55.22-.14.47-.21.75-.21s.52.07.74.21c.22.14.4.32.54.55.14.23.2.49.2.77s-.07.55-.2.78c-.13.23-.31.42-.54.56-.22.14-.47.21-.74.21Zm0,6.14c-.34,0-.59-.1-.75-.29-.17-.19-.27-.49-.33-.89-.06-.4-.09-.92-.1-1.55,0-.63.03-1.15.08-1.56.05-.4.17-.7.33-.89.17-.19.42-.28.76-.28s.59.09.75.28c.17.19.28.49.34.89.06.41.09.92.09,1.56,0,.63-.02,1.15-.08,1.55-.06.4-.17.7-.34.89s-.42.29-.76.29Z"/><path class="cls-1" d="m164.67,9.22c-.54,0-1.05-.14-1.52-.4-.47-.26-.85-.61-1.15-1.07-.29-.46-.44-.97-.44-1.54,0-.62.15-1.14.44-1.58s.67-.77,1.14-1c.47-.23.96-.35,1.49-.35s1.01.1,1.42.31.72.47.94.8c.22.33.33.66.33,1.01,0,.29-.09.51-.26.68-.17.16-.45.25-.82.25-.2,0-.36-.04-.46-.12s-.19-.17-.27-.27c-.07-.1-.16-.19-.25-.27-.1-.08-.24-.12-.42-.12-.22,0-.41.08-.58.23-.17.15-.25.35-.25.61s.08.47.24.61.35.22.58.22c.18,0,.31-.03.41-.08.09-.06.18-.12.25-.2.07-.08.16-.14.27-.2.11-.05.27-.08.48-.08.37,0,.64.1.82.3.17.2.26.41.26.63,0,.28-.11.54-.33.8-.22.25-.53.46-.92.61s-.87.23-1.41.23Z"/><path class="cls-1" d="m169.22,9.23c-.42,0-.74-.17-.96-.49-.22-.33-.37-.84-.44-1.54s-.11-1.6-.11-2.7c0-.83.02-1.55.07-2.17.05-.62.17-1.1.37-1.44s.53-.52.97-.52c.35,0,.61.1.79.29.18.19.3.44.36.75.06.31.1.65.11,1.01,0,.37.01.73.01,1.09.14-.07.28-.12.41-.16s.34-.06.63-.06c.6,0,1.1.15,1.51.44.41.29.71.69.92,1.18.21.49.32,1.03.32,1.62,0,.3-.01.61-.04.92-.03.31-.08.6-.17.86-.08.26-.21.47-.37.64-.16.17-.38.25-.65.25-.35,0-.6-.08-.77-.23-.17-.16-.27-.38-.31-.67s-.06-.63-.06-1.02c0-.45-.05-.82-.15-1.11-.1-.3-.28-.44-.56-.44s-.47.15-.58.44c-.11.29-.16.67-.17,1.11,0,.39-.02.73-.07,1.03-.05.29-.15.53-.31.69-.16.17-.41.25-.76.25Z"/><path class="cls-1" d="m176.29,3.09c-.41,0-.76-.15-1.05-.45-.29-.3-.43-.66-.43-1.09,0-.29.07-.54.2-.77.13-.23.31-.41.53-.55.22-.14.47-.21.75-.21s.52.07.74.21c.22.14.4.32.54.55.13.23.2.49.2.77s-.07.55-.2.78c-.13.23-.31.42-.54.56-.22.14-.47.21-.74.21Zm0,6.14c-.34,0-.59-.1-.75-.29-.16-.19-.27-.49-.33-.89s-.09-.92-.09-1.55c0-.63.03-1.15.08-1.56.05-.4.17-.7.34-.89.17-.19.42-.28.76-.28s.59.09.75.28c.16.19.28.49.33.89.06.41.09.92.09,1.56,0,.63-.02,1.15-.08,1.55-.06.4-.17.7-.34.89s-.42.29-.76.29Z"/><path class="cls-1" d="m180.91,11.4c-.47,0-.87-.09-1.19-.27-.32-.18-.48-.43-.48-.74s.14-.57.42-.75c.28-.18.62-.23,1.01-.17.46.07.88.04,1.25-.08s.58-.31.65-.55c-.14.08-.32.14-.56.19-.24.05-.5.08-.8.08-.57,0-1.06-.09-1.45-.26s-.71-.4-.94-.67c-.24-.27-.41-.57-.51-.87-.11-.31-.16-.59-.16-.85,0-.69.15-1.27.45-1.75.3-.47.68-.83,1.15-1.08.46-.24.94-.37,1.43-.37.16,0,.35.01.58.03.22.02.42.05.58.09.07-.21.18-.38.34-.52.16-.13.41-.2.75-.2.3,0,.56.1.76.31.2.21.36.49.48.83.12.35.2.74.25,1.17.05.43.07.87.07,1.32s-.03.88-.07,1.27c-.08.79-.3,1.46-.65,2.04-.35.57-.8,1.02-1.37,1.33-.57.31-1.23.47-1.98.47Zm.47-4.19c.26,0,.49-.1.68-.29s.29-.42.29-.67-.1-.49-.29-.68c-.19-.19-.42-.29-.68-.29s-.49.1-.68.29c-.19.19-.29.42-.29.68s.09.48.29.67c.19.19.42.29.68.29Z"/><path class="cls-1" d="m187.76,9.23c-.41,0-.79-.06-1.13-.19-.34-.13-.61-.32-.82-.58-.2-.26-.3-.58-.3-.98,0-.34.1-.62.3-.86.2-.24.47-.42.82-.54s.72-.19,1.13-.19c.25,0,.47.02.67.06.2.04.34.08.42.13,0-.19-.08-.37-.24-.51s-.44-.22-.84-.22c-.19,0-.33.01-.44.04-.11.03-.2.07-.29.11-.08.04-.18.08-.28.11-.11.03-.25.04-.42.04-.26,0-.47-.07-.63-.21-.16-.14-.23-.35-.23-.64,0-.26.07-.49.22-.68.15-.19.34-.35.58-.47.24-.13.49-.22.77-.28.27-.06.54-.09.79-.09.75,0,1.36.14,1.84.41.47.27.82.63,1.05,1.07.23.44.34.92.34,1.43,0,.29-.02.55-.07.8-.05.25-.11.44-.18.57.12.1.21.22.27.35s.09.27.09.42c0,.24-.08.45-.23.63-.16.18-.38.27-.67.27-.22,0-.39-.03-.52-.1-.13-.07-.25-.16-.38-.27-.2.12-.43.21-.67.27-.25.06-.56.09-.95.09Zm.25-1.28c.19,0,.34-.04.44-.12.1-.08.15-.17.15-.27s-.05-.19-.15-.27c-.1-.08-.24-.12-.44-.12s-.33.04-.43.12-.15.17-.15.27.05.19.15.27c.1.08.24.12.43.12Z"/><path class="cls-1" d="m196.68,9.23c-.34,0-.58-.09-.71-.29-.14-.19-.22-.43-.25-.72-.03-.29-.04-.58-.04-.88,0-.45-.06-.81-.19-1.08-.13-.27-.35-.41-.67-.41-.29,0-.5.14-.63.41s-.2.63-.2,1.08c0,.3-.01.59-.03.87-.02.29-.1.53-.23.71-.13.19-.38.29-.73.29-.26,0-.48-.1-.65-.29s-.31-.45-.4-.76c-.09-.31-.16-.65-.2-1.01s-.06-.71-.06-1.05.02-.68.05-1.04c.03-.35.09-.68.18-.99s.22-.55.39-.73c.17-.19.39-.28.66-.28.48,0,.78.22.9.66.1-.11.26-.21.49-.31.22-.1.48-.15.77-.15.65,0,1.18.17,1.6.49.41.33.71.78.91,1.36.19.58.28,1.25.27,2.01,0,.39-.04.74-.11,1.06-.07.32-.19.57-.37.76-.17.19-.42.29-.73.29Z"/></svg>