<?xml version="1.0" encoding="UTF-8"?>
<svg id="Layer_1" xmlns="http://www.w3.org/2000/svg" viewBox="0 0 600 723.74">
  <defs>
    <style>
      .cls-1 {
        isolation: isolate;
      }

      .cls-2 {
        fill: #a3a3a3;
      }
    </style>
  </defs>
  <g class="cls-1">
    <g class="cls-1">
      <path class="cls-2" d="M7.91,677.32l11.95,29.94,12.12-29.94h7.14l-19.39,46.45L.78,677.32h7.14Z"/>
      <path class="cls-2" d="M51.01,677.32v43.21h-6.52v-43.21h6.52Z"/>
      <path class="cls-2" d="M61.39,720.53v-43.21h6.49c2.89,0,5.19.22,6.91.67,1.73.45,3.2,1.2,4.39,2.27,1.21,1.1,2.17,2.47,2.88,4.11.73,1.66,1.09,3.34,1.09,5.04,0,3.1-1.18,5.72-3.55,7.86,2.29.78,4.1,2.16,5.43,4.11,1.34,1.94,2.01,4.2,2.01,6.77,0,3.38-1.19,6.23-3.58,8.56-1.44,1.44-3.05,2.43-4.84,2.99-1.96.54-4.41.81-7.36.81h-9.88ZM67.91,695.87h2.04c2.42,0,4.2-.54,5.33-1.61,1.13-1.07,1.69-2.65,1.69-4.74s-.58-3.58-1.73-4.63c-1.16-1.05-2.84-1.58-5.04-1.58h-2.29v12.56ZM67.91,714.4h4.03c2.95,0,5.11-.58,6.49-1.74,1.46-1.25,2.18-2.83,2.18-4.76s-.7-3.43-2.1-4.7c-1.36-1.25-3.8-1.88-7.3-1.88h-3.3v13.07Z"/>
      <path class="cls-2" d="M109.91,702.11l13.38,18.41h-7.98l-12.34-17.69h-1.18v17.69h-6.52v-43.21h7.64c5.71,0,9.83,1.07,12.37,3.22,2.8,2.39,4.2,5.54,4.2,9.46,0,3.06-.88,5.69-2.63,7.89-1.75,2.2-4.07,3.61-6.94,4.22ZM101.8,697.16h2.07c6.17,0,9.26-2.36,9.26-7.08,0-4.42-3-6.63-9.01-6.63h-2.32v13.71Z"/>
    </g>
    <g class="cls-1">
      <path class="cls-2" d="M155.14,710.03h-18.5l-4.81,10.49h-7.02l21.38-45.92,20.62,45.92h-7.14l-4.53-10.49ZM152.48,703.9l-6.41-14.69-6.72,14.69h13.12Z"/>
    </g>
    <g class="cls-1">
      <path class="cls-2" d="M181.71,683.45v37.08h-6.52v-37.08h-9.93v-6.13h26.36v6.13h-9.91Z"/>
      <path class="cls-2" d="M203.96,677.32v43.21h-6.52v-43.21h6.52Z"/>
      <path class="cls-2" d="M212.19,698.73c0-6.08,2.23-11.3,6.69-15.67,4.44-4.37,9.78-6.55,16.01-6.55s11.44,2.2,15.84,6.6c4.42,4.4,6.63,9.69,6.63,15.87s-2.22,11.48-6.66,15.81c-4.46,4.35-9.84,6.52-16.15,6.52-5.58,0-10.59-1.93-15.03-5.79-4.89-4.27-7.33-9.87-7.33-16.79ZM218.76,698.81c0,4.78,1.6,8.7,4.81,11.78,3.19,3.08,6.87,4.62,11.05,4.62,4.53,0,8.36-1.57,11.47-4.7,3.12-3.17,4.67-7.03,4.67-11.58s-1.54-8.47-4.62-11.58c-3.06-3.13-6.85-4.7-11.36-4.7s-8.29,1.57-11.39,4.7c-3.1,3.1-4.65,6.92-4.65,11.47Z"/>
      <path class="cls-2" d="M265.55,720.53v-46.14l31.51,32.96v-30.03h6.52v45.84l-31.51-32.88v30.25h-6.52Z"/>
      <path class="cls-2" d="M357,710.03h-18.5l-4.81,10.49h-7.02l21.38-45.92,20.62,45.92h-7.14l-4.53-10.49ZM354.34,703.9l-6.41-14.69-6.72,14.69h13.12Z"/>
    </g>
    <g class="cls-1">
      <path class="cls-2" d="M374.04,720.53v-46.14l31.51,32.96v-30.03h6.52v45.84l-31.51-32.88v30.25h-6.52Z"/>
    </g>
    <g class="cls-1">
      <path class="cls-2" d="M448.12,710.03h-18.5l-4.81,10.49h-7.02l21.38-45.92,20.62,45.92h-7.14l-4.53-10.49ZM445.46,703.9l-6.41-14.69-6.72,14.69h13.12Z"/>
    </g>
    <g class="cls-1">
      <path class="cls-2" d="M471.72,677.32v37.08h12.71v6.13h-19.22v-43.21h6.52Z"/>
    </g>
    <g class="cls-1">
      <path class="cls-2" d="M495.65,701.86l-14.1-24.54h7.5l9.88,17.26,9.91-17.26h7.5l-14.16,24.54v18.66h-6.52v-18.66Z"/>
    </g>
    <g class="cls-1">
      <path class="cls-2" d="M544.42,683.76l-5.29,3.13c-.99-1.72-1.93-2.84-2.83-3.36-.93-.6-2.14-.9-3.61-.9-1.81,0-3.31.51-4.5,1.54-1.19,1.01-1.79,2.28-1.79,3.81,0,2.11,1.57,3.81,4.7,5.09l4.31,1.76c3.51,1.42,6.07,3.15,7.69,5.19,1.62,2.04,2.43,4.55,2.43,7.51,0,3.97-1.32,7.26-3.97,9.85-2.67,2.61-5.98,3.92-9.93,3.92-3.75,0-6.85-1.11-9.29-3.33-2.41-2.22-3.91-5.34-4.5-9.37l6.6-1.46c.3,2.54.82,4.29,1.57,5.26,1.34,1.87,3.3,2.8,5.88,2.8,2.03,0,3.72-.68,5.07-2.04,1.34-1.36,2.01-3.09,2.01-5.18,0-.84-.12-1.61-.35-2.31s-.6-1.34-1.09-1.93c-.49-.59-1.13-1.14-1.92-1.65-.78-.51-1.72-1-2.8-1.47l-4.17-1.74c-5.91-2.5-8.87-6.16-8.87-10.97,0-3.25,1.24-5.96,3.72-8.14,2.48-2.2,5.57-3.3,9.26-3.3,4.98,0,8.87,2.43,11.67,7.28Z"/>
      <path class="cls-2" d="M559.92,677.32v43.21h-6.52v-43.21h6.52Z"/>
      <path class="cls-2" d="M594.74,683.76l-5.29,3.13c-.99-1.72-1.93-2.84-2.83-3.36-.93-.6-2.14-.9-3.61-.9-1.81,0-3.31.51-4.5,1.54-1.19,1.01-1.79,2.28-1.79,3.81,0,2.11,1.57,3.81,4.7,5.09l4.31,1.76c3.51,1.42,6.07,3.15,7.69,5.19,1.62,2.04,2.43,4.55,2.43,7.51,0,3.97-1.32,7.26-3.97,9.85-2.67,2.61-5.98,3.92-9.93,3.92-3.75,0-6.85-1.11-9.29-3.33-2.41-2.22-3.91-5.34-4.5-9.37l6.6-1.46c.3,2.54.82,4.29,1.57,5.26,1.34,1.87,3.3,2.8,5.88,2.8,2.03,0,3.72-.68,5.07-2.04,1.34-1.36,2.01-3.09,2.01-5.18,0-.84-.12-1.61-.35-2.31s-.6-1.34-1.09-1.93c-.49-.59-1.13-1.14-1.92-1.65-.78-.51-1.72-1-2.8-1.47l-4.17-1.74c-5.91-2.5-8.87-6.16-8.87-10.97,0-3.25,1.24-5.96,3.72-8.14,2.48-2.2,5.57-3.3,9.26-3.3,4.98,0,8.87,2.43,11.67,7.28Z"/>
    </g>
  </g>
  <g>
    <path class="cls-2" d="M466.55,21.66c60.52,0,109.74,49.23,109.74,109.74v336.04c0,60.52-49.23,109.74-109.74,109.74H130.51c-60.52,0-109.74-49.23-109.74-109.74V131.39c0-60.52,49.23-109.74,109.74-109.74h336.04M466.55-.56H130.51C57.63-.56-1.46,58.53-1.46,131.41v336.04c0,72.88,59.08,131.97,131.97,131.97h336.04c72.88,0,131.97-59.08,131.97-131.97V131.41C598.52,58.53,539.43-.56,466.55-.56h0Z"/>
    <g>
      <path class="cls-2" d="M228.66,294.45c-11.3,0-22.02-3.15-32.12-9.45-10.1-6.3-19.32-14.68-27.67-25.17-8.33-10.47-15.52-22.1-21.55-34.88-6.03-12.78-10.67-25.77-13.9-38.92-3.25-13.15-4.87-25.48-4.87-36.97,0-9.08,1.33-17.28,4.03-24.6,2.68-7.32,6.82-13.2,12.37-17.65,5.57-4.45,12.6-6.67,21.13-6.67s15.98,2.73,21.82,8.2c5.83,5.47,10.7,12.7,14.6,21.68,3.9,9,7.23,18.9,10,29.75,2.78,10.85,5.42,21.68,7.92,32.53,2.5,10.85,5.23,20.8,8.2,29.88,3.7-9.08,6.9-19.03,9.58-29.88,2.68-10.85,5.42-21.68,8.2-32.53,2.78-10.85,6.02-20.75,9.73-29.75,3.7-8.98,8.28-16.22,13.77-21.68,5.47-5.47,12.27-8.2,20.43-8.2,12.97,0,22.47,4.63,28.5,13.9,6.02,9.27,9.03,20.95,9.03,35.03,0,11.48-1.63,23.82-4.87,36.97-3.25,13.17-7.83,26.13-13.77,38.92s-13.02,24.42-21.27,34.88c-8.25,10.47-17.38,18.87-27.38,25.17-10,6.3-20.67,9.45-31.97,9.45l.03-.02Z"/>
      <path class="cls-2" d="M399.08,293.63c-6.48,0-13.07-.13-19.73-.42s-12.78-1.15-18.35-2.63-10.05-3.98-13.48-7.52c-3.43-3.52-5.13-8.43-5.13-14.73,0-8.15,2.78-13.93,8.33-17.37,5.57-3.43,12.32-5.7,20.3-6.82-.55-6.48-.93-13.58-1.12-21.27-.18-7.68-.28-15.98-.28-24.88,0-8.15.1-15.9.28-23.22.18-7.32.47-14.03.83-20.15-9.45-1.12-17.57-3.52-24.32-7.23-6.77-3.7-10.15-10.28-10.15-19.73,0-7.05,1.85-12.47,5.57-16.27,3.7-3.8,8.67-6.48,14.87-8.07,6.22-1.57,12.97-2.55,20.3-2.92,7.32-.37,14.6-.55,21.83-.55s14.55.18,21.97.55c7.42.37,14.18,1.35,20.3,2.92s11.07,4.27,14.88,8.07c3.8,3.8,5.7,9.22,5.7,16.27,0,6.3-1.58,11.3-4.73,15.02s-7.42,6.45-12.78,8.2c-5.38,1.77-11.22,3.02-17.52,3.75.55,6.12.93,12.78,1.12,20.02.18,7.22.28,15.02.28,23.35,0,8.9-.13,17.18-.42,24.88-.28,7.68-.7,14.78-1.25,21.27,8.35.93,15.43,3.1,21.27,6.53,5.83,3.43,8.75,9.32,8.75,17.65,0,6.3-1.72,11.22-5.13,14.73-3.43,3.53-7.97,6.03-13.62,7.52-5.65,1.48-11.82,2.37-18.48,2.63-6.67.28-13.35.42-20.02.42h-.07Z"/>
      <path class="cls-2" d="M369.23,498.98c-11.3,0-22.02-3.15-32.12-9.45-10.1-6.3-19.32-14.68-27.67-25.17-8.33-10.47-15.52-22.1-21.55-34.88-6.03-12.78-10.67-25.77-13.9-38.92-3.25-13.15-4.87-25.48-4.87-36.97,0-9.08,1.33-17.28,4.03-24.6,2.68-7.32,6.82-13.2,12.37-17.65,5.57-4.45,12.6-6.67,21.13-6.67s15.98,2.73,21.82,8.2c5.83,5.47,10.7,12.7,14.6,21.68,3.9,9,7.23,18.9,10,29.75,2.78,10.85,5.42,21.68,7.92,32.53,2.5,10.85,5.23,20.8,8.2,29.88,3.7-9.08,6.9-19.03,9.58-29.88,2.68-10.85,5.42-21.68,8.2-32.53s6.02-20.75,9.73-29.75c3.7-8.98,8.28-16.22,13.77-21.68,5.47-5.47,12.27-8.2,20.43-8.2,12.97,0,22.47,4.63,28.5,13.9,6.02,9.27,9.03,20.95,9.03,35.03,0,11.48-1.63,23.82-4.87,36.97-3.25,13.17-7.83,26.13-13.77,38.92s-13.02,24.42-21.27,34.88c-8.25,10.47-17.38,18.87-27.38,25.17-10,6.3-20.67,9.45-31.97,9.45l.03-.02Z"/>
      <path class="cls-2" d="M197.08,498.15c-6.48,0-13.07-.13-19.73-.42s-12.78-1.15-18.35-2.63c-5.57-1.48-10.05-3.98-13.48-7.52-3.43-3.52-5.13-8.43-5.13-14.73,0-8.15,2.78-13.93,8.33-17.37,5.57-3.43,12.32-5.7,20.3-6.82-.55-6.48-.93-13.58-1.12-21.27s-.28-15.98-.28-24.88c0-8.15.1-15.9.28-23.22s.47-14.03.83-20.15c-9.45-1.12-17.57-3.52-24.32-7.23-6.77-3.7-10.15-10.28-10.15-19.73,0-7.05,1.85-12.47,5.57-16.27,3.7-3.8,8.67-6.48,14.87-8.07,6.22-1.57,12.97-2.55,20.3-2.92,7.32-.37,14.6-.55,21.83-.55s14.55.18,21.97.55c7.42.37,14.18,1.35,20.3,2.92,6.12,1.57,11.07,4.27,14.88,8.07,3.8,3.8,5.7,9.22,5.7,16.27,0,6.3-1.58,11.3-4.73,15.02-3.15,3.72-7.42,6.45-12.78,8.2-5.38,1.77-11.22,3.02-17.52,3.75.55,6.12.93,12.78,1.12,20.02.18,7.22.28,15.02.28,23.35,0,8.9-.13,17.18-.42,24.88-.28,7.68-.7,14.78-1.25,21.27,8.35.93,15.43,3.1,21.27,6.53,5.83,3.43,8.75,9.32,8.75,17.65,0,6.3-1.72,11.22-5.13,14.73-3.43,3.53-7.97,6.03-13.62,7.52-5.65,1.48-11.82,2.37-18.48,2.63-6.67.28-13.35.42-20.02.42h-.07Z"/>
    </g>
  </g>
</svg>