<?xml version="1.0" encoding="UTF-8"?>
<svg id="Layer_1" xmlns="http://www.w3.org/2000/svg" viewBox="0 0 600 900">
  <defs>
    <style>
      .cls-1 {
        fill: #fff;
      }
    </style>
  </defs>
  <g>
    <path class="cls-1" d="M254.7,280.89c-7.33,0-14.28-2.04-20.83-6.13-6.55-4.09-12.53-9.52-17.95-16.32-5.41-6.79-10.07-14.34-13.98-22.63-3.91-8.29-6.92-16.71-9.02-25.24-2.11-8.53-3.16-16.53-3.16-23.98,0-5.89.86-11.21,2.62-15.96,1.74-4.75,4.42-8.56,8.02-11.45,3.61-2.89,8.17-4.32,13.71-4.32s10.37,1.77,14.15,5.32c3.78,3.55,6.94,8.24,9.47,14.07,2.53,5.84,4.69,12.26,6.49,19.3,1.81,7.04,3.51,14.07,5.14,21.1,1.62,7.04,3.39,13.49,5.32,19.38,2.4-5.89,4.48-12.35,6.22-19.38s3.51-14.07,5.32-21.1c1.81-7.04,3.9-13.46,6.31-19.3,2.4-5.83,5.37-10.52,8.93-14.07,3.55-3.55,7.96-5.32,13.25-5.32,8.41,0,14.57,3.01,18.49,9.02,3.9,6.01,5.86,13.59,5.86,22.72,0,7.45-1.06,15.45-3.16,23.98-2.11,8.54-5.08,16.95-8.93,25.24s-8.44,15.84-13.79,22.63c-5.35,6.79-11.28,12.24-17.76,16.32-6.49,4.09-13.41,6.13-20.74,6.13h.02Z"/>
    <path class="cls-1" d="M365.24,280.36c-4.21,0-8.48-.09-12.8-.27s-8.29-.75-11.9-1.71c-3.61-.96-6.52-2.58-8.75-4.88-2.23-2.28-3.33-5.47-3.33-9.56,0-5.29,1.81-9.04,5.41-11.27,3.61-2.23,7.99-3.7,13.17-4.42-.36-4.21-.61-8.81-.72-13.79s-.18-10.37-.18-16.14c0-5.29.06-10.31.18-15.06s.3-9.1.54-13.07c-6.13-.72-11.39-2.28-15.77-4.69-4.39-2.4-6.58-6.67-6.58-12.8,0-4.57,1.2-8.09,3.61-10.55,2.4-2.46,5.62-4.21,9.64-5.23,4.03-1.02,8.41-1.65,13.17-1.89,4.75-.24,9.47-.36,14.16-.36s9.44.12,14.25.36c4.81.24,9.2.88,13.17,1.89s7.18,2.77,9.65,5.23c2.46,2.46,3.7,5.98,3.7,10.55,0,4.09-1.03,7.33-3.07,9.74-2.04,2.41-4.81,4.18-8.29,5.32-3.49,1.15-7.28,1.96-11.36,2.43.36,3.97.61,8.29.72,12.98.12,4.68.18,9.74.18,15.15,0,5.77-.09,11.15-.27,16.14-.18,4.98-.45,9.59-.81,13.79,5.42.61,10.01,2.01,13.79,4.24,3.78,2.23,5.68,6.04,5.68,11.45,0,4.09-1.11,7.28-3.33,9.56-2.23,2.29-5.17,3.91-8.83,4.88-3.66.96-7.67,1.54-11.99,1.71-4.32.18-8.66.27-12.98.27h-.04Z"/>
    <path class="cls-1" d="M345.88,413.57c-7.33,0-14.28-2.04-20.83-6.13-6.55-4.09-12.53-9.52-17.95-16.32-5.41-6.79-10.07-14.34-13.98-22.63-3.91-8.29-6.92-16.71-9.02-25.24-2.11-8.53-3.16-16.53-3.16-23.98,0-5.89.86-11.21,2.62-15.96,1.74-4.75,4.42-8.56,8.02-11.45,3.61-2.89,8.17-4.32,13.71-4.32s10.37,1.77,14.15,5.32c3.78,3.55,6.94,8.24,9.47,14.07,2.53,5.84,4.69,12.26,6.49,19.3,1.81,7.04,3.51,14.07,5.14,21.1s3.39,13.49,5.32,19.38c2.4-5.89,4.48-12.35,6.22-19.38,1.74-7.04,3.51-14.07,5.32-21.1s3.9-13.46,6.31-19.3c2.4-5.83,5.37-10.52,8.93-14.07,3.55-3.55,7.96-5.32,13.25-5.32,8.41,0,14.57,3.01,18.49,9.02,3.9,6.01,5.86,13.59,5.86,22.72,0,7.45-1.06,15.45-3.16,23.98-2.11,8.54-5.08,16.95-8.93,25.24s-8.44,15.84-13.79,22.63c-5.35,6.79-11.28,12.24-17.76,16.32-6.49,4.09-13.41,6.13-20.74,6.13h.02Z"/>
    <path class="cls-1" d="M234.21,413.03c-4.21,0-8.48-.09-12.8-.27-4.32-.18-8.29-.75-11.9-1.71s-6.52-2.58-8.75-4.88c-2.23-2.28-3.33-5.47-3.33-9.56,0-5.29,1.81-9.04,5.41-11.27,3.61-2.23,7.99-3.7,13.17-4.42-.36-4.21-.61-8.81-.72-13.79-.12-4.98-.18-10.37-.18-16.14,0-5.29.06-10.31.18-15.06.12-4.75.3-9.1.54-13.07-6.13-.72-11.39-2.28-15.77-4.69-4.39-2.4-6.58-6.67-6.58-12.8,0-4.57,1.2-8.09,3.61-10.55,2.4-2.46,5.62-4.21,9.64-5.23,4.03-1.02,8.41-1.65,13.17-1.89,4.75-.24,9.47-.36,14.16-.36s9.44.12,14.25.36c4.81.24,9.2.88,13.17,1.89s7.18,2.77,9.65,5.23c2.46,2.46,3.7,5.98,3.7,10.55,0,4.09-1.03,7.33-3.07,9.74-2.04,2.41-4.81,4.18-8.29,5.32-3.49,1.15-7.28,1.96-11.36,2.43.36,3.97.61,8.29.72,12.98.12,4.68.18,9.74.18,15.15,0,5.77-.09,11.15-.27,16.14-.18,4.98-.45,9.59-.81,13.79,5.42.61,10.01,2.01,13.79,4.24,3.78,2.23,5.68,6.04,5.68,11.45,0,4.09-1.11,7.28-3.33,9.56-2.23,2.29-5.17,3.91-8.83,4.88-3.66.96-7.67,1.54-11.99,1.71-4.32.18-8.66.27-12.98.27h-.04Z"/>
  </g>
  <path class="cls-1" d="M510,259.4c0-.75,0-57.28,0-57.28,0-4.99,0-9.97-.03-14.96-.02-4.2-.07-8.4-.19-12.6-.25-9.15-.79-18.38-2.41-27.43-1.65-9.18-4.35-17.72-8.59-26.06-4.18-8.2-9.63-15.7-16.14-22.2-6.51-6.5-14.01-11.95-22.21-16.13-8.35-4.25-16.9-6.94-26.09-8.59-9.05-1.62-18.28-2.16-27.43-2.41-4.2-.11-8.4-.16-12.61-.19-4.99-.03-9.98-.03-14.97-.03l-57.93-.21h-43.33l-56.9.21c-5,0-10,0-15,.03-4.21.03-8.42.07-12.63.19-9.17.25-18.42.79-27.5,2.41-9.2,1.65-17.77,4.34-26.13,8.59-8.22,4.17-15.74,9.62-22.26,16.13-6.52,6.5-11.98,14-16.17,22.2-4.26,8.34-6.96,16.89-8.61,26.08-1.63,9.05-2.17,18.27-2.42,27.42-.11,4.2-.16,8.4-.19,12.6-.03,4.99-.29,11.18-.29,16.17v56.11s0,43.79,0,43.79l.26,57.31c0,4.99,0,9.99.03,14.98.03,4.21.07,8.42.19,12.62.25,9.16.79,18.4,2.42,27.46,1.65,9.19,4.35,17.75,8.61,26.1,4.18,8.21,9.65,15.72,16.17,22.23,6.52,6.51,14.04,11.97,22.25,16.15,8.37,4.25,16.93,6.95,26.14,8.6,9.07,1.63,18.32,2.17,27.48,2.41,4.21.12,8.42.16,12.63.19,5,.03,10,.03,15,.03h158.15c4.99,0,9.98,0,14.97-.03,4.2-.03,8.4-.07,12.61-.19,9.15-.24,18.39-.78,27.44-2.42,9.18-1.65,17.73-4.35,26.08-8.6,8.2-4.18,15.71-9.64,22.21-16.15,6.51-6.51,11.96-14.02,16.14-22.23,4.25-8.35,6.95-16.91,8.6-26.11,1.63-9.06,2.17-18.3,2.41-27.45.11-4.21.16-8.41.19-12.62.03-4.99.03-9.99.03-14.98,0,0,0-56.3,0-57.31v-43.83ZM483.75,350.64c0,4.37,0,8.74-.02,13.1-.02,3.68-.06,7.36-.16,11.04-.22,8.01-.69,16.1-2.11,24.02-1.45,8.05-3.8,15.54-7.52,22.85-3.65,7.18-8.43,13.75-14.12,19.45-5.69,5.7-12.26,10.48-19.44,14.13-7.3,3.72-14.78,6.08-22.82,7.52-7.92,1.43-16,1.9-24.01,2.11-3.68.1-7.35.14-11.03.17-4.37.03-8.73.03-13.1.03h-138.38c-4.37,0-8.75,0-13.12-.03-3.68-.02-7.37-.06-11.05-.17-8.02-.21-16.12-.69-24.05-2.11-8.06-1.45-15.55-3.81-22.87-7.53-7.19-3.66-13.77-8.43-19.47-14.13-5.7-5.7-10.49-12.27-14.15-19.45-3.72-7.31-6.09-14.79-7.53-22.83-1.43-7.93-1.9-16.02-2.12-24.03-.1-3.68-.14-7.36-.16-11.04-.03-4.37-.02-8.74-.02-13.1l-.23-50.14v-38.32s0-49.1,0-49.1c0-4.36.22-9.78.25-14.15.02-3.68.07-7.35.16-11.02.22-8,.69-16.08,2.11-23.99,1.45-8.04,3.81-15.52,7.54-22.82,3.66-7.17,8.44-13.73,14.15-19.42,5.71-5.69,12.28-10.46,19.48-14.11,7.32-3.71,14.81-6.07,22.86-7.51,7.94-1.42,16.03-1.9,24.06-2.11,3.68-.1,7.37-.14,11.05-.16,4.37-.03,8.75-.02,13.12-.02l49.79-.18h37.91l50.69.18c4.37,0,8.73,0,13.1.02,3.68.02,7.35.06,11.03.16,8.01.22,16.08.69,24,2.11,8.04,1.44,15.52,3.8,22.83,7.52,7.18,3.65,13.74,8.42,19.43,14.11,5.69,5.69,10.47,12.25,14.12,19.43,3.72,7.3,6.07,14.77,7.52,22.8,1.42,7.92,1.9,15.99,2.11,24,.1,3.67.14,7.35.16,11.02.03,4.36.02,8.73.02,13.09,0,0,0,49.46,0,50.12v38.36c0,.88,0,50.14,0,50.14Z"/>
  <g>
    <path class="cls-1" d="M95.55,570.66v12.03c0,1.72.28,2.97.84,3.77.84,1.15,2.01,1.72,3.53,1.72s2.71-.57,3.54-1.72c.56-.77.84-2.02.84-3.77v-12.03h3.01v12.86c0,2.11-.66,3.84-1.97,5.2-1.48,1.52-3.29,2.28-5.43,2.28s-3.96-.76-5.42-2.28c-1.31-1.36-1.97-3.1-1.97-5.2v-12.86h3.02Z"/>
    <path class="cls-1" d="M115.51,590.64v-21.34l14.57,15.24v-13.88h3.01v21.2l-14.57-15.21v13.99h-3.02Z"/>
    <path class="cls-1" d="M144.29,570.66v19.98h-3.02v-19.98h3.02Z"/>
    <path class="cls-1" d="M153.49,570.66l5.53,13.85,5.6-13.85h3.3l-8.97,21.48-8.76-21.48h3.3Z"/>
    <path class="cls-1" d="M184.82,573.49h-8.01v4.8h7.78v2.83h-7.78v6.68h8.01v2.83h-11.03v-19.98h11.03v2.83Z"/>
    <path class="cls-1" d="M198.94,582.12l6.19,8.51h-3.69l-5.71-8.18h-.54v8.18h-3.02v-19.98h3.53c2.64,0,4.55.5,5.72,1.49,1.29,1.1,1.94,2.56,1.94,4.37,0,1.42-.41,2.63-1.22,3.65-.81,1.02-1.88,1.67-3.21,1.95ZM195.19,579.83h.96c2.86,0,4.28-1.09,4.28-3.27,0-2.04-1.39-3.07-4.17-3.07h-1.07v6.34Z"/>
    <path class="cls-1" d="M222.82,573.64l-2.45,1.45c-.46-.79-.89-1.31-1.31-1.55-.43-.28-.99-.41-1.67-.41-.84,0-1.53.24-2.08.71-.55.47-.83,1.05-.83,1.76,0,.98.72,1.76,2.17,2.36l1.99.82c1.62.66,2.81,1.46,3.56,2.4.75.94,1.13,2.1,1.13,3.47,0,1.84-.61,3.36-1.84,4.55-1.23,1.21-2.77,1.81-4.59,1.81s-3.17-.51-4.3-1.54c-1.11-1.03-1.81-2.47-2.08-4.33l3.05-.67c.14,1.17.38,1.98.72,2.43.62.86,1.53,1.29,2.72,1.29.94,0,1.72-.31,2.34-.94s.93-1.43.93-2.39c0-.39-.05-.74-.16-1.07-.11-.32-.28-.62-.5-.89s-.52-.53-.89-.76c-.36-.24-.79-.46-1.29-.68l-1.93-.8c-2.74-1.16-4.1-2.85-4.1-5.07,0-1.5.57-2.76,1.72-3.77,1.15-1.02,2.58-1.53,4.28-1.53,2.3,0,4.1,1.12,5.4,3.37Z"/>
    <path class="cls-1" d="M233.38,570.66v19.98h-3.02v-19.98h3.02Z"/>
    <path class="cls-1" d="M247.08,573.49v17.15h-3.01v-17.15h-4.59v-2.83h12.19v2.83h-4.58Z"/>
    <path class="cls-1" d="M263.08,582.01l-6.52-11.35h3.47l4.57,7.98,4.58-7.98h3.47l-6.55,11.35v8.63h-3.01v-8.63Z"/>
    <path class="cls-1" d="M288.91,580.56c0-2.81,1.03-5.23,3.09-7.25,2.05-2.02,4.52-3.03,7.4-3.03s5.29,1.02,7.32,3.05c2.04,2.04,3.07,4.48,3.07,7.34s-1.03,5.31-3.08,7.31c-2.06,2.01-4.55,3.01-7.47,3.01-2.58,0-4.9-.89-6.95-2.68-2.26-1.98-3.39-4.56-3.39-7.76ZM291.95,580.6c0,2.21.74,4.02,2.23,5.45,1.48,1.42,3.18,2.13,5.11,2.13,2.1,0,3.87-.72,5.31-2.17,1.44-1.47,2.16-3.25,2.16-5.36s-.71-3.92-2.14-5.36c-1.41-1.45-3.17-2.17-5.25-2.17s-3.83.72-5.27,2.17c-1.43,1.43-2.15,3.2-2.15,5.3Z"/>
    <path class="cls-1" d="M326.96,573.49h-6.96v4.8h6.72v2.83h-6.72v9.51h-3.02v-19.98h9.98v2.83Z"/>
    <path class="cls-1" d="M344.72,590.64l4.21-21.48,6.86,15.53,7.1-15.53,3.78,21.48h-3.09l-1.93-12.06-5.91,12.98-5.75-12.99-2.15,12.07h-3.12Z"/>
    <path class="cls-1" d="M377.3,570.66v19.98h-3.02v-19.98h3.02Z"/>
    <path class="cls-1" d="M400.26,571.73v3.57c-1.74-1.46-3.54-2.19-5.41-2.19-2.05,0-3.78.74-5.19,2.21-1.42,1.47-2.12,3.26-2.12,5.38s.71,3.86,2.12,5.3c1.42,1.44,3.15,2.16,5.2,2.16,1.06,0,1.96-.17,2.7-.52.41-.17.84-.41,1.29-.7s.91-.65,1.4-1.06v3.64c-1.72.97-3.54,1.46-5.43,1.46-2.86,0-5.29-1-7.31-2.99-2.01-2.01-3.01-4.43-3.01-7.27,0-2.54.84-4.81,2.52-6.81,2.07-2.44,4.75-3.66,8.04-3.66,1.79,0,3.53.49,5.2,1.46Z"/>
    <path class="cls-1" d="M411.03,578.47h8.62v-7.82h3.01v19.98h-3.01v-9.33h-8.62v9.33h-3.02v-19.98h3.02v7.82Z"/>
    <path class="cls-1" d="M433.85,570.66v19.98h-3.02v-19.98h3.02Z"/>
    <path class="cls-1" d="M452.32,580.23h8.26v.66c0,1.5-.18,2.83-.53,3.99-.34,1.07-.93,2.07-1.75,3-1.85,2.09-4.21,3.13-7.08,3.13s-5.19-1.01-7.18-3.03c-1.99-2.03-2.99-4.46-2.99-7.3s1.01-5.36,3.04-7.38c2.03-2.03,4.49-3.04,7.4-3.04,1.56,0,3.02.32,4.37.96,1.29.64,2.57,1.67,3.82,3.11l-2.15,2.06c-1.64-2.18-3.64-3.27-5.99-3.27-2.11,0-3.89.73-5.32,2.19-1.43,1.43-2.15,3.23-2.15,5.38s.8,4.06,2.39,5.5c1.49,1.34,3.11,2.01,4.85,2.01,1.48,0,2.82-.5,4-1.5,1.18-1.01,1.84-2.22,1.98-3.62h-4.98v-2.83Z"/>
    <path class="cls-1" d="M478.59,585.79h-8.55l-2.23,4.85h-3.25l9.89-21.23,9.54,21.23h-3.3l-2.1-4.85ZM477.36,582.95l-2.96-6.79-3.11,6.79h6.07Z"/>
    <path class="cls-1" d="M489.88,590.64v-21.34l14.57,15.24v-13.88h3.01v21.2l-14.57-15.21v13.99h-3.02Z"/>
  </g>
  <g>
    <path class="cls-1" d="M99.21,615.04l6.19,8.51h-3.69l-5.71-8.18h-.54v8.18h-3.02v-19.98h3.53c2.64,0,4.55.5,5.72,1.49,1.29,1.1,1.94,2.56,1.94,4.37,0,1.42-.41,2.63-1.22,3.65-.81,1.02-1.88,1.67-3.21,1.95ZM95.46,612.75h.96c2.86,0,4.28-1.09,4.28-3.27,0-2.04-1.39-3.07-4.17-3.07h-1.07v6.34Z"/>
    <path class="cls-1" d="M105.89,613.47c0-2.81,1.03-5.23,3.09-7.25,2.05-2.02,4.52-3.03,7.4-3.03s5.29,1.02,7.32,3.05c2.04,2.04,3.07,4.48,3.07,7.34s-1.03,5.31-3.08,7.31c-2.06,2.01-4.55,3.01-7.47,3.01-2.58,0-4.9-.89-6.95-2.68-2.26-1.98-3.39-4.56-3.39-7.76ZM108.93,613.51c0,2.21.74,4.02,2.23,5.45,1.48,1.42,3.18,2.13,5.11,2.13,2.1,0,3.87-.72,5.31-2.17,1.44-1.47,2.16-3.25,2.16-5.36s-.71-3.92-2.14-5.36c-1.41-1.45-3.17-2.17-5.25-2.17s-3.83.72-5.27,2.17c-1.43,1.43-2.15,3.2-2.15,5.3Z"/>
    <path class="cls-1" d="M129.64,603.57l5.2,13.35,5.44-14.33,5.2,14.33,5.53-13.35h3.27l-8.93,21.25-5.14-14.16-5.36,14.17-8.49-21.26h3.27Z"/>
    <path class="cls-1" d="M158.72,603.57v17.15h5.88v2.83h-8.89v-19.98h3.02Z"/>
    <path class="cls-1" d="M179.24,618.7h-8.55l-2.23,4.85h-3.25l9.89-21.23,9.54,21.23h-3.3l-2.1-4.85ZM178.01,615.87l-2.96-6.79-3.11,6.79h6.07Z"/>
    <path class="cls-1" d="M186.07,623.55v-21.34l14.57,15.24v-13.88h3.01v21.2l-14.57-15.21v13.99h-3.02Z"/>
    <path class="cls-1" d="M207.39,623.55v-19.98h4.19c2.01,0,3.6.2,4.76.59,1.25.39,2.38,1.05,3.4,1.98,2.06,1.88,3.09,4.35,3.09,7.41s-1.07,5.56-3.22,7.45c-1.08.95-2.21,1.61-3.39,1.98-1.1.37-2.67.56-4.7.56h-4.14ZM210.4,620.72h1.36c1.35,0,2.48-.14,3.38-.43.9-.3,1.71-.78,2.43-1.44,1.48-1.35,2.23-3.12,2.23-5.29s-.73-3.97-2.2-5.33c-1.32-1.22-3.27-1.82-5.84-1.82h-1.36v14.31Z"/>
    <path class="cls-1" d="M235.7,603.57v19.98h-3.02v-19.98h3.02Z"/>
    <path class="cls-1" d="M239.44,623.55v-21.34l14.57,15.24v-13.88h3.01v21.2l-14.57-15.21v13.99h-3.02Z"/>
    <path class="cls-1" d="M272.05,606.55l-2.45,1.45c-.46-.79-.89-1.31-1.31-1.55-.43-.28-.99-.41-1.67-.41-.84,0-1.53.24-2.08.71-.55.47-.83,1.05-.83,1.76,0,.98.72,1.76,2.17,2.36l1.99.82c1.62.66,2.81,1.46,3.56,2.4.75.94,1.13,2.1,1.13,3.47,0,1.84-.61,3.36-1.84,4.55-1.23,1.21-2.77,1.81-4.59,1.81s-3.17-.51-4.3-1.54c-1.11-1.03-1.81-2.47-2.08-4.33l3.05-.67c.14,1.17.38,1.98.72,2.43.62.86,1.53,1.29,2.72,1.29.94,0,1.72-.31,2.34-.94s.93-1.43.93-2.39c0-.39-.05-.74-.16-1.07-.11-.32-.28-.62-.5-.89s-.52-.53-.89-.76c-.36-.24-.79-.46-1.29-.68l-1.93-.8c-2.74-1.16-4.1-2.85-4.1-5.07,0-1.5.57-2.76,1.72-3.77,1.15-1.02,2.58-1.53,4.28-1.53,2.3,0,4.1,1.12,5.4,3.37Z"/>
    <path class="cls-1" d="M281.03,606.41v17.15h-3.01v-17.15h-4.59v-2.83h12.19v2.83h-4.58Z"/>
    <path class="cls-1" d="M290.26,603.57v19.98h-3.02v-19.98h3.02Z"/>
    <path class="cls-1" d="M299.51,606.41v17.15h-3.01v-17.15h-4.59v-2.83h12.19v2.83h-4.58Z"/>
    <path class="cls-1" d="M308.74,603.57v12.03c0,1.72.28,2.97.84,3.77.84,1.15,2.01,1.72,3.53,1.72s2.71-.57,3.54-1.72c.56-.77.84-2.02.84-3.77v-12.03h3.01v12.86c0,2.11-.66,3.84-1.97,5.2-1.48,1.52-3.29,2.28-5.43,2.28s-3.96-.76-5.42-2.28c-1.31-1.36-1.97-3.1-1.97-5.2v-12.86h3.02Z"/>
    <path class="cls-1" d="M329.76,606.41v17.15h-3.01v-17.15h-4.59v-2.83h12.19v2.83h-4.58Z"/>
    <path class="cls-1" d="M347,606.41h-8.01v4.8h7.78v2.83h-7.78v6.68h8.01v2.83h-11.03v-19.98h11.03v2.83Z"/>
    <path class="cls-1" d="M368.75,618.7h-8.55l-2.23,4.85h-3.25l9.89-21.23,9.54,21.23h-3.3l-2.1-4.85ZM367.52,615.87l-2.96-6.79-3.11,6.79h6.07Z"/>
    <path class="cls-1" d="M379.98,606.41v17.15h-3.01v-17.15h-4.59v-2.83h12.19v2.83h-4.58Z"/>
    <path class="cls-1" d="M396.33,611.39h8.62v-7.82h3.01v19.98h-3.01v-9.33h-8.62v9.33h-3.02v-19.98h3.02v7.82Z"/>
    <path class="cls-1" d="M423.43,618.7h-8.55l-2.23,4.85h-3.25l9.89-21.23,9.54,21.23h-3.3l-2.1-4.85ZM422.2,615.87l-2.96-6.79-3.11,6.79h6.07Z"/>
    <path class="cls-1" d="M437.03,615.04l6.19,8.51h-3.69l-5.71-8.18h-.54v8.18h-3.02v-19.98h3.53c2.64,0,4.55.5,5.72,1.49,1.29,1.1,1.94,2.56,1.94,4.37,0,1.42-.41,2.63-1.22,3.65-.81,1.02-1.88,1.67-3.21,1.95ZM433.27,612.75h.96c2.86,0,4.28-1.09,4.28-3.27,0-2.04-1.39-3.07-4.17-3.07h-1.07v6.34Z"/>
    <path class="cls-1" d="M445.45,603.57l5.53,13.85,5.6-13.85h3.3l-8.97,21.48-8.76-21.48h3.3Z"/>
    <path class="cls-1" d="M471.37,618.7h-8.55l-2.23,4.85h-3.25l9.89-21.23,9.54,21.23h-3.3l-2.1-4.85ZM470.14,615.87l-2.96-6.79-3.11,6.79h6.07Z"/>
    <path class="cls-1" d="M484.97,615.04l6.19,8.51h-3.69l-5.71-8.18h-.54v8.18h-3.02v-19.98h3.53c2.64,0,4.55.5,5.72,1.49,1.29,1.1,1.94,2.56,1.94,4.37,0,1.42-.41,2.63-1.22,3.65-.81,1.02-1.88,1.67-3.21,1.95ZM481.22,612.75h.96c2.86,0,4.28-1.09,4.28-3.27,0-2.04-1.39-3.07-4.17-3.07h-1.07v6.34Z"/>
    <path class="cls-1" d="M493.1,623.55v-19.98h4.19c2.01,0,3.6.2,4.76.59,1.25.39,2.38,1.05,3.4,1.98,2.06,1.88,3.09,4.35,3.09,7.41s-1.07,5.56-3.22,7.45c-1.08.95-2.21,1.61-3.39,1.98-1.1.37-2.67.56-4.7.56h-4.14ZM496.12,620.72h1.36c1.35,0,2.48-.14,3.38-.43.9-.3,1.71-.78,2.43-1.44,1.48-1.35,2.23-3.12,2.23-5.29s-.73-3.97-2.2-5.33c-1.32-1.22-3.27-1.82-5.84-1.82h-1.36v14.31Z"/>
  </g>
  <g>
    <path class="cls-1" d="M95.51,519.25l8.94,22.41,9.07-22.41h5.34l-14.52,34.77-14.18-34.77h5.34Z"/>
    <path class="cls-1" d="M126.05,519.25v32.34h-4.88v-32.34h4.88Z"/>
    <path class="cls-1" d="M132.11,551.59v-32.34h4.86c2.16,0,3.89.17,5.17.5,1.3.33,2.39.9,3.29,1.7.91.82,1.63,1.85,2.16,3.08.54,1.24.82,2.5.82,3.77,0,2.32-.89,4.28-2.66,5.89,1.72.59,3.07,1.61,4.06,3.08,1.01,1.45,1.51,3.14,1.51,5.07,0,2.53-.89,4.66-2.68,6.41-1.08,1.08-2.28,1.82-3.62,2.24-1.47.41-3.3.61-5.51.61h-7.39ZM136.99,533.14h1.53c1.82,0,3.15-.4,3.99-1.21.84-.8,1.27-1.99,1.27-3.55s-.43-2.68-1.3-3.47c-.87-.79-2.12-1.18-3.77-1.18h-1.72v9.41ZM136.99,547.01h3.02c2.21,0,3.83-.43,4.86-1.3,1.09-.94,1.63-2.12,1.63-3.56s-.52-2.57-1.57-3.52c-1.02-.93-2.84-1.4-5.47-1.4h-2.47v9.78Z"/>
    <path class="cls-1" d="M166.72,537.81l10.01,13.78h-5.97l-9.24-13.24h-.88v13.24h-4.88v-32.34h5.72c4.27,0,7.36.8,9.26,2.41,2.09,1.79,3.14,4.15,3.14,7.08,0,2.29-.66,4.26-1.97,5.91s-3.04,2.7-5.19,3.16ZM160.64,534.1h1.55c4.62,0,6.93-1.77,6.93-5.3,0-3.31-2.25-4.96-6.75-4.96h-1.74v10.26Z"/>
    <path class="cls-1" d="M198.87,543.74h-13.85l-3.6,7.86h-5.26l16-34.37,15.44,34.37h-5.34l-3.39-7.86ZM196.88,539.15l-4.8-11-5.03,11h9.82Z"/>
    <path class="cls-1" d="M217.05,523.84v27.75h-4.88v-27.75h-7.44v-4.59h19.73v4.59h-7.42Z"/>
    <path class="cls-1" d="M231.99,519.25v32.34h-4.88v-32.34h4.88Z"/>
    <path class="cls-1" d="M236.43,535.28c0-4.55,1.67-8.46,5.01-11.73,3.32-3.27,7.32-4.9,11.98-4.9s8.56,1.65,11.86,4.94c3.31,3.3,4.96,7.25,4.96,11.88s-1.66,8.59-4.99,11.83c-3.34,3.25-7.37,4.88-12.09,4.88-4.18,0-7.92-1.45-11.25-4.34-3.66-3.2-5.49-7.39-5.49-12.57ZM241.36,535.34c0,3.58,1.2,6.51,3.6,8.82,2.39,2.3,5.15,3.46,8.27,3.46,3.39,0,6.26-1.17,8.59-3.52,2.33-2.37,3.5-5.26,3.5-8.67s-1.15-6.34-3.46-8.67c-2.29-2.35-5.12-3.52-8.5-3.52s-6.21,1.17-8.53,3.52c-2.32,2.32-3.48,5.18-3.48,8.59Z"/>
    <path class="cls-1" d="M274.66,551.59v-34.54l23.59,24.68v-22.48h4.88v34.31l-23.59-24.61v22.64h-4.88Z"/>
    <path class="cls-1" d="M339.69,543.74h-13.85l-3.6,7.86h-5.26l16-34.37,15.44,34.37h-5.34l-3.39-7.86ZM337.7,539.15l-4.8-11-5.03,11h9.82Z"/>
    <path class="cls-1" d="M350.75,551.59v-34.54l23.59,24.68v-22.48h4.88v34.31l-23.59-24.61v22.64h-4.88Z"/>
    <path class="cls-1" d="M390.13,519.25v27.75h9.51v4.59h-14.39v-32.34h4.88Z"/>
    <path class="cls-1" d="M423.36,543.74h-13.85l-3.6,7.86h-5.26l16-34.37,15.44,34.37h-5.34l-3.39-7.86ZM421.37,539.15l-4.8-11-5.03,11h9.82Z"/>
    <path class="cls-1" d="M438.13,537.62l-10.56-18.37h5.61l7.39,12.92,7.42-12.92h5.61l-10.6,18.37v13.97h-4.88v-13.97Z"/>
    <path class="cls-1" d="M472.92,524.07l-3.96,2.35c-.74-1.28-1.45-2.12-2.12-2.51-.7-.45-1.6-.67-2.7-.67-1.36,0-2.48.38-3.37,1.15-.89.75-1.34,1.7-1.34,2.85,0,1.58,1.17,2.85,3.52,3.81l3.23,1.32c2.62,1.06,4.55,2.36,5.76,3.89s1.82,3.4,1.82,5.62c0,2.97-.99,5.43-2.97,7.37-2,1.96-4.48,2.93-7.44,2.93-2.81,0-5.12-.83-6.95-2.49-1.8-1.66-2.93-4-3.37-7.02l4.94-1.09c.22,1.9.61,3.21,1.17,3.94,1.01,1.4,2.47,2.09,4.4,2.09,1.52,0,2.79-.51,3.79-1.53s1.51-2.31,1.51-3.88c0-.63-.09-1.2-.26-1.73s-.45-1.01-.82-1.45c-.37-.44-.85-.85-1.44-1.24-.59-.38-1.28-.75-2.09-1.1l-3.12-1.3c-4.43-1.87-6.64-4.61-6.64-8.21,0-2.43.93-4.46,2.79-6.1,1.86-1.65,4.17-2.47,6.93-2.47,3.73,0,6.64,1.82,8.74,5.45Z"/>
    <path class="cls-1" d="M482.81,519.25v32.34h-4.88v-32.34h4.88Z"/>
    <path class="cls-1" d="M507.15,524.07l-3.96,2.35c-.74-1.28-1.45-2.12-2.12-2.51-.7-.45-1.6-.67-2.7-.67-1.36,0-2.48.38-3.37,1.15-.89.75-1.34,1.7-1.34,2.85,0,1.58,1.17,2.85,3.52,3.81l3.23,1.32c2.62,1.06,4.55,2.36,5.76,3.89s1.82,3.4,1.82,5.62c0,2.97-.99,5.43-2.97,7.37-2,1.96-4.48,2.93-7.44,2.93-2.81,0-5.12-.83-6.95-2.49-1.8-1.66-2.93-4-3.37-7.02l4.94-1.09c.22,1.9.61,3.21,1.17,3.94,1.01,1.4,2.47,2.09,4.4,2.09,1.52,0,2.79-.51,3.79-1.53s1.51-2.31,1.51-3.88c0-.63-.09-1.2-.26-1.73s-.45-1.01-.82-1.45c-.37-.44-.85-.85-1.44-1.24-.59-.38-1.28-.75-2.09-1.1l-3.12-1.3c-4.43-1.87-6.64-4.61-6.64-8.21,0-2.43.93-4.46,2.79-6.1,1.86-1.65,4.17-2.47,6.93-2.47,3.73,0,6.64,1.82,8.74,5.45Z"/>
  </g>
  <g>
    <path class="cls-1" d="M230.66,712.76l3.69,8.01,3.68-8.01h3.71l-7.41,15.25-7.35-15.25h3.69Z"/>
    <path class="cls-1" d="M242.27,706.82c0-.58.21-1.07.63-1.49s.92-.63,1.51-.63,1.1.21,1.52.63c.42.41.63.91.63,1.51s-.21,1.1-.63,1.52c-.41.42-.91.63-1.51.63s-1.1-.21-1.52-.63-.63-.93-.63-1.54ZM246.06,712.76v14.27h-3.3v-14.27h3.3Z"/>
    <path class="cls-1" d="M250.81,712.76l3.69,8.01,3.68-8.01h3.71l-7.41,15.25-7.35-15.25h3.69Z"/>
    <path class="cls-1" d="M262.41,706.82c0-.58.21-1.07.63-1.49s.92-.63,1.51-.63,1.1.21,1.52.63c.42.41.63.91.63,1.51s-.21,1.1-.63,1.52c-.41.42-.91.63-1.51.63s-1.1-.21-1.52-.63-.63-.93-.63-1.54ZM266.21,712.76v14.27h-3.3v-14.27h3.3Z"/>
    <path class="cls-1" d="M281.28,704.41v13.62c0,1.94.32,3.36.95,4.26.95,1.3,2.28,1.95,4,1.95s3.07-.65,4.01-1.95c.63-.87.95-2.29.95-4.26v-13.62h3.41v14.56c0,2.38-.74,4.35-2.23,5.89-1.67,1.72-3.72,2.58-6.15,2.58s-4.48-.86-6.14-2.58c-1.48-1.54-2.23-3.51-2.23-5.89v-14.56h3.41Z"/>
    <path class="cls-1" d="M302.24,704.41v22.62h-3.41v-22.62h3.41Z"/>
    <path class="cls-1" d="M315.68,712.76l3.69,8.01,3.68-8.01h3.71l-7.41,15.25-7.35-15.25h3.69Z"/>
    <path class="cls-1" d="M330.57,715.57c0-3.6.84-6.48,2.52-8.63,1.5-1.94,3.33-2.92,5.46-2.92s3.96.97,5.46,2.92c1.68,2.15,2.52,5.07,2.52,8.77s-.84,6.61-2.52,8.76c-1.5,1.94-3.32,2.92-5.45,2.92s-3.96-.97-5.48-2.92c-1.68-2.15-2.52-5.12-2.52-8.91ZM333.93,715.58c0,2.51.43,4.59,1.3,6.25.87,1.63,1.98,2.45,3.33,2.45s2.45-.82,3.33-2.45c.88-1.62,1.32-3.67,1.32-6.14s-.44-4.52-1.32-6.15c-.88-1.62-1.99-2.43-3.33-2.43s-2.43.81-3.31,2.43c-.88,1.61-1.32,3.62-1.32,6.04Z"/>
    <path class="cls-1" d="M349.21,725.38c0-.55.2-1.02.6-1.42s.88-.6,1.44-.6,1.04.2,1.44.6.6.88.6,1.44-.2,1.05-.6,1.45-.87.59-1.44.59-1.06-.2-1.45-.59-.59-.88-.59-1.46Z"/>
    <path class="cls-1" d="M361.41,727.8l-2.5-1.86,5.41-7.37c-.29.04-.54.07-.75.09s-.37.03-.5.03c-1.83,0-3.41-.7-4.75-2.09-1.33-1.39-1.99-3.06-1.99-5.01,0-2.08.74-3.86,2.21-5.33s3.26-2.23,5.33-2.23,3.85.73,5.38,2.2c1.52,1.46,2.29,3.17,2.29,5.16,0,1.76-.74,3.66-2.23,5.7l-7.9,10.72ZM359.65,711.34c0,1.22.42,2.25,1.25,3.08s1.85,1.26,3.03,1.26,2.19-.42,3.02-1.25,1.26-1.85,1.26-3.03-.42-2.19-1.26-3.03-1.84-1.25-3.03-1.25-2.17.42-3,1.25-1.26,1.83-1.26,2.97Z"/>
  </g>
  <g>
    <path class="cls-1" d="M211.21,787.2h-6.82c.06.78.31,1.4.76,1.87.45.46,1.03.68,1.73.68.55,0,1-.13,1.36-.39.35-.26.75-.74,1.2-1.45l1.86,1.04c-.29.49-.59.91-.91,1.25s-.66.63-1.03.86-.76.39-1.18.49-.88.16-1.38.16c-1.42,0-2.56-.46-3.42-1.37-.86-.92-1.29-2.14-1.29-3.65s.42-2.72,1.25-3.65c.84-.92,1.95-1.38,3.34-1.38s2.51.45,3.32,1.34c.81.89,1.21,2.11,1.21,3.68v.52ZM208.95,785.4c-.31-1.17-1.04-1.76-2.22-1.76-.27,0-.52.04-.75.12s-.45.2-.64.35-.36.34-.49.55-.24.46-.31.73h4.41Z"/>
    <path class="cls-1" d="M215.01,774.94v16.49h-2.2v-16.49h2.2Z"/>
    <path class="cls-1" d="M225.66,787.2h-6.82c.06.78.31,1.4.76,1.87.45.46,1.03.68,1.73.68.55,0,1-.13,1.36-.39.35-.26.75-.74,1.2-1.45l1.86,1.04c-.29.49-.59.91-.91,1.25s-.66.63-1.03.86-.76.39-1.18.49-.88.16-1.38.16c-1.42,0-2.56-.46-3.42-1.37-.86-.92-1.29-2.14-1.29-3.65s.42-2.72,1.25-3.65c.84-.92,1.95-1.38,3.34-1.38s2.51.45,3.32,1.34c.81.89,1.21,2.11,1.21,3.68v.52ZM223.4,785.4c-.31-1.17-1.04-1.76-2.22-1.76-.27,0-.52.04-.75.12s-.45.2-.64.35-.36.34-.49.55-.24.46-.31.73h4.41Z"/>
    <path class="cls-1" d="M234.66,782.33v2.92c-.5-.61-.95-1.03-1.35-1.26-.39-.23-.85-.35-1.38-.35-.83,0-1.51.29-2.06.87s-.82,1.31-.82,2.18.26,1.62.79,2.2c.53.57,1.21.86,2.04.86.53,0,.99-.11,1.4-.34.39-.22.85-.65,1.38-1.29v2.9c-.89.46-1.78.69-2.68.69-1.47,0-2.7-.48-3.69-1.43-.99-.96-1.48-2.15-1.48-3.56s.5-2.62,1.5-3.59,2.23-1.46,3.69-1.46c.94,0,1.82.22,2.66.67Z"/>
    <path class="cls-1" d="M238.25,783.97v7.46h-2.2v-7.46h-.94v-2.05h.94v-3.49h2.2v3.49h1.71v2.05h-1.71Z"/>
    <path class="cls-1" d="M240.66,781.92h2.2v.85c.4-.42.76-.71,1.07-.87.32-.16.7-.24,1.13-.24.58,0,1.18.19,1.82.57l-1.01,2.01c-.42-.3-.82-.45-1.22-.45-1.2,0-1.8.91-1.8,2.71v4.93h-2.2v-9.51Z"/>
    <path class="cls-1" d="M246.71,786.61c0-1.37.49-2.54,1.47-3.51s2.18-1.45,3.59-1.45,2.62.49,3.61,1.46c.98.97,1.46,2.16,1.46,3.57s-.49,2.62-1.47,3.58c-.99.96-2.2,1.44-3.64,1.44s-2.62-.49-3.58-1.46c-.96-.96-1.45-2.17-1.45-3.63ZM248.96,786.65c0,.95.25,1.7.76,2.26.52.56,1.21.84,2.06.84s1.55-.28,2.06-.83.77-1.29.77-2.22-.26-1.66-.77-2.22c-.52-.56-1.21-.84-2.06-.84s-1.52.28-2.04.84-.78,1.28-.78,2.17Z"/>
    <path class="cls-1" d="M258.38,781.92h2.21v.88c.77-.76,1.63-1.14,2.6-1.14,1.11,0,1.97.35,2.59,1.04.53.59.8,1.56.8,2.9v5.83h-2.21v-5.31c0-.94-.13-1.58-.39-1.94-.25-.36-.72-.55-1.39-.55-.73,0-1.25.24-1.55.72-.3.48-.45,1.31-.45,2.49v4.59h-2.21v-9.51Z"/>
    <path class="cls-1" d="M268.22,777.97c0-.38.14-.72.42-1s.62-.42,1.01-.42.74.14,1.02.42c.28.27.42.61.42,1.01s-.14.74-.42,1.02c-.27.28-.61.42-1.01.42s-.74-.14-1.02-.42-.42-.62-.42-1.03ZM270.75,781.92v9.51h-2.2v-9.51h2.2Z"/>
    <path class="cls-1" d="M280.13,782.33v2.92c-.5-.61-.95-1.03-1.35-1.26-.39-.23-.85-.35-1.38-.35-.83,0-1.51.29-2.06.87s-.82,1.31-.82,2.18.26,1.62.79,2.2c.53.57,1.21.86,2.04.86.53,0,.99-.11,1.4-.34.39-.22.85-.65,1.38-1.29v2.9c-.89.46-1.78.69-2.68.69-1.47,0-2.7-.48-3.69-1.43-.99-.96-1.48-2.15-1.48-3.56s.5-2.62,1.5-3.59,2.23-1.46,3.69-1.46c.94,0,1.82.22,2.66.67Z"/>
    <path class="cls-1" d="M286.99,783.54l-1.82.97c-.29-.59-.64-.88-1.06-.88-.2,0-.37.07-.52.2s-.21.3-.21.51c0,.36.42.73,1.27,1.08,1.17.5,1.95.96,2.35,1.39s.61.99.61,1.71c0,.92-.34,1.69-1.02,2.3-.66.59-1.45.88-2.38.88-1.59,0-2.72-.78-3.39-2.33l1.88-.87c.26.46.46.75.6.87.27.25.59.37.96.37.74,0,1.11-.34,1.11-1.02,0-.39-.29-.75-.86-1.09-.22-.11-.44-.22-.66-.32s-.45-.21-.67-.32c-.64-.31-1.09-.62-1.35-.94-.33-.4-.5-.91-.5-1.53,0-.83.28-1.51.85-2.05.58-.54,1.28-.81,2.11-.81,1.22,0,2.12.63,2.71,1.88Z"/>
    <path class="cls-1" d="M296.35,774.94v8.09c.88-.91,1.88-1.37,2.99-1.37,1.28,0,2.35.48,3.2,1.44.85.95,1.28,2.14,1.28,3.55s-.43,2.68-1.29,3.63c-.85.95-1.93,1.43-3.23,1.43-1.1,0-2.08-.42-2.95-1.27v1h-2.2v-16.49h2.2ZM301.57,786.75c0-.91-.25-1.65-.74-2.23-.5-.59-1.13-.88-1.88-.88-.81,0-1.46.28-1.97.85-.5.56-.75,1.29-.75,2.19s.25,1.66.74,2.22c.5.57,1.15.85,1.95.85.76,0,1.39-.28,1.89-.85.51-.57.76-1.29.76-2.15Z"/>
    <path class="cls-1" d="M307.98,789.67l-4.28-7.74h2.55l2.91,5.47,2.71-5.47h2.48l-7.58,14.69h-2.51l3.71-6.94Z"/>
    <path class="cls-1" d="M321.58,776.36l3.93,10.08,4.1-10.81,3.93,10.81,4.17-10.08h2.47l-6.74,16.04-3.88-10.68-4.04,10.69-6.41-16.04h2.47Z"/>
    <path class="cls-1" d="M340.7,777.97c0-.38.14-.72.42-1s.62-.42,1.01-.42.74.14,1.02.42c.28.27.42.61.42,1.01s-.14.74-.42,1.02c-.27.28-.61.42-1.01.42s-.74-.14-1.02-.42-.42-.62-.42-1.03ZM343.22,781.92v9.51h-2.2v-9.51h2.2Z"/>
    <path class="cls-1" d="M345.21,781.92h2.21v.88c.77-.76,1.63-1.14,2.6-1.14,1.11,0,1.97.35,2.59,1.04.53.59.8,1.56.8,2.9v5.83h-2.21v-5.31c0-.94-.13-1.58-.39-1.94-.25-.36-.72-.55-1.39-.55-.73,0-1.25.24-1.55.72-.3.48-.45,1.31-.45,2.49v4.59h-2.21v-9.51Z"/>
    <path class="cls-1" d="M357.65,783.97v7.46h-2.21v-7.46h-.78v-2.05h.78v-3.67c0-1.2.21-2.04.62-2.54.57-.69,1.41-1.04,2.5-1.04.39,0,.88.11,1.47.34v2.25l-.22-.12c-.48-.24-.87-.36-1.17-.36-.39,0-.65.14-.79.42-.14.27-.21.8-.21,1.58v3.13h2.39v2.05h-2.39Z"/>
    <path class="cls-1" d="M360.6,777.97c0-.38.14-.72.42-1s.62-.42,1.01-.42.74.14,1.02.42c.28.27.42.61.42,1.01s-.14.74-.42,1.02c-.27.28-.61.42-1.01.42s-.74-.14-1.02-.42-.42-.62-.42-1.03ZM363.13,781.92v9.51h-2.2v-9.51h2.2Z"/>
    <path class="cls-1" d="M367.31,774.94v16.49h-2.2v-16.49h2.2Z"/>
    <path class="cls-1" d="M377.96,787.2h-6.82c.06.78.31,1.4.76,1.87.45.46,1.03.68,1.73.68.55,0,1-.13,1.36-.39.35-.26.75-.74,1.2-1.45l1.86,1.04c-.29.49-.59.91-.91,1.25s-.66.63-1.03.86-.76.39-1.18.49-.88.16-1.38.16c-1.42,0-2.56-.46-3.42-1.37-.86-.92-1.29-2.14-1.29-3.65s.42-2.72,1.25-3.65c.84-.92,1.95-1.38,3.34-1.38s2.51.45,3.32,1.34c.81.89,1.21,2.11,1.21,3.68v.52ZM375.7,785.4c-.31-1.17-1.04-1.76-2.22-1.76-.27,0-.52.04-.75.12s-.45.2-.64.35-.36.34-.49.55-.24.46-.31.73h4.41Z"/>
    <path class="cls-1" d="M386.57,774.94h2.21v16.49h-2.21v-1c-.87.85-1.85,1.27-2.94,1.27-1.3,0-2.38-.48-3.24-1.43-.85-.97-1.28-2.18-1.28-3.63s.43-2.6,1.28-3.55c.85-.96,1.91-1.44,3.19-1.44,1.11,0,2.11.46,2.99,1.37v-8.09ZM381.35,786.65c0,.91.24,1.65.73,2.23.5.58,1.13.87,1.89.87.81,0,1.47-.28,1.97-.84.5-.58.75-1.32.75-2.21s-.25-1.63-.75-2.21c-.5-.57-1.15-.85-1.95-.85-.75,0-1.39.29-1.89.86-.5.58-.75,1.3-.75,2.15Z"/>
    <path class="cls-1" d="M398.82,782.26h6.5v-5.9h2.28v15.08h-2.28v-7.04h-6.5v7.04h-2.28v-15.08h2.28v5.9Z"/>
    <path class="cls-1" d="M409.66,777.97c0-.38.14-.72.42-1s.62-.42,1.01-.42.74.14,1.02.42c.28.27.42.61.42,1.01s-.14.74-.42,1.02c-.27.28-.61.42-1.01.42s-.74-.14-1.02-.42-.42-.62-.42-1.03ZM412.19,781.92v9.51h-2.2v-9.51h2.2Z"/>
    <path class="cls-1" d="M416.37,774.94v16.49h-2.2v-16.49h2.2Z"/>
    <path class="cls-1" d="M420.55,774.94v16.49h-2.2v-16.49h2.2Z"/>
    <path class="cls-1" d="M434.25,783.05l2.71,3.28.09-.1c.29-.32.57-.63.83-.94s.51-.62.75-.93l1.48,1.52c-.18.26-.42.56-.72.91s-.65.74-1.06,1.19l2.79,3.45h-2.83l-1.5-1.85c-1.38,1.43-2.82,2.14-4.31,2.14-1.33,0-2.47-.43-3.4-1.28-.91-.86-1.37-1.92-1.37-3.18,0-1.5.72-2.75,2.17-3.75l.99-.67s.04-.02.07-.05.08-.06.14-.11c-1-1.06-1.49-2.11-1.49-3.13s.33-1.84,1-2.48c.68-.64,1.55-.96,2.62-.96s1.89.31,2.57.93,1.02,1.4,1.02,2.34c0,.65-.19,1.24-.56,1.77-.36.53-1.03,1.16-1.98,1.89ZM432.44,784.33l-.13.09c-.93.64-1.57,1.16-1.9,1.55-.33.39-.5.8-.5,1.24,0,.62.25,1.2.75,1.72.52.5,1.09.75,1.72.75.88,0,1.89-.58,3.04-1.73l-2.98-3.62ZM432.93,781.44l.19-.14c.32-.24.58-.45.79-.63s.36-.33.45-.45c.2-.24.29-.54.29-.89,0-.4-.13-.72-.4-.97s-.62-.37-1.07-.37c-.41,0-.75.13-1.04.38-.28.24-.42.55-.42.93,0,.44.18.88.53,1.31l.57.68s.06.08.12.15Z"/>
    <path class="cls-1" d="M456.37,787.77h-6.46l-1.68,3.66h-2.45l7.46-16.03,7.2,16.03h-2.49l-1.58-3.66ZM455.44,785.63l-2.24-5.13-2.34,5.13h4.58Z"/>
    <path class="cls-1" d="M463.31,774.94v16.49h-2.2v-16.49h2.2Z"/>
    <path class="cls-1" d="M472.3,781.92h2.21v9.51h-2.21v-1c-.91.85-1.88,1.27-2.92,1.27-1.32,0-2.4-.48-3.26-1.43-.85-.97-1.28-2.18-1.28-3.63s.43-2.61,1.28-3.56,1.92-1.43,3.2-1.43c1.11,0,2.1.46,2.98,1.37v-1.1ZM467.09,786.65c0,.91.24,1.65.73,2.23.5.58,1.13.87,1.89.87.81,0,1.47-.28,1.97-.84.5-.58.75-1.32.75-2.21s-.25-1.63-.75-2.21c-.5-.57-1.15-.85-1.95-.85-.75,0-1.39.29-1.89.86-.5.58-.75,1.3-.75,2.15Z"/>
    <path class="cls-1" d="M476.48,781.92h2.21v.88c.77-.76,1.63-1.14,2.6-1.14,1.11,0,1.97.35,2.59,1.04.53.59.8,1.56.8,2.9v5.83h-2.21v-5.31c0-.94-.13-1.58-.39-1.94-.25-.36-.72-.55-1.39-.55-.73,0-1.25.24-1.55.72-.3.48-.45,1.31-.45,2.49v4.59h-2.21v-9.51Z"/>
    <path class="cls-1" d="M500.97,778.6l-1.85,1.09c-.34-.6-.67-.99-.99-1.17-.33-.21-.75-.31-1.26-.31-.63,0-1.16.18-1.57.54-.42.35-.62.79-.62,1.33,0,.74.55,1.33,1.64,1.78l1.5.62c1.22.5,2.12,1.1,2.69,1.81s.85,1.59.85,2.62c0,1.39-.46,2.53-1.39,3.44-.93.91-2.09,1.37-3.47,1.37-1.31,0-2.39-.39-3.24-1.16-.84-.77-1.36-1.87-1.57-3.27l2.3-.51c.1.89.29,1.5.55,1.84.47.65,1.15.98,2.05.98.71,0,1.3-.24,1.77-.71s.7-1.08.7-1.81c0-.29-.04-.56-.12-.81s-.21-.47-.38-.67-.4-.4-.67-.58-.6-.35-.98-.51l-1.46-.61c-2.06-.87-3.1-2.15-3.1-3.83,0-1.13.43-2.08,1.3-2.84.87-.77,1.94-1.15,3.23-1.15,1.74,0,3.1.85,4.07,2.54Z"/>
    <path class="cls-1" d="M505.49,783.97v7.46h-2.2v-7.46h-.94v-2.05h.94v-3.49h2.2v3.49h1.71v2.05h-1.71Z"/>
    <path class="cls-1" d="M516.73,787.2h-6.82c.06.78.31,1.4.76,1.87.45.46,1.03.68,1.73.68.55,0,1-.13,1.36-.39.35-.26.75-.74,1.2-1.45l1.86,1.04c-.29.49-.59.91-.91,1.25s-.66.63-1.03.86-.76.39-1.18.49-.88.16-1.38.16c-1.42,0-2.56-.46-3.42-1.37-.86-.92-1.29-2.14-1.29-3.65s.42-2.72,1.25-3.65c.84-.92,1.95-1.38,3.34-1.38s2.51.45,3.32,1.34c.81.89,1.21,2.11,1.21,3.68v.52ZM514.47,785.4c-.31-1.17-1.04-1.76-2.22-1.76-.27,0-.52.04-.75.12s-.45.2-.64.35-.36.34-.49.55-.24.46-.31.73h4.41Z"/>
    <path class="cls-1" d="M518.33,781.92h2.2v.85c.4-.42.76-.71,1.07-.87.32-.16.7-.24,1.13-.24.58,0,1.18.19,1.82.57l-1.01,2.01c-.42-.3-.82-.45-1.22-.45-1.2,0-1.8.91-1.8,2.71v4.93h-2.2v-9.51Z"/>
    <path class="cls-1" d="M525.31,781.92h2.21v.88c.77-.76,1.63-1.14,2.6-1.14,1.11,0,1.97.35,2.59,1.04.53.59.8,1.56.8,2.9v5.83h-2.21v-5.31c0-.94-.13-1.58-.39-1.94-.25-.36-.72-.55-1.39-.55-.73,0-1.25.24-1.55.72-.3.48-.45,1.31-.45,2.49v4.59h-2.21v-9.51Z"/>
  </g>
  <g>
    <path class="cls-1" d="M62.25,677.9h8.39v.67c0,1.53-.18,2.88-.54,4.05-.35,1.09-.94,2.1-1.78,3.05-1.89,2.12-4.28,3.18-7.19,3.18s-5.27-1.03-7.3-3.08c-2.03-2.06-3.04-4.53-3.04-7.42s1.03-5.45,3.09-7.5c2.06-2.06,4.57-3.09,7.52-3.09,1.59,0,3.07.32,4.45.97,1.32.65,2.61,1.7,3.88,3.16l-2.18,2.09c-1.67-2.22-3.7-3.33-6.09-3.33-2.15,0-3.95.74-5.41,2.22-1.46,1.46-2.18,3.28-2.18,5.47s.81,4.13,2.43,5.59c1.52,1.36,3.16,2.04,4.93,2.04,1.51,0,2.86-.51,4.07-1.53,1.2-1.03,1.87-2.25,2.01-3.68h-5.06v-2.88Z"/>
    <path class="cls-1" d="M84.53,682.76h-9.18c.08,1.05.42,1.89,1.03,2.51.6.61,1.38.92,2.33.92.74,0,1.35-.17,1.83-.53.47-.35,1.01-1,1.62-1.95l2.5,1.4c-.39.66-.79,1.22-1.22,1.69-.43.47-.89.86-1.38,1.16-.49.3-1.02.52-1.59.66-.57.14-1.19.21-1.85.21-1.91,0-3.45-.61-4.6-1.84-1.16-1.24-1.74-2.88-1.74-4.92s.56-3.67,1.68-4.92c1.13-1.24,2.63-1.85,4.5-1.85s3.38.6,4.47,1.8c1.09,1.19,1.63,2.85,1.63,4.96v.7ZM81.49,680.34c-.41-1.58-1.41-2.37-2.99-2.37-.36,0-.7.05-1.01.16-.32.11-.6.27-.86.47s-.48.45-.66.74c-.18.29-.32.62-.42.99h5.95Z"/>
    <path class="cls-1" d="M86.08,681.97c0-1.85.66-3.42,1.99-4.72,1.32-1.3,2.94-1.95,4.84-1.95s3.53.65,4.87,1.96c1.32,1.31,1.97,2.91,1.97,4.81s-.66,3.53-1.99,4.83c-1.33,1.29-2.97,1.93-4.91,1.93s-3.53-.66-4.83-1.97c-1.3-1.3-1.95-2.93-1.95-4.89ZM89.1,682.03c0,1.28.34,2.29,1.03,3.04.7.75,1.63,1.13,2.78,1.13s2.08-.37,2.78-1.12c.69-.75,1.04-1.74,1.04-2.99s-.35-2.24-1.04-2.99c-.7-.75-1.63-1.13-2.78-1.13s-2.05.38-2.75,1.13c-.7.76-1.05,1.73-1.05,2.92Z"/>
    <path class="cls-1" d="M104.76,695.44h-2.96v-19.78h2.96v1.39c1.17-1.17,2.49-1.75,3.97-1.75,1.76,0,3.21.65,4.35,1.95,1.16,1.29,1.74,2.92,1.74,4.88s-.57,3.52-1.72,4.8c-1.14,1.27-2.58,1.91-4.31,1.91-1.5,0-2.84-.6-4.03-1.8v8.41ZM111.8,682.14c0-1.23-.33-2.23-1-3-.68-.78-1.53-1.17-2.55-1.17-1.09,0-1.97.38-2.64,1.13-.68.76-1.01,1.75-1.01,2.97s.34,2.19,1.01,2.97c.67.76,1.54,1.14,2.63,1.14,1.03,0,1.87-.39,2.54-1.16.68-.77,1.03-1.74,1.03-2.89Z"/>
    <path class="cls-1" d="M116.87,666.25h2.96v10.47c1.05-.95,2.21-1.42,3.49-1.42,1.45,0,2.6.47,3.47,1.41.74.82,1.1,2.12,1.1,3.91v7.85h-2.96v-7.58c0-1.03-.18-1.77-.55-2.23s-.95-.69-1.76-.69c-1.04,0-1.76.32-2.18.96-.41.65-.62,1.76-.62,3.34v6.2h-2.96v-22.22Z"/>
    <path class="cls-1" d="M129.96,681.97c0-1.85.66-3.42,1.99-4.72,1.32-1.3,2.94-1.95,4.84-1.95s3.53.65,4.87,1.96c1.32,1.31,1.97,2.91,1.97,4.81s-.66,3.53-1.99,4.83c-1.33,1.29-2.97,1.93-4.91,1.93s-3.53-.66-4.83-1.97c-1.3-1.3-1.95-2.93-1.95-4.89ZM132.99,682.03c0,1.28.34,2.29,1.03,3.04.7.75,1.63,1.13,2.78,1.13s2.08-.37,2.78-1.12c.69-.75,1.04-1.74,1.04-2.99s-.35-2.24-1.04-2.99c-.7-.75-1.63-1.13-2.78-1.13s-2.05.38-2.75,1.13c-.7.76-1.05,1.73-1.05,2.92Z"/>
    <path class="cls-1" d="M145.68,675.66h2.97v1.18c1.04-1.03,2.2-1.54,3.5-1.54,1.49,0,2.65.47,3.49,1.41.72.8,1.08,2.1,1.08,3.91v7.85h-2.97v-7.16c0-1.26-.18-2.14-.53-2.62-.34-.49-.96-.74-1.87-.74-.98,0-1.68.32-2.09.97-.4.64-.6,1.76-.6,3.35v6.18h-2.97v-12.81Z"/>
    <path class="cls-1" d="M171.05,682.76h-9.18c.08,1.05.42,1.89,1.03,2.51.6.61,1.38.92,2.33.92.74,0,1.35-.17,1.83-.53.47-.35,1.01-1,1.62-1.95l2.5,1.4c-.39.66-.79,1.22-1.22,1.69-.43.47-.89.86-1.38,1.16-.49.3-1.02.52-1.59.66-.57.14-1.19.21-1.85.21-1.91,0-3.45-.61-4.6-1.84-1.16-1.24-1.74-2.88-1.74-4.92s.56-3.67,1.68-4.92c1.13-1.24,2.63-1.85,4.5-1.85s3.38.6,4.47,1.8c1.09,1.19,1.63,2.85,1.63,4.96v.7ZM168.01,680.34c-.41-1.58-1.41-2.37-2.99-2.37-.36,0-.7.05-1.01.16-.32.11-.6.27-.86.47s-.48.45-.66.74c-.18.29-.32.62-.42.99h5.95Z"/>
    <path class="cls-1" d="M196.01,669.25v3.63c-1.77-1.48-3.6-2.22-5.5-2.22-2.09,0-3.85.75-5.27,2.25-1.44,1.49-2.16,3.31-2.16,5.47s.72,3.93,2.16,5.39c1.44,1.47,3.2,2.2,5.29,2.2,1.08,0,1.99-.18,2.75-.53.42-.18.86-.41,1.31-.71.45-.3.93-.66,1.43-1.08v3.7c-1.75.99-3.6,1.49-5.53,1.49-2.9,0-5.38-1.01-7.43-3.04-2.04-2.04-3.07-4.51-3.07-7.39,0-2.59.86-4.89,2.57-6.92,2.1-2.48,4.83-3.72,8.17-3.72,1.82,0,3.59.5,5.29,1.49Z"/>
    <path class="cls-1" d="M197.63,681.97c0-1.85.66-3.42,1.99-4.72,1.32-1.3,2.94-1.95,4.84-1.95s3.53.65,4.87,1.96c1.32,1.31,1.97,2.91,1.97,4.81s-.66,3.53-1.99,4.83c-1.33,1.29-2.97,1.93-4.91,1.93s-3.53-.66-4.83-1.97c-1.3-1.3-1.95-2.93-1.95-4.89ZM200.66,682.03c0,1.28.34,2.29,1.03,3.04.7.75,1.63,1.13,2.78,1.13s2.08-.37,2.78-1.12c.69-.75,1.04-1.74,1.04-2.99s-.35-2.24-1.04-2.99c-.7-.75-1.63-1.13-2.78-1.13s-2.05.38-2.75,1.13c-.7.76-1.05,1.73-1.05,2.92Z"/>
    <path class="cls-1" d="M213.35,675.66h2.97v1.18c1.04-1.03,2.2-1.54,3.5-1.54,1.49,0,2.65.47,3.49,1.41.72.8,1.08,2.1,1.08,3.91v7.85h-2.97v-7.16c0-1.26-.18-2.14-.53-2.62-.34-.49-.96-.74-1.87-.74-.98,0-1.68.32-2.09.97-.4.64-.6,1.76-.6,3.35v6.18h-2.97v-12.81Z"/>
    <path class="cls-1" d="M230.1,678.42v10.05h-2.96v-10.05h-1.26v-2.76h1.26v-4.7h2.96v4.7h2.3v2.76h-2.3Z"/>
    <path class="cls-1" d="M233.34,675.66h2.96v1.14c.54-.57,1.03-.96,1.45-1.17.43-.22.94-.33,1.53-.33.78,0,1.6.25,2.45.76l-1.36,2.71c-.56-.4-1.11-.6-1.64-.6-1.61,0-2.42,1.22-2.42,3.66v6.64h-2.96v-12.81Z"/>
    <path class="cls-1" d="M241.49,681.97c0-1.85.66-3.42,1.99-4.72,1.32-1.3,2.94-1.95,4.84-1.95s3.53.65,4.87,1.96c1.32,1.31,1.97,2.91,1.97,4.81s-.66,3.53-1.99,4.83c-1.33,1.29-2.97,1.93-4.91,1.93s-3.53-.66-4.83-1.97c-1.3-1.3-1.95-2.93-1.95-4.89ZM244.52,682.03c0,1.28.34,2.29,1.03,3.04.7.75,1.63,1.13,2.78,1.13s2.08-.37,2.78-1.12c.69-.75,1.04-1.74,1.04-2.99s-.35-2.24-1.04-2.99c-.7-.75-1.63-1.13-2.78-1.13s-2.05.38-2.75,1.13c-.7.76-1.05,1.73-1.05,2.92Z"/>
    <path class="cls-1" d="M260.17,666.25v22.22h-2.96v-22.22h2.96Z"/>
    <path class="cls-1" d="M265.8,666.25v22.22h-2.96v-22.22h2.96Z"/>
    <path class="cls-1" d="M280.14,682.76h-9.18c.08,1.05.42,1.89,1.03,2.51.6.61,1.38.92,2.33.92.74,0,1.35-.17,1.83-.53.47-.35,1.01-1,1.62-1.95l2.5,1.4c-.39.66-.79,1.22-1.22,1.69-.43.47-.89.86-1.38,1.16-.49.3-1.02.52-1.59.66-.57.14-1.19.21-1.85.21-1.91,0-3.45-.61-4.6-1.84-1.16-1.24-1.74-2.88-1.74-4.92s.56-3.67,1.68-4.92c1.13-1.24,2.63-1.85,4.5-1.85s3.38.6,4.47,1.8c1.09,1.19,1.63,2.85,1.63,4.96v.7ZM277.1,680.34c-.41-1.58-1.41-2.37-2.99-2.37-.36,0-.7.05-1.01.16-.32.11-.6.27-.86.47s-.48.45-.66.74c-.18.29-.32.62-.42.99h5.95Z"/>
    <path class="cls-1" d="M282.3,675.66h2.96v1.14c.54-.57,1.03-.96,1.45-1.17.43-.22.94-.33,1.53-.33.78,0,1.6.25,2.45.76l-1.36,2.71c-.56-.4-1.11-.6-1.64-.6-1.61,0-2.42,1.22-2.42,3.66v6.64h-2.96v-12.81Z"/>
    <path class="cls-1" d="M307.98,675.66h2.97v12.81h-2.97v-1.34c-1.22,1.14-2.53,1.71-3.93,1.71-1.77,0-3.24-.64-4.39-1.92-1.15-1.31-1.72-2.94-1.72-4.89s.57-3.52,1.72-4.8c1.15-1.28,2.59-1.92,4.31-1.92,1.49,0,2.83.61,4.01,1.84v-1.49ZM300.96,682.03c0,1.23.33,2.23.99,3,.68.78,1.53,1.17,2.55,1.17,1.1,0,1.98-.38,2.66-1.13.68-.78,1.01-1.77,1.01-2.97s-.34-2.19-1.01-2.97c-.68-.76-1.55-1.14-2.63-1.14-1.02,0-1.87.39-2.55,1.16-.68.78-1.01,1.75-1.01,2.89Z"/>
    <path class="cls-1" d="M313.61,675.66h2.97v1.18c1.04-1.03,2.2-1.54,3.5-1.54,1.49,0,2.65.47,3.49,1.41.72.8,1.08,2.1,1.08,3.91v7.85h-2.97v-7.16c0-1.26-.18-2.14-.53-2.62-.34-.49-.96-.74-1.87-.74-.98,0-1.68.32-2.09.97-.4.64-.6,1.76-.6,3.35v6.18h-2.97v-12.81Z"/>
    <path class="cls-1" d="M336.75,666.25h2.97v22.22h-2.97v-1.34c-1.17,1.14-2.49,1.71-3.96,1.71-1.75,0-3.21-.64-4.37-1.92-1.15-1.31-1.72-2.94-1.72-4.89s.57-3.51,1.72-4.79c1.14-1.29,2.57-1.93,4.3-1.93,1.5,0,2.84.61,4.03,1.84v-10.89ZM329.72,682.03c0,1.23.33,2.23.99,3,.68.78,1.53,1.17,2.55,1.17,1.1,0,1.98-.38,2.66-1.13.68-.78,1.01-1.77,1.01-2.97s-.34-2.19-1.01-2.97c-.68-.76-1.55-1.14-2.63-1.14-1.02,0-1.87.39-2.55,1.16-.68.78-1.01,1.75-1.01,2.89Z"/>
    <path class="cls-1" d="M361.66,671.19l-2.49,1.47c-.46-.81-.91-1.33-1.33-1.58-.44-.28-1-.42-1.7-.42-.85,0-1.56.24-2.12.72-.56.47-.84,1.07-.84,1.79,0,.99.74,1.79,2.21,2.39l2.03.83c1.65.67,2.85,1.48,3.62,2.44s1.14,2.14,1.14,3.53c0,1.87-.62,3.41-1.87,4.63-1.25,1.23-2.81,1.84-4.67,1.84-1.76,0-3.22-.52-4.37-1.57-1.13-1.04-1.84-2.51-2.12-4.41l3.1-.68c.14,1.19.39,2.02.74,2.47.63.88,1.55,1.32,2.76,1.32.96,0,1.75-.32,2.38-.96s.95-1.45.95-2.43c0-.39-.06-.76-.16-1.08s-.28-.63-.51-.91c-.23-.28-.53-.53-.9-.78-.37-.24-.81-.47-1.32-.69l-1.96-.82c-2.78-1.18-4.17-2.89-4.17-5.16,0-1.53.58-2.8,1.75-3.83,1.17-1.04,2.62-1.55,4.35-1.55,2.34,0,4.17,1.14,5.49,3.42Z"/>
    <path class="cls-1" d="M367.2,695.44h-2.96v-19.78h2.96v1.39c1.17-1.17,2.49-1.75,3.97-1.75,1.76,0,3.21.65,4.35,1.95,1.16,1.29,1.74,2.92,1.74,4.88s-.57,3.52-1.72,4.8c-1.14,1.27-2.58,1.91-4.31,1.91-1.5,0-2.84-.6-4.03-1.8v8.41ZM374.24,682.14c0-1.23-.33-2.23-1-3-.68-.78-1.53-1.17-2.55-1.17-1.09,0-1.97.38-2.64,1.13-.68.76-1.01,1.75-1.01,2.97s.34,2.19,1.01,2.97c.67.76,1.54,1.14,2.63,1.14,1.03,0,1.87-.39,2.54-1.16.68-.77,1.03-1.74,1.03-2.89Z"/>
    <path class="cls-1" d="M390.99,682.76h-9.18c.08,1.05.42,1.89,1.03,2.51.6.61,1.38.92,2.33.92.74,0,1.35-.17,1.83-.53.47-.35,1.01-1,1.62-1.95l2.5,1.4c-.39.66-.79,1.22-1.22,1.69-.43.47-.89.86-1.38,1.16-.49.3-1.02.52-1.59.66-.57.14-1.19.21-1.85.21-1.91,0-3.45-.61-4.6-1.84-1.16-1.24-1.74-2.88-1.74-4.92s.56-3.67,1.68-4.92c1.13-1.24,2.63-1.85,4.5-1.85s3.38.6,4.47,1.8c1.09,1.19,1.63,2.85,1.63,4.96v.7ZM387.95,680.34c-.41-1.58-1.41-2.37-2.99-2.37-.36,0-.7.05-1.01.16-.32.11-.6.27-.86.47s-.48.45-.66.74c-.18.29-.32.62-.42.99h5.95Z"/>
    <path class="cls-1" d="M403.12,676.21v3.93c-.68-.82-1.28-1.39-1.81-1.7-.53-.32-1.14-.47-1.86-.47-1.11,0-2.04.39-2.78,1.17s-1.1,1.76-1.1,2.93.36,2.19,1.07,2.96c.72.77,1.64,1.16,2.75,1.16.71,0,1.34-.15,1.88-.46.53-.3,1.14-.88,1.85-1.74v3.91c-1.2.62-2.4.93-3.6.93-1.98,0-3.64-.64-4.97-1.92-1.33-1.29-2-2.89-2-4.8s.68-3.52,2.03-4.84c1.35-1.32,3.01-1.97,4.97-1.97,1.26,0,2.46.3,3.58.91Z"/>
    <path class="cls-1" d="M407.96,678.42v10.05h-2.96v-10.05h-1.26v-2.76h1.26v-4.7h2.96v4.7h2.3v2.76h-2.3Z"/>
    <path class="cls-1" d="M411.19,675.66h2.96v1.14c.54-.57,1.03-.96,1.45-1.17.43-.22.94-.33,1.53-.33.78,0,1.6.25,2.45.76l-1.36,2.71c-.56-.4-1.11-.6-1.64-.6-1.61,0-2.42,1.22-2.42,3.66v6.64h-2.96v-12.81Z"/>
    <path class="cls-1" d="M429.45,675.66h2.97v12.81h-2.97v-1.34c-1.22,1.14-2.53,1.71-3.93,1.71-1.77,0-3.24-.64-4.39-1.92-1.15-1.31-1.72-2.94-1.72-4.89s.57-3.52,1.72-4.8c1.15-1.28,2.59-1.92,4.31-1.92,1.49,0,2.83.61,4.01,1.84v-1.49ZM422.43,682.03c0,1.23.33,2.23.99,3,.68.78,1.53,1.17,2.55,1.17,1.1,0,1.98-.38,2.66-1.13.68-.78,1.01-1.77,1.01-2.97s-.34-2.19-1.01-2.97c-.68-.76-1.55-1.14-2.63-1.14-1.02,0-1.87.39-2.55,1.16-.68.78-1.01,1.75-1.01,2.89Z"/>
    <path class="cls-1" d="M438.04,666.25v22.22h-2.96v-22.22h2.96Z"/>
    <path class="cls-1" d="M460.45,683.54h-8.69l-2.26,4.93h-3.3l10.05-21.59,9.69,21.59h-3.35l-2.13-4.93ZM459.2,680.66l-3.01-6.91-3.16,6.91h6.17Z"/>
    <path class="cls-1" d="M466.83,675.66h2.97v1.18c1.04-1.03,2.2-1.54,3.5-1.54,1.49,0,2.65.47,3.49,1.41.72.8,1.08,2.1,1.08,3.91v7.85h-2.97v-7.16c0-1.26-.18-2.14-.53-2.62-.34-.49-.96-.74-1.87-.74-.98,0-1.68.32-2.09.97-.4.64-.6,1.76-.6,3.35v6.18h-2.97v-12.81Z"/>
    <path class="cls-1" d="M489.97,675.66h2.97v12.81h-2.97v-1.34c-1.22,1.14-2.53,1.71-3.93,1.71-1.77,0-3.24-.64-4.39-1.92-1.15-1.31-1.72-2.94-1.72-4.89s.57-3.52,1.72-4.8c1.15-1.28,2.59-1.92,4.31-1.92,1.49,0,2.83.61,4.01,1.84v-1.49ZM482.94,682.03c0,1.23.33,2.23.99,3,.68.78,1.53,1.17,2.55,1.17,1.1,0,1.98-.38,2.66-1.13.68-.78,1.01-1.77,1.01-2.97s-.34-2.19-1.01-2.97c-.68-.76-1.55-1.14-2.63-1.14-1.02,0-1.87.39-2.55,1.16-.68.78-1.01,1.75-1.01,2.89Z"/>
    <path class="cls-1" d="M498.56,666.25v22.22h-2.96v-22.22h2.96Z"/>
    <path class="cls-1" d="M505.5,686.09l-5.76-10.43h3.43l3.92,7.37,3.66-7.37h3.34l-10.21,19.78h-3.38l5-9.35Z"/>
    <path class="cls-1" d="M519.28,685.68h7.62v2.79h-13.48l8.3-10.05h-6.54v-2.76h12.39l-8.29,10.02Z"/>
    <path class="cls-1" d="M540.26,682.76h-9.18c.08,1.05.42,1.89,1.03,2.51.6.61,1.38.92,2.33.92.74,0,1.35-.17,1.83-.53.47-.35,1.01-1,1.62-1.95l2.5,1.4c-.39.66-.79,1.22-1.22,1.69-.43.47-.89.86-1.38,1.16-.49.3-1.02.52-1.59.66-.57.14-1.19.21-1.85.21-1.91,0-3.45-.61-4.6-1.84-1.16-1.24-1.74-2.88-1.74-4.92s.56-3.67,1.68-4.92c1.13-1.24,2.63-1.85,4.5-1.85s3.38.6,4.47,1.8c1.09,1.19,1.63,2.85,1.63,4.96v.7ZM537.22,680.34c-.41-1.58-1.41-2.37-2.99-2.37-.36,0-.7.05-1.01.16-.32.11-.6.27-.86.47s-.48.45-.66.74c-.18.29-.32.62-.42.99h5.95Z"/>
    <path class="cls-1" d="M542.42,675.66h2.96v1.14c.54-.57,1.03-.96,1.45-1.17.43-.22.94-.33,1.53-.33.78,0,1.6.25,2.45.76l-1.36,2.71c-.56-.4-1.11-.6-1.64-.6-1.61,0-2.42,1.22-2.42,3.66v6.64h-2.96v-12.81Z"/>
  </g>
  <g>
    <path class="cls-1" d="M353.64,812.86v9.08c0,1.3.21,2.24.63,2.84.63.87,1.52,1.3,2.67,1.3s2.04-.43,2.68-1.3c.42-.58.63-1.53.63-2.84v-9.08h2.28v9.71c0,1.59-.5,2.9-1.48,3.93-1.11,1.15-2.48,1.72-4.1,1.72s-2.99-.57-4.09-1.72c-.99-1.03-1.48-2.34-1.48-3.93v-9.71h2.28Z"/>
    <path class="cls-1" d="M368.49,820.05l-4.15-7.2h2.59l2.88,5.11,3.03-5.11h2.61l-4.35,7.2,4.56,7.88h-2.55l-3.34-5.77-3.44,5.77h-2.58l4.74-7.88Z"/>
    <path class="cls-1" d="M384.04,811.44v8.09c.88-.91,1.88-1.37,2.99-1.37,1.28,0,2.35.48,3.2,1.44.85.95,1.28,2.14,1.28,3.55s-.43,2.68-1.29,3.63c-.85.95-1.93,1.43-3.23,1.43-1.1,0-2.08-.42-2.95-1.27v1h-2.2v-16.49h2.2ZM389.27,823.25c0-.91-.25-1.65-.74-2.23-.5-.59-1.13-.88-1.88-.88-.81,0-1.46.28-1.97.85-.5.56-.75,1.29-.75,2.19s.25,1.66.74,2.22c.5.57,1.15.85,1.95.85.76,0,1.39-.28,1.89-.85.51-.57.76-1.29.76-2.15Z"/>
    <path class="cls-1" d="M395.67,826.17l-4.28-7.74h2.55l2.91,5.47,2.71-5.47h2.48l-7.58,14.69h-2.51l3.71-6.94Z"/>
    <path class="cls-1" d="M417.06,815.1l-1.85,1.09c-.34-.6-.67-.99-.99-1.17-.33-.21-.75-.31-1.26-.31-.63,0-1.16.18-1.57.54-.42.35-.62.79-.62,1.33,0,.74.55,1.33,1.64,1.78l1.5.62c1.22.5,2.12,1.1,2.69,1.81s.85,1.59.85,2.62c0,1.39-.46,2.53-1.39,3.44-.93.91-2.09,1.37-3.47,1.37-1.31,0-2.39-.39-3.24-1.16-.84-.77-1.36-1.87-1.57-3.27l2.3-.51c.1.89.29,1.5.55,1.84.47.65,1.15.98,2.05.98.71,0,1.3-.24,1.77-.71s.7-1.08.7-1.81c0-.29-.04-.56-.12-.81s-.21-.47-.38-.67-.4-.4-.67-.58-.6-.35-.98-.51l-1.46-.61c-2.06-.87-3.1-2.15-3.1-3.83,0-1.13.43-2.08,1.3-2.84.87-.77,1.94-1.15,3.23-1.15,1.74,0,3.1.85,4.07,2.54Z"/>
    <path class="cls-1" d="M421.18,818.42v5.46c0,1.58.62,2.36,1.87,2.36s1.87-.79,1.87-2.36v-5.46h2.2v5.51c0,.76-.09,1.42-.28,1.97-.18.5-.5.94-.95,1.34-.74.64-1.69.97-2.83.97s-2.08-.32-2.82-.97c-.46-.4-.78-.84-.97-1.34-.18-.44-.27-1.1-.27-1.97v-5.51h2.2Z"/>
    <path class="cls-1" d="M431.27,811.44v10.06l3.1-3.08h2.95l-4.13,3.99,4.43,5.52h-2.85l-3.14-4.01-.35.35v3.66h-2.2v-16.49h2.2Z"/>
    <path class="cls-1" d="M446.3,818.76h6.5v-5.9h2.28v15.08h-2.28v-7.04h-6.5v7.04h-2.28v-15.08h2.28v5.9Z"/>
    <path class="cls-1" d="M460.47,826.17l-4.28-7.74h2.55l2.91,5.47,2.71-5.47h2.48l-7.58,14.69h-2.51l3.71-6.94Z"/>
    <path class="cls-1" d="M469.74,818.42v5.46c0,1.58.62,2.36,1.87,2.36s1.87-.79,1.87-2.36v-5.46h2.2v5.51c0,.76-.09,1.42-.28,1.97-.18.5-.5.94-.95,1.34-.74.64-1.69.97-2.83.97s-2.08-.32-2.82-.97c-.46-.4-.78-.84-.97-1.34-.18-.44-.27-1.1-.27-1.97v-5.51h2.2Z"/>
    <path class="cls-1" d="M477.64,818.42h2.21v.88c.77-.76,1.63-1.14,2.6-1.14,1.11,0,1.97.35,2.59,1.04.53.59.8,1.56.8,2.9v5.83h-2.21v-5.31c0-.94-.13-1.58-.39-1.94-.25-.36-.72-.55-1.39-.55-.73,0-1.25.24-1.55.72-.3.48-.45,1.31-.45,2.49v4.59h-2.21v-9.51Z"/>
    <path class="cls-1" d="M502.13,815.1l-1.85,1.09c-.34-.6-.67-.99-.99-1.17-.33-.21-.75-.31-1.26-.31-.63,0-1.16.18-1.57.54-.42.35-.62.79-.62,1.33,0,.74.55,1.33,1.64,1.78l1.5.62c1.22.5,2.12,1.1,2.69,1.81s.85,1.59.85,2.62c0,1.39-.46,2.53-1.39,3.44-.93.91-2.09,1.37-3.47,1.37-1.31,0-2.39-.39-3.24-1.16-.84-.77-1.36-1.87-1.57-3.27l2.3-.51c.1.89.29,1.5.55,1.84.47.65,1.15.98,2.05.98.71,0,1.3-.24,1.77-.71s.7-1.08.7-1.81c0-.29-.04-.56-.12-.81s-.21-.47-.38-.67-.4-.4-.67-.58-.6-.35-.98-.51l-1.46-.61c-2.06-.87-3.1-2.15-3.1-3.83,0-1.13.43-2.08,1.3-2.84.87-.77,1.94-1.15,3.23-1.15,1.74,0,3.1.85,4.07,2.54Z"/>
    <path class="cls-1" d="M506.24,818.42v5.46c0,1.58.62,2.36,1.87,2.36s1.87-.79,1.87-2.36v-5.46h2.2v5.51c0,.76-.09,1.42-.28,1.97-.18.5-.5.94-.95,1.34-.74.64-1.69.97-2.83.97s-2.08-.32-2.82-.97c-.46-.4-.78-.84-.97-1.34-.18-.44-.27-1.1-.27-1.97v-5.51h2.2Z"/>
    <path class="cls-1" d="M514.14,818.42h2.21v.88c.77-.76,1.63-1.14,2.6-1.14,1.11,0,1.97.35,2.59,1.04.53.59.8,1.56.8,2.9v5.83h-2.21v-5.31c0-.94-.13-1.58-.39-1.94-.25-.36-.72-.55-1.39-.55-.73,0-1.25.24-1.55.72-.3.48-.45,1.31-.45,2.49v4.59h-2.21v-9.51Z"/>
    <path class="cls-1" d="M533.51,827.71c0,.45-.01.84-.04,1.19s-.07.64-.12.9c-.16.72-.46,1.33-.92,1.85-.86.99-2.04,1.48-3.54,1.48-1.27,0-2.31-.34-3.13-1.03-.85-.7-1.33-1.68-1.46-2.92h2.21c.08.47.22.83.42,1.08.46.59,1.12.89,1.99.89,1.61,0,2.41-.99,2.41-2.96v-1.33c-.87.89-1.88,1.34-3.02,1.34-1.3,0-2.36-.47-3.18-1.41-.83-.95-1.25-2.14-1.25-3.56s.39-2.57,1.16-3.54c.83-1.03,1.93-1.54,3.3-1.54,1.2,0,2.19.45,2.99,1.34v-1.07h2.2v9.29ZM531.4,823.2c0-.92-.25-1.66-.74-2.22-.5-.57-1.14-.85-1.92-.85-.83,0-1.49.31-1.97.93-.44.55-.65,1.27-.65,2.15s.22,1.58.65,2.13c.48.61,1.13.91,1.97.91s1.5-.31,1.99-.92c.45-.55.67-1.26.67-2.13Z"/>
  </g>
</svg>